G75*
%MOIN*%
%OFA0B0*%
%FSLAX25Y25*%
%IPPOS*%
%LPD*%
%AMOC8*
5,1,8,0,0,1.08239X$1,22.5*
%
%ADD10C,0.00000*%
%ADD11C,0.03846*%
%ADD12C,0.05028*%
%ADD13C,0.00519*%
%ADD14C,0.00448*%
%ADD15C,0.00545*%
%ADD16C,0.00609*%
%ADD17C,0.00039*%
%ADD18C,0.00488*%
%ADD19C,0.00444*%
%ADD20C,0.00474*%
%ADD21OC8,0.06500*%
%ADD22C,0.00420*%
%ADD23C,0.00455*%
%ADD24C,0.06500*%
%ADD25C,0.05300*%
%ADD26C,0.00445*%
%ADD27C,0.00404*%
%ADD28R,0.06996X0.06996*%
%ADD29C,0.06996*%
%ADD30C,0.06406*%
%ADD31C,0.00418*%
D10*
X0001300Y0001300D02*
X0001300Y0288702D01*
X0198150Y0288702D01*
X0198150Y0001300D01*
X0001300Y0001300D01*
X0005228Y0006117D02*
X0005230Y0006212D01*
X0005236Y0006306D01*
X0005246Y0006401D01*
X0005260Y0006495D01*
X0005277Y0006588D01*
X0005299Y0006680D01*
X0005325Y0006771D01*
X0005354Y0006862D01*
X0005387Y0006950D01*
X0005424Y0007038D01*
X0005464Y0007124D01*
X0005508Y0007208D01*
X0005555Y0007290D01*
X0005606Y0007370D01*
X0005660Y0007448D01*
X0005718Y0007523D01*
X0005778Y0007596D01*
X0005842Y0007667D01*
X0005908Y0007735D01*
X0005977Y0007799D01*
X0006049Y0007861D01*
X0006123Y0007920D01*
X0006200Y0007976D01*
X0006279Y0008029D01*
X0006360Y0008078D01*
X0006443Y0008123D01*
X0006528Y0008166D01*
X0006615Y0008204D01*
X0006703Y0008239D01*
X0006792Y0008270D01*
X0006883Y0008298D01*
X0006975Y0008321D01*
X0007068Y0008341D01*
X0007161Y0008357D01*
X0007255Y0008369D01*
X0007350Y0008377D01*
X0007445Y0008381D01*
X0007539Y0008381D01*
X0007634Y0008377D01*
X0007729Y0008369D01*
X0007823Y0008357D01*
X0007916Y0008341D01*
X0008009Y0008321D01*
X0008101Y0008298D01*
X0008192Y0008270D01*
X0008281Y0008239D01*
X0008369Y0008204D01*
X0008456Y0008166D01*
X0008541Y0008123D01*
X0008624Y0008078D01*
X0008705Y0008029D01*
X0008784Y0007976D01*
X0008861Y0007920D01*
X0008935Y0007861D01*
X0009007Y0007799D01*
X0009076Y0007735D01*
X0009142Y0007667D01*
X0009206Y0007596D01*
X0009266Y0007523D01*
X0009324Y0007448D01*
X0009378Y0007370D01*
X0009429Y0007290D01*
X0009476Y0007208D01*
X0009520Y0007124D01*
X0009560Y0007038D01*
X0009597Y0006950D01*
X0009630Y0006862D01*
X0009659Y0006771D01*
X0009685Y0006680D01*
X0009707Y0006588D01*
X0009724Y0006495D01*
X0009738Y0006401D01*
X0009748Y0006306D01*
X0009754Y0006212D01*
X0009756Y0006117D01*
X0009754Y0006022D01*
X0009748Y0005928D01*
X0009738Y0005833D01*
X0009724Y0005739D01*
X0009707Y0005646D01*
X0009685Y0005554D01*
X0009659Y0005463D01*
X0009630Y0005372D01*
X0009597Y0005284D01*
X0009560Y0005196D01*
X0009520Y0005110D01*
X0009476Y0005026D01*
X0009429Y0004944D01*
X0009378Y0004864D01*
X0009324Y0004786D01*
X0009266Y0004711D01*
X0009206Y0004638D01*
X0009142Y0004567D01*
X0009076Y0004499D01*
X0009007Y0004435D01*
X0008935Y0004373D01*
X0008861Y0004314D01*
X0008784Y0004258D01*
X0008705Y0004205D01*
X0008624Y0004156D01*
X0008541Y0004111D01*
X0008456Y0004068D01*
X0008369Y0004030D01*
X0008281Y0003995D01*
X0008192Y0003964D01*
X0008101Y0003936D01*
X0008009Y0003913D01*
X0007916Y0003893D01*
X0007823Y0003877D01*
X0007729Y0003865D01*
X0007634Y0003857D01*
X0007539Y0003853D01*
X0007445Y0003853D01*
X0007350Y0003857D01*
X0007255Y0003865D01*
X0007161Y0003877D01*
X0007068Y0003893D01*
X0006975Y0003913D01*
X0006883Y0003936D01*
X0006792Y0003964D01*
X0006703Y0003995D01*
X0006615Y0004030D01*
X0006528Y0004068D01*
X0006443Y0004111D01*
X0006360Y0004156D01*
X0006279Y0004205D01*
X0006200Y0004258D01*
X0006123Y0004314D01*
X0006049Y0004373D01*
X0005977Y0004435D01*
X0005908Y0004499D01*
X0005842Y0004567D01*
X0005778Y0004638D01*
X0005718Y0004711D01*
X0005660Y0004786D01*
X0005606Y0004864D01*
X0005555Y0004944D01*
X0005508Y0005026D01*
X0005464Y0005110D01*
X0005424Y0005196D01*
X0005387Y0005284D01*
X0005354Y0005372D01*
X0005325Y0005463D01*
X0005299Y0005554D01*
X0005277Y0005646D01*
X0005260Y0005739D01*
X0005246Y0005833D01*
X0005236Y0005928D01*
X0005230Y0006022D01*
X0005228Y0006117D01*
X0016449Y0010054D02*
X0016451Y0010135D01*
X0016457Y0010217D01*
X0016467Y0010298D01*
X0016481Y0010378D01*
X0016498Y0010457D01*
X0016520Y0010536D01*
X0016545Y0010613D01*
X0016574Y0010690D01*
X0016607Y0010764D01*
X0016644Y0010837D01*
X0016683Y0010908D01*
X0016727Y0010977D01*
X0016773Y0011044D01*
X0016823Y0011108D01*
X0016876Y0011170D01*
X0016932Y0011230D01*
X0016990Y0011286D01*
X0017052Y0011340D01*
X0017116Y0011391D01*
X0017182Y0011438D01*
X0017250Y0011482D01*
X0017321Y0011523D01*
X0017393Y0011560D01*
X0017468Y0011594D01*
X0017543Y0011624D01*
X0017621Y0011650D01*
X0017699Y0011673D01*
X0017778Y0011691D01*
X0017858Y0011706D01*
X0017939Y0011717D01*
X0018020Y0011724D01*
X0018102Y0011727D01*
X0018183Y0011726D01*
X0018264Y0011721D01*
X0018345Y0011712D01*
X0018426Y0011699D01*
X0018506Y0011682D01*
X0018584Y0011662D01*
X0018662Y0011637D01*
X0018739Y0011609D01*
X0018814Y0011577D01*
X0018887Y0011542D01*
X0018958Y0011503D01*
X0019028Y0011460D01*
X0019095Y0011415D01*
X0019161Y0011366D01*
X0019223Y0011314D01*
X0019283Y0011258D01*
X0019340Y0011200D01*
X0019395Y0011140D01*
X0019446Y0011076D01*
X0019494Y0011011D01*
X0019539Y0010943D01*
X0019581Y0010873D01*
X0019619Y0010801D01*
X0019654Y0010727D01*
X0019685Y0010652D01*
X0019712Y0010575D01*
X0019735Y0010497D01*
X0019755Y0010418D01*
X0019771Y0010338D01*
X0019783Y0010257D01*
X0019791Y0010176D01*
X0019795Y0010095D01*
X0019795Y0010013D01*
X0019791Y0009932D01*
X0019783Y0009851D01*
X0019771Y0009770D01*
X0019755Y0009690D01*
X0019735Y0009611D01*
X0019712Y0009533D01*
X0019685Y0009456D01*
X0019654Y0009381D01*
X0019619Y0009307D01*
X0019581Y0009235D01*
X0019539Y0009165D01*
X0019494Y0009097D01*
X0019446Y0009032D01*
X0019395Y0008968D01*
X0019340Y0008908D01*
X0019283Y0008850D01*
X0019223Y0008794D01*
X0019161Y0008742D01*
X0019095Y0008693D01*
X0019028Y0008648D01*
X0018959Y0008605D01*
X0018887Y0008566D01*
X0018814Y0008531D01*
X0018739Y0008499D01*
X0018662Y0008471D01*
X0018584Y0008446D01*
X0018506Y0008426D01*
X0018426Y0008409D01*
X0018345Y0008396D01*
X0018264Y0008387D01*
X0018183Y0008382D01*
X0018102Y0008381D01*
X0018020Y0008384D01*
X0017939Y0008391D01*
X0017858Y0008402D01*
X0017778Y0008417D01*
X0017699Y0008435D01*
X0017621Y0008458D01*
X0017543Y0008484D01*
X0017468Y0008514D01*
X0017393Y0008548D01*
X0017321Y0008585D01*
X0017250Y0008626D01*
X0017182Y0008670D01*
X0017116Y0008717D01*
X0017052Y0008768D01*
X0016990Y0008822D01*
X0016932Y0008878D01*
X0016876Y0008938D01*
X0016823Y0009000D01*
X0016773Y0009064D01*
X0016727Y0009131D01*
X0016683Y0009200D01*
X0016644Y0009271D01*
X0016607Y0009344D01*
X0016574Y0009418D01*
X0016545Y0009495D01*
X0016520Y0009572D01*
X0016498Y0009651D01*
X0016481Y0009730D01*
X0016467Y0009810D01*
X0016457Y0009891D01*
X0016451Y0009973D01*
X0016449Y0010054D01*
X0016449Y0029739D02*
X0016451Y0029820D01*
X0016457Y0029902D01*
X0016467Y0029983D01*
X0016481Y0030063D01*
X0016498Y0030142D01*
X0016520Y0030221D01*
X0016545Y0030298D01*
X0016574Y0030375D01*
X0016607Y0030449D01*
X0016644Y0030522D01*
X0016683Y0030593D01*
X0016727Y0030662D01*
X0016773Y0030729D01*
X0016823Y0030793D01*
X0016876Y0030855D01*
X0016932Y0030915D01*
X0016990Y0030971D01*
X0017052Y0031025D01*
X0017116Y0031076D01*
X0017182Y0031123D01*
X0017250Y0031167D01*
X0017321Y0031208D01*
X0017393Y0031245D01*
X0017468Y0031279D01*
X0017543Y0031309D01*
X0017621Y0031335D01*
X0017699Y0031358D01*
X0017778Y0031376D01*
X0017858Y0031391D01*
X0017939Y0031402D01*
X0018020Y0031409D01*
X0018102Y0031412D01*
X0018183Y0031411D01*
X0018264Y0031406D01*
X0018345Y0031397D01*
X0018426Y0031384D01*
X0018506Y0031367D01*
X0018584Y0031347D01*
X0018662Y0031322D01*
X0018739Y0031294D01*
X0018814Y0031262D01*
X0018887Y0031227D01*
X0018958Y0031188D01*
X0019028Y0031145D01*
X0019095Y0031100D01*
X0019161Y0031051D01*
X0019223Y0030999D01*
X0019283Y0030943D01*
X0019340Y0030885D01*
X0019395Y0030825D01*
X0019446Y0030761D01*
X0019494Y0030696D01*
X0019539Y0030628D01*
X0019581Y0030558D01*
X0019619Y0030486D01*
X0019654Y0030412D01*
X0019685Y0030337D01*
X0019712Y0030260D01*
X0019735Y0030182D01*
X0019755Y0030103D01*
X0019771Y0030023D01*
X0019783Y0029942D01*
X0019791Y0029861D01*
X0019795Y0029780D01*
X0019795Y0029698D01*
X0019791Y0029617D01*
X0019783Y0029536D01*
X0019771Y0029455D01*
X0019755Y0029375D01*
X0019735Y0029296D01*
X0019712Y0029218D01*
X0019685Y0029141D01*
X0019654Y0029066D01*
X0019619Y0028992D01*
X0019581Y0028920D01*
X0019539Y0028850D01*
X0019494Y0028782D01*
X0019446Y0028717D01*
X0019395Y0028653D01*
X0019340Y0028593D01*
X0019283Y0028535D01*
X0019223Y0028479D01*
X0019161Y0028427D01*
X0019095Y0028378D01*
X0019028Y0028333D01*
X0018959Y0028290D01*
X0018887Y0028251D01*
X0018814Y0028216D01*
X0018739Y0028184D01*
X0018662Y0028156D01*
X0018584Y0028131D01*
X0018506Y0028111D01*
X0018426Y0028094D01*
X0018345Y0028081D01*
X0018264Y0028072D01*
X0018183Y0028067D01*
X0018102Y0028066D01*
X0018020Y0028069D01*
X0017939Y0028076D01*
X0017858Y0028087D01*
X0017778Y0028102D01*
X0017699Y0028120D01*
X0017621Y0028143D01*
X0017543Y0028169D01*
X0017468Y0028199D01*
X0017393Y0028233D01*
X0017321Y0028270D01*
X0017250Y0028311D01*
X0017182Y0028355D01*
X0017116Y0028402D01*
X0017052Y0028453D01*
X0016990Y0028507D01*
X0016932Y0028563D01*
X0016876Y0028623D01*
X0016823Y0028685D01*
X0016773Y0028749D01*
X0016727Y0028816D01*
X0016683Y0028885D01*
X0016644Y0028956D01*
X0016607Y0029029D01*
X0016574Y0029103D01*
X0016545Y0029180D01*
X0016520Y0029257D01*
X0016498Y0029336D01*
X0016481Y0029415D01*
X0016467Y0029495D01*
X0016457Y0029576D01*
X0016451Y0029658D01*
X0016449Y0029739D01*
X0005228Y0033676D02*
X0005230Y0033771D01*
X0005236Y0033865D01*
X0005246Y0033960D01*
X0005260Y0034054D01*
X0005277Y0034147D01*
X0005299Y0034239D01*
X0005325Y0034330D01*
X0005354Y0034421D01*
X0005387Y0034509D01*
X0005424Y0034597D01*
X0005464Y0034683D01*
X0005508Y0034767D01*
X0005555Y0034849D01*
X0005606Y0034929D01*
X0005660Y0035007D01*
X0005718Y0035082D01*
X0005778Y0035155D01*
X0005842Y0035226D01*
X0005908Y0035294D01*
X0005977Y0035358D01*
X0006049Y0035420D01*
X0006123Y0035479D01*
X0006200Y0035535D01*
X0006279Y0035588D01*
X0006360Y0035637D01*
X0006443Y0035682D01*
X0006528Y0035725D01*
X0006615Y0035763D01*
X0006703Y0035798D01*
X0006792Y0035829D01*
X0006883Y0035857D01*
X0006975Y0035880D01*
X0007068Y0035900D01*
X0007161Y0035916D01*
X0007255Y0035928D01*
X0007350Y0035936D01*
X0007445Y0035940D01*
X0007539Y0035940D01*
X0007634Y0035936D01*
X0007729Y0035928D01*
X0007823Y0035916D01*
X0007916Y0035900D01*
X0008009Y0035880D01*
X0008101Y0035857D01*
X0008192Y0035829D01*
X0008281Y0035798D01*
X0008369Y0035763D01*
X0008456Y0035725D01*
X0008541Y0035682D01*
X0008624Y0035637D01*
X0008705Y0035588D01*
X0008784Y0035535D01*
X0008861Y0035479D01*
X0008935Y0035420D01*
X0009007Y0035358D01*
X0009076Y0035294D01*
X0009142Y0035226D01*
X0009206Y0035155D01*
X0009266Y0035082D01*
X0009324Y0035007D01*
X0009378Y0034929D01*
X0009429Y0034849D01*
X0009476Y0034767D01*
X0009520Y0034683D01*
X0009560Y0034597D01*
X0009597Y0034509D01*
X0009630Y0034421D01*
X0009659Y0034330D01*
X0009685Y0034239D01*
X0009707Y0034147D01*
X0009724Y0034054D01*
X0009738Y0033960D01*
X0009748Y0033865D01*
X0009754Y0033771D01*
X0009756Y0033676D01*
X0009754Y0033581D01*
X0009748Y0033487D01*
X0009738Y0033392D01*
X0009724Y0033298D01*
X0009707Y0033205D01*
X0009685Y0033113D01*
X0009659Y0033022D01*
X0009630Y0032931D01*
X0009597Y0032843D01*
X0009560Y0032755D01*
X0009520Y0032669D01*
X0009476Y0032585D01*
X0009429Y0032503D01*
X0009378Y0032423D01*
X0009324Y0032345D01*
X0009266Y0032270D01*
X0009206Y0032197D01*
X0009142Y0032126D01*
X0009076Y0032058D01*
X0009007Y0031994D01*
X0008935Y0031932D01*
X0008861Y0031873D01*
X0008784Y0031817D01*
X0008705Y0031764D01*
X0008624Y0031715D01*
X0008541Y0031670D01*
X0008456Y0031627D01*
X0008369Y0031589D01*
X0008281Y0031554D01*
X0008192Y0031523D01*
X0008101Y0031495D01*
X0008009Y0031472D01*
X0007916Y0031452D01*
X0007823Y0031436D01*
X0007729Y0031424D01*
X0007634Y0031416D01*
X0007539Y0031412D01*
X0007445Y0031412D01*
X0007350Y0031416D01*
X0007255Y0031424D01*
X0007161Y0031436D01*
X0007068Y0031452D01*
X0006975Y0031472D01*
X0006883Y0031495D01*
X0006792Y0031523D01*
X0006703Y0031554D01*
X0006615Y0031589D01*
X0006528Y0031627D01*
X0006443Y0031670D01*
X0006360Y0031715D01*
X0006279Y0031764D01*
X0006200Y0031817D01*
X0006123Y0031873D01*
X0006049Y0031932D01*
X0005977Y0031994D01*
X0005908Y0032058D01*
X0005842Y0032126D01*
X0005778Y0032197D01*
X0005718Y0032270D01*
X0005660Y0032345D01*
X0005606Y0032423D01*
X0005555Y0032503D01*
X0005508Y0032585D01*
X0005464Y0032669D01*
X0005424Y0032755D01*
X0005387Y0032843D01*
X0005354Y0032931D01*
X0005325Y0033022D01*
X0005299Y0033113D01*
X0005277Y0033205D01*
X0005260Y0033298D01*
X0005246Y0033392D01*
X0005236Y0033487D01*
X0005230Y0033581D01*
X0005228Y0033676D01*
D11*
X0018122Y0029739D03*
X0018122Y0010054D03*
D12*
X0007492Y0006117D03*
X0007492Y0033676D03*
D13*
X0015474Y0025793D02*
X0015474Y0024237D01*
X0015474Y0025793D02*
X0020770Y0025793D01*
X0020770Y0024237D01*
X0015474Y0024237D01*
X0015474Y0024755D02*
X0020770Y0024755D01*
X0020770Y0025273D02*
X0015474Y0025273D01*
X0015474Y0025791D02*
X0020770Y0025791D01*
X0015474Y0023234D02*
X0015474Y0021678D01*
X0015474Y0023234D02*
X0020770Y0023234D01*
X0020770Y0021678D01*
X0015474Y0021678D01*
X0015474Y0022196D02*
X0020770Y0022196D01*
X0020770Y0022714D02*
X0015474Y0022714D01*
X0015474Y0023232D02*
X0020770Y0023232D01*
X0015474Y0020675D02*
X0015474Y0019119D01*
X0015474Y0020675D02*
X0020770Y0020675D01*
X0020770Y0019119D01*
X0015474Y0019119D01*
X0015474Y0019637D02*
X0020770Y0019637D01*
X0020770Y0020155D02*
X0015474Y0020155D01*
X0015474Y0020673D02*
X0020770Y0020673D01*
X0015474Y0018116D02*
X0015474Y0016560D01*
X0015474Y0018116D02*
X0020770Y0018116D01*
X0020770Y0016560D01*
X0015474Y0016560D01*
X0015474Y0017078D02*
X0020770Y0017078D01*
X0020770Y0017596D02*
X0015474Y0017596D01*
X0015474Y0018114D02*
X0020770Y0018114D01*
X0015474Y0015557D02*
X0015474Y0014001D01*
X0015474Y0015557D02*
X0020770Y0015557D01*
X0020770Y0014001D01*
X0015474Y0014001D01*
X0015474Y0014519D02*
X0020770Y0014519D01*
X0020770Y0015037D02*
X0015474Y0015037D01*
X0015474Y0015555D02*
X0020770Y0015555D01*
D14*
X0004415Y0012981D02*
X0004415Y0018939D01*
X0010569Y0018939D01*
X0010569Y0012981D01*
X0004415Y0012981D01*
X0004415Y0013428D02*
X0010569Y0013428D01*
X0010569Y0013875D02*
X0004415Y0013875D01*
X0004415Y0014322D02*
X0010569Y0014322D01*
X0010569Y0014769D02*
X0004415Y0014769D01*
X0004415Y0015216D02*
X0010569Y0015216D01*
X0010569Y0015663D02*
X0004415Y0015663D01*
X0004415Y0016110D02*
X0010569Y0016110D01*
X0010569Y0016557D02*
X0004415Y0016557D01*
X0004415Y0017004D02*
X0010569Y0017004D01*
X0010569Y0017451D02*
X0004415Y0017451D01*
X0004415Y0017898D02*
X0010569Y0017898D01*
X0010569Y0018345D02*
X0004415Y0018345D01*
X0004415Y0018792D02*
X0010569Y0018792D01*
X0004415Y0020855D02*
X0004415Y0026813D01*
X0010569Y0026813D01*
X0010569Y0020855D01*
X0004415Y0020855D01*
X0004415Y0021302D02*
X0010569Y0021302D01*
X0010569Y0021749D02*
X0004415Y0021749D01*
X0004415Y0022196D02*
X0010569Y0022196D01*
X0010569Y0022643D02*
X0004415Y0022643D01*
X0004415Y0023090D02*
X0010569Y0023090D01*
X0010569Y0023537D02*
X0004415Y0023537D01*
X0004415Y0023984D02*
X0010569Y0023984D01*
X0010569Y0024431D02*
X0004415Y0024431D01*
X0004415Y0024878D02*
X0010569Y0024878D01*
X0010569Y0025325D02*
X0004415Y0025325D01*
X0004415Y0025772D02*
X0010569Y0025772D01*
X0010569Y0026219D02*
X0004415Y0026219D01*
X0004415Y0026666D02*
X0010569Y0026666D01*
X0010919Y0198373D02*
X0016877Y0198373D01*
X0016877Y0190053D01*
X0010919Y0190053D01*
X0010919Y0198373D01*
X0010919Y0190500D02*
X0016877Y0190500D01*
X0016877Y0190947D02*
X0010919Y0190947D01*
X0010919Y0191394D02*
X0016877Y0191394D01*
X0016877Y0191841D02*
X0010919Y0191841D01*
X0010919Y0192288D02*
X0016877Y0192288D01*
X0016877Y0192735D02*
X0010919Y0192735D01*
X0010919Y0193182D02*
X0016877Y0193182D01*
X0016877Y0193629D02*
X0010919Y0193629D01*
X0010919Y0194076D02*
X0016877Y0194076D01*
X0016877Y0194523D02*
X0010919Y0194523D01*
X0010919Y0194970D02*
X0016877Y0194970D01*
X0016877Y0195417D02*
X0010919Y0195417D01*
X0010919Y0195864D02*
X0016877Y0195864D01*
X0016877Y0196311D02*
X0010919Y0196311D01*
X0010919Y0196758D02*
X0016877Y0196758D01*
X0016877Y0197205D02*
X0010919Y0197205D01*
X0010919Y0197652D02*
X0016877Y0197652D01*
X0016877Y0198099D02*
X0010919Y0198099D01*
X0010919Y0218058D02*
X0016877Y0218058D01*
X0016877Y0209738D01*
X0010919Y0209738D01*
X0010919Y0218058D01*
X0010919Y0210185D02*
X0016877Y0210185D01*
X0016877Y0210632D02*
X0010919Y0210632D01*
X0010919Y0211079D02*
X0016877Y0211079D01*
X0016877Y0211526D02*
X0010919Y0211526D01*
X0010919Y0211973D02*
X0016877Y0211973D01*
X0016877Y0212420D02*
X0010919Y0212420D01*
X0010919Y0212867D02*
X0016877Y0212867D01*
X0016877Y0213314D02*
X0010919Y0213314D01*
X0010919Y0213761D02*
X0016877Y0213761D01*
X0016877Y0214208D02*
X0010919Y0214208D01*
X0010919Y0214655D02*
X0016877Y0214655D01*
X0016877Y0215102D02*
X0010919Y0215102D01*
X0010919Y0215549D02*
X0016877Y0215549D01*
X0016877Y0215996D02*
X0010919Y0215996D01*
X0010919Y0216443D02*
X0016877Y0216443D01*
X0016877Y0216890D02*
X0010919Y0216890D01*
X0010919Y0217337D02*
X0016877Y0217337D01*
X0016877Y0217784D02*
X0010919Y0217784D01*
X0025093Y0218058D02*
X0031051Y0218058D01*
X0031051Y0209738D01*
X0025093Y0209738D01*
X0025093Y0218058D01*
X0025093Y0210185D02*
X0031051Y0210185D01*
X0031051Y0210632D02*
X0025093Y0210632D01*
X0025093Y0211079D02*
X0031051Y0211079D01*
X0031051Y0211526D02*
X0025093Y0211526D01*
X0025093Y0211973D02*
X0031051Y0211973D01*
X0031051Y0212420D02*
X0025093Y0212420D01*
X0025093Y0212867D02*
X0031051Y0212867D01*
X0031051Y0213314D02*
X0025093Y0213314D01*
X0025093Y0213761D02*
X0031051Y0213761D01*
X0031051Y0214208D02*
X0025093Y0214208D01*
X0025093Y0214655D02*
X0031051Y0214655D01*
X0031051Y0215102D02*
X0025093Y0215102D01*
X0025093Y0215549D02*
X0031051Y0215549D01*
X0031051Y0215996D02*
X0025093Y0215996D01*
X0025093Y0216443D02*
X0031051Y0216443D01*
X0031051Y0216890D02*
X0025093Y0216890D01*
X0025093Y0217337D02*
X0031051Y0217337D01*
X0031051Y0217784D02*
X0025093Y0217784D01*
X0025093Y0198373D02*
X0031051Y0198373D01*
X0031051Y0190053D01*
X0025093Y0190053D01*
X0025093Y0198373D01*
X0025093Y0190500D02*
X0031051Y0190500D01*
X0031051Y0190947D02*
X0025093Y0190947D01*
X0025093Y0191394D02*
X0031051Y0191394D01*
X0031051Y0191841D02*
X0025093Y0191841D01*
X0025093Y0192288D02*
X0031051Y0192288D01*
X0031051Y0192735D02*
X0025093Y0192735D01*
X0025093Y0193182D02*
X0031051Y0193182D01*
X0031051Y0193629D02*
X0025093Y0193629D01*
X0025093Y0194076D02*
X0031051Y0194076D01*
X0031051Y0194523D02*
X0025093Y0194523D01*
X0025093Y0194970D02*
X0031051Y0194970D01*
X0031051Y0195417D02*
X0025093Y0195417D01*
X0025093Y0195864D02*
X0031051Y0195864D01*
X0031051Y0196311D02*
X0025093Y0196311D01*
X0025093Y0196758D02*
X0031051Y0196758D01*
X0031051Y0197205D02*
X0025093Y0197205D01*
X0025093Y0197652D02*
X0031051Y0197652D01*
X0031051Y0198099D02*
X0025093Y0198099D01*
D15*
X0068047Y0053436D02*
X0068047Y0052102D01*
X0066319Y0052102D01*
X0066319Y0053436D01*
X0068047Y0053436D01*
X0068047Y0052646D02*
X0066319Y0052646D01*
X0066319Y0053190D02*
X0068047Y0053190D01*
D16*
X0068015Y0051042D02*
X0068015Y0050166D01*
X0066351Y0050166D01*
X0066351Y0051042D01*
X0068015Y0051042D01*
X0068015Y0050774D02*
X0066351Y0050774D01*
X0068015Y0049073D02*
X0068015Y0048197D01*
X0066351Y0048197D01*
X0066351Y0049073D01*
X0068015Y0049073D01*
X0068015Y0048805D02*
X0066351Y0048805D01*
X0075693Y0049073D02*
X0075693Y0048197D01*
X0074029Y0048197D01*
X0074029Y0049073D01*
X0075693Y0049073D01*
X0075693Y0048805D02*
X0074029Y0048805D01*
X0075693Y0050166D02*
X0075693Y0051042D01*
X0075693Y0050166D02*
X0074029Y0050166D01*
X0074029Y0051042D01*
X0075693Y0051042D01*
X0075693Y0050774D02*
X0074029Y0050774D01*
X0075693Y0052134D02*
X0075693Y0053010D01*
X0075693Y0052134D02*
X0074029Y0052134D01*
X0074029Y0053010D01*
X0075693Y0053010D01*
X0075693Y0052742D02*
X0074029Y0052742D01*
D17*
X0072991Y0052739D02*
X0069054Y0052739D01*
X0069054Y0052777D02*
X0072991Y0052777D01*
X0072991Y0052815D02*
X0069054Y0052815D01*
X0069054Y0052853D02*
X0072991Y0052853D01*
X0072991Y0052890D02*
X0069054Y0052890D01*
X0069054Y0052928D02*
X0072991Y0052928D01*
X0072991Y0052966D02*
X0069054Y0052966D01*
X0069054Y0053004D02*
X0072991Y0053004D01*
X0072991Y0053042D02*
X0069054Y0053042D01*
X0069054Y0053080D02*
X0072991Y0053080D01*
X0072991Y0053118D02*
X0069054Y0053118D01*
X0069054Y0053156D02*
X0072991Y0053156D01*
X0072991Y0053194D02*
X0069054Y0053194D01*
X0069054Y0053231D02*
X0072991Y0053231D01*
X0072991Y0053269D02*
X0069054Y0053269D01*
X0069054Y0053307D02*
X0072991Y0053307D01*
X0072991Y0053345D02*
X0069054Y0053345D01*
X0069054Y0053383D02*
X0072991Y0053383D01*
X0072991Y0053421D02*
X0069054Y0053421D01*
X0069054Y0053459D02*
X0072991Y0053459D01*
X0072991Y0053497D02*
X0069054Y0053497D01*
X0069054Y0053534D02*
X0072991Y0053534D01*
X0072991Y0053572D02*
X0069054Y0053572D01*
X0069054Y0053610D02*
X0072991Y0053610D01*
X0072991Y0053648D02*
X0069054Y0053648D01*
X0069054Y0053686D02*
X0072991Y0053686D01*
X0072991Y0053724D02*
X0069054Y0053724D01*
X0069054Y0053754D02*
X0069054Y0047454D01*
X0069250Y0047454D01*
X0069250Y0047061D01*
X0072794Y0047061D01*
X0072794Y0047454D01*
X0072991Y0047454D01*
X0072991Y0053754D01*
X0072794Y0053754D01*
X0072794Y0054147D01*
X0069250Y0054147D01*
X0069250Y0053754D01*
X0069054Y0053754D01*
X0069250Y0053762D02*
X0072794Y0053762D01*
X0072794Y0053800D02*
X0069250Y0053800D01*
X0069250Y0053837D02*
X0072794Y0053837D01*
X0072794Y0053875D02*
X0069250Y0053875D01*
X0069250Y0053913D02*
X0072794Y0053913D01*
X0072794Y0053951D02*
X0069250Y0053951D01*
X0069250Y0053989D02*
X0072794Y0053989D01*
X0072794Y0054027D02*
X0069250Y0054027D01*
X0069250Y0054065D02*
X0072794Y0054065D01*
X0072794Y0054103D02*
X0069250Y0054103D01*
X0069250Y0054141D02*
X0072794Y0054141D01*
X0072991Y0052701D02*
X0069054Y0052701D01*
X0069054Y0052663D02*
X0072991Y0052663D01*
X0072991Y0052625D02*
X0069054Y0052625D01*
X0069054Y0052587D02*
X0072991Y0052587D01*
X0072991Y0052550D02*
X0069054Y0052550D01*
X0069054Y0052512D02*
X0072991Y0052512D01*
X0072991Y0052474D02*
X0069054Y0052474D01*
X0069054Y0052436D02*
X0072991Y0052436D01*
X0072991Y0052398D02*
X0069054Y0052398D01*
X0069054Y0052360D02*
X0072991Y0052360D01*
X0072991Y0052322D02*
X0069054Y0052322D01*
X0069054Y0052284D02*
X0072991Y0052284D01*
X0072991Y0052246D02*
X0069054Y0052246D01*
X0069054Y0052209D02*
X0072991Y0052209D01*
X0072991Y0052171D02*
X0069054Y0052171D01*
X0069054Y0052133D02*
X0072991Y0052133D01*
X0072991Y0052095D02*
X0069054Y0052095D01*
X0069054Y0052057D02*
X0072991Y0052057D01*
X0072991Y0052019D02*
X0069054Y0052019D01*
X0069054Y0051981D02*
X0072991Y0051981D01*
X0072991Y0051943D02*
X0069054Y0051943D01*
X0069054Y0051906D02*
X0072991Y0051906D01*
X0072991Y0051868D02*
X0069054Y0051868D01*
X0069054Y0051830D02*
X0072991Y0051830D01*
X0072991Y0051792D02*
X0069054Y0051792D01*
X0069054Y0051754D02*
X0072991Y0051754D01*
X0072991Y0051716D02*
X0069054Y0051716D01*
X0069054Y0051678D02*
X0072991Y0051678D01*
X0072991Y0051640D02*
X0069054Y0051640D01*
X0069054Y0051602D02*
X0072991Y0051602D01*
X0072991Y0051565D02*
X0069054Y0051565D01*
X0069054Y0051527D02*
X0072991Y0051527D01*
X0072991Y0051489D02*
X0069054Y0051489D01*
X0069054Y0051451D02*
X0072991Y0051451D01*
X0072991Y0051413D02*
X0069054Y0051413D01*
X0069054Y0051375D02*
X0072991Y0051375D01*
X0072991Y0051337D02*
X0069054Y0051337D01*
X0069054Y0051299D02*
X0072991Y0051299D01*
X0072991Y0051262D02*
X0069054Y0051262D01*
X0069054Y0051224D02*
X0072991Y0051224D01*
X0072991Y0051186D02*
X0069054Y0051186D01*
X0069054Y0051148D02*
X0072991Y0051148D01*
X0072991Y0051110D02*
X0069054Y0051110D01*
X0069054Y0051072D02*
X0072991Y0051072D01*
X0072991Y0051034D02*
X0069054Y0051034D01*
X0069054Y0050996D02*
X0072991Y0050996D01*
X0072991Y0050959D02*
X0069054Y0050959D01*
X0069054Y0050921D02*
X0072991Y0050921D01*
X0072991Y0050883D02*
X0069054Y0050883D01*
X0069054Y0050845D02*
X0072991Y0050845D01*
X0072991Y0050807D02*
X0069054Y0050807D01*
X0069054Y0050769D02*
X0072991Y0050769D01*
X0072991Y0050731D02*
X0069054Y0050731D01*
X0069054Y0050693D02*
X0072991Y0050693D01*
X0072991Y0050655D02*
X0069054Y0050655D01*
X0069054Y0050618D02*
X0072991Y0050618D01*
X0072991Y0050580D02*
X0069054Y0050580D01*
X0069054Y0050542D02*
X0072991Y0050542D01*
X0072991Y0050504D02*
X0069054Y0050504D01*
X0069054Y0050466D02*
X0072991Y0050466D01*
X0072991Y0050428D02*
X0069054Y0050428D01*
X0069054Y0050390D02*
X0072991Y0050390D01*
X0072991Y0050352D02*
X0069054Y0050352D01*
X0069054Y0050315D02*
X0072991Y0050315D01*
X0072991Y0050277D02*
X0069054Y0050277D01*
X0069054Y0050239D02*
X0072991Y0050239D01*
X0072991Y0050201D02*
X0069054Y0050201D01*
X0069054Y0050163D02*
X0072991Y0050163D01*
X0072991Y0050125D02*
X0069054Y0050125D01*
X0069054Y0050087D02*
X0072991Y0050087D01*
X0072991Y0050049D02*
X0069054Y0050049D01*
X0069054Y0050011D02*
X0072991Y0050011D01*
X0072991Y0049974D02*
X0069054Y0049974D01*
X0069054Y0049936D02*
X0072991Y0049936D01*
X0072991Y0049898D02*
X0069054Y0049898D01*
X0069054Y0049860D02*
X0072991Y0049860D01*
X0072991Y0049822D02*
X0069054Y0049822D01*
X0069054Y0049784D02*
X0072991Y0049784D01*
X0072991Y0049746D02*
X0069054Y0049746D01*
X0069054Y0049708D02*
X0072991Y0049708D01*
X0072991Y0049671D02*
X0069054Y0049671D01*
X0069054Y0049633D02*
X0072991Y0049633D01*
X0072991Y0049595D02*
X0069054Y0049595D01*
X0069054Y0049557D02*
X0072991Y0049557D01*
X0072991Y0049519D02*
X0069054Y0049519D01*
X0069054Y0049481D02*
X0072991Y0049481D01*
X0072991Y0049443D02*
X0069054Y0049443D01*
X0069054Y0049405D02*
X0072991Y0049405D01*
X0072991Y0049367D02*
X0069054Y0049367D01*
X0069054Y0049330D02*
X0072991Y0049330D01*
X0072991Y0049292D02*
X0069054Y0049292D01*
X0069054Y0049254D02*
X0072991Y0049254D01*
X0072991Y0049216D02*
X0069054Y0049216D01*
X0069054Y0049178D02*
X0072991Y0049178D01*
X0072991Y0049140D02*
X0069054Y0049140D01*
X0069054Y0049102D02*
X0072991Y0049102D01*
X0072991Y0049064D02*
X0069054Y0049064D01*
X0069054Y0049027D02*
X0072991Y0049027D01*
X0072991Y0048989D02*
X0069054Y0048989D01*
X0069054Y0048951D02*
X0072991Y0048951D01*
X0072991Y0048913D02*
X0069054Y0048913D01*
X0069054Y0048875D02*
X0072991Y0048875D01*
X0072991Y0048837D02*
X0069054Y0048837D01*
X0069054Y0048799D02*
X0072991Y0048799D01*
X0072991Y0048761D02*
X0069054Y0048761D01*
X0069054Y0048723D02*
X0072991Y0048723D01*
X0072991Y0048686D02*
X0069054Y0048686D01*
X0069054Y0048648D02*
X0072991Y0048648D01*
X0072991Y0048610D02*
X0069054Y0048610D01*
X0069054Y0048572D02*
X0072991Y0048572D01*
X0072991Y0048534D02*
X0069054Y0048534D01*
X0069054Y0048496D02*
X0072991Y0048496D01*
X0072991Y0048458D02*
X0069054Y0048458D01*
X0069054Y0048420D02*
X0072991Y0048420D01*
X0072991Y0048383D02*
X0069054Y0048383D01*
X0069054Y0048345D02*
X0072991Y0048345D01*
X0072991Y0048307D02*
X0069054Y0048307D01*
X0069054Y0048269D02*
X0072991Y0048269D01*
X0072991Y0048231D02*
X0069054Y0048231D01*
X0069054Y0048193D02*
X0072991Y0048193D01*
X0072991Y0048155D02*
X0069054Y0048155D01*
X0069054Y0048117D02*
X0072991Y0048117D01*
X0072991Y0048080D02*
X0069054Y0048080D01*
X0069054Y0048042D02*
X0072991Y0048042D01*
X0072991Y0048004D02*
X0069054Y0048004D01*
X0069054Y0047966D02*
X0072991Y0047966D01*
X0072991Y0047928D02*
X0069054Y0047928D01*
X0069054Y0047890D02*
X0072991Y0047890D01*
X0072991Y0047852D02*
X0069054Y0047852D01*
X0069054Y0047814D02*
X0072991Y0047814D01*
X0072991Y0047776D02*
X0069054Y0047776D01*
X0069054Y0047739D02*
X0072991Y0047739D01*
X0072991Y0047701D02*
X0069054Y0047701D01*
X0069054Y0047663D02*
X0072991Y0047663D01*
X0072991Y0047625D02*
X0069054Y0047625D01*
X0069054Y0047587D02*
X0072991Y0047587D01*
X0072991Y0047549D02*
X0069054Y0047549D01*
X0069054Y0047511D02*
X0072991Y0047511D01*
X0072991Y0047473D02*
X0069054Y0047473D01*
X0069250Y0047436D02*
X0072794Y0047436D01*
X0072794Y0047398D02*
X0069250Y0047398D01*
X0069250Y0047360D02*
X0072794Y0047360D01*
X0072794Y0047322D02*
X0069250Y0047322D01*
X0069250Y0047284D02*
X0072794Y0047284D01*
X0072794Y0047246D02*
X0069250Y0047246D01*
X0069250Y0047208D02*
X0072794Y0047208D01*
X0072794Y0047170D02*
X0069250Y0047170D01*
X0069250Y0047132D02*
X0072794Y0047132D01*
X0072794Y0047095D02*
X0069250Y0047095D01*
D18*
X0082079Y0048827D02*
X0084847Y0048827D01*
X0082079Y0048827D02*
X0082079Y0052381D01*
X0084847Y0052381D01*
X0084847Y0048827D01*
X0084847Y0049314D02*
X0082079Y0049314D01*
X0082079Y0049801D02*
X0084847Y0049801D01*
X0084847Y0050288D02*
X0082079Y0050288D01*
X0082079Y0050775D02*
X0084847Y0050775D01*
X0084847Y0051262D02*
X0082079Y0051262D01*
X0082079Y0051749D02*
X0084847Y0051749D01*
X0084847Y0052236D02*
X0082079Y0052236D01*
X0087197Y0048827D02*
X0089965Y0048827D01*
X0087197Y0048827D02*
X0087197Y0052381D01*
X0089965Y0052381D01*
X0089965Y0048827D01*
X0089965Y0049314D02*
X0087197Y0049314D01*
X0087197Y0049801D02*
X0089965Y0049801D01*
X0089965Y0050288D02*
X0087197Y0050288D01*
X0087197Y0050775D02*
X0089965Y0050775D01*
X0089965Y0051262D02*
X0087197Y0051262D01*
X0087197Y0051749D02*
X0089965Y0051749D01*
X0089965Y0052236D02*
X0087197Y0052236D01*
X0087197Y0031327D02*
X0089965Y0031327D01*
X0087197Y0031327D02*
X0087197Y0034881D01*
X0089965Y0034881D01*
X0089965Y0031327D01*
X0089965Y0031814D02*
X0087197Y0031814D01*
X0087197Y0032301D02*
X0089965Y0032301D01*
X0089965Y0032788D02*
X0087197Y0032788D01*
X0087197Y0033275D02*
X0089965Y0033275D01*
X0089965Y0033762D02*
X0087197Y0033762D01*
X0087197Y0034249D02*
X0089965Y0034249D01*
X0089965Y0034736D02*
X0087197Y0034736D01*
X0084847Y0031327D02*
X0082079Y0031327D01*
X0082079Y0034881D01*
X0084847Y0034881D01*
X0084847Y0031327D01*
X0084847Y0031814D02*
X0082079Y0031814D01*
X0082079Y0032301D02*
X0084847Y0032301D01*
X0084847Y0032788D02*
X0082079Y0032788D01*
X0082079Y0033275D02*
X0084847Y0033275D01*
X0084847Y0033762D02*
X0082079Y0033762D01*
X0082079Y0034249D02*
X0084847Y0034249D01*
X0084847Y0034736D02*
X0082079Y0034736D01*
X0102079Y0033827D02*
X0104847Y0033827D01*
X0102079Y0033827D02*
X0102079Y0037381D01*
X0104847Y0037381D01*
X0104847Y0033827D01*
X0104847Y0034314D02*
X0102079Y0034314D01*
X0102079Y0034801D02*
X0104847Y0034801D01*
X0104847Y0035288D02*
X0102079Y0035288D01*
X0102079Y0035775D02*
X0104847Y0035775D01*
X0104847Y0036262D02*
X0102079Y0036262D01*
X0102079Y0036749D02*
X0104847Y0036749D01*
X0104847Y0037236D02*
X0102079Y0037236D01*
X0102079Y0038827D02*
X0104847Y0038827D01*
X0102079Y0038827D02*
X0102079Y0042381D01*
X0104847Y0042381D01*
X0104847Y0038827D01*
X0104847Y0039314D02*
X0102079Y0039314D01*
X0102079Y0039801D02*
X0104847Y0039801D01*
X0104847Y0040288D02*
X0102079Y0040288D01*
X0102079Y0040775D02*
X0104847Y0040775D01*
X0104847Y0041262D02*
X0102079Y0041262D01*
X0102079Y0041749D02*
X0104847Y0041749D01*
X0104847Y0042236D02*
X0102079Y0042236D01*
X0107197Y0038827D02*
X0109965Y0038827D01*
X0107197Y0038827D02*
X0107197Y0042381D01*
X0109965Y0042381D01*
X0109965Y0038827D01*
X0109965Y0039314D02*
X0107197Y0039314D01*
X0107197Y0039801D02*
X0109965Y0039801D01*
X0109965Y0040288D02*
X0107197Y0040288D01*
X0107197Y0040775D02*
X0109965Y0040775D01*
X0109965Y0041262D02*
X0107197Y0041262D01*
X0107197Y0041749D02*
X0109965Y0041749D01*
X0109965Y0042236D02*
X0107197Y0042236D01*
X0107197Y0033827D02*
X0109965Y0033827D01*
X0107197Y0033827D02*
X0107197Y0037381D01*
X0109965Y0037381D01*
X0109965Y0033827D01*
X0109965Y0034314D02*
X0107197Y0034314D01*
X0107197Y0034801D02*
X0109965Y0034801D01*
X0109965Y0035288D02*
X0107197Y0035288D01*
X0107197Y0035775D02*
X0109965Y0035775D01*
X0109965Y0036262D02*
X0107197Y0036262D01*
X0107197Y0036749D02*
X0109965Y0036749D01*
X0109965Y0037236D02*
X0107197Y0037236D01*
X0107197Y0053827D02*
X0109965Y0053827D01*
X0107197Y0053827D02*
X0107197Y0057381D01*
X0109965Y0057381D01*
X0109965Y0053827D01*
X0109965Y0054314D02*
X0107197Y0054314D01*
X0107197Y0054801D02*
X0109965Y0054801D01*
X0109965Y0055288D02*
X0107197Y0055288D01*
X0107197Y0055775D02*
X0109965Y0055775D01*
X0109965Y0056262D02*
X0107197Y0056262D01*
X0107197Y0056749D02*
X0109965Y0056749D01*
X0109965Y0057236D02*
X0107197Y0057236D01*
X0104847Y0053827D02*
X0102079Y0053827D01*
X0102079Y0057381D01*
X0104847Y0057381D01*
X0104847Y0053827D01*
X0104847Y0054314D02*
X0102079Y0054314D01*
X0102079Y0054801D02*
X0104847Y0054801D01*
X0104847Y0055288D02*
X0102079Y0055288D01*
X0102079Y0055775D02*
X0104847Y0055775D01*
X0104847Y0056262D02*
X0102079Y0056262D01*
X0102079Y0056749D02*
X0104847Y0056749D01*
X0104847Y0057236D02*
X0102079Y0057236D01*
D19*
X0100483Y0046108D02*
X0104869Y0046108D01*
X0100483Y0046108D02*
X0100483Y0050100D01*
X0104869Y0050100D01*
X0104869Y0046108D01*
X0104869Y0046551D02*
X0100483Y0046551D01*
X0100483Y0046994D02*
X0104869Y0046994D01*
X0104869Y0047437D02*
X0100483Y0047437D01*
X0100483Y0047880D02*
X0104869Y0047880D01*
X0104869Y0048323D02*
X0100483Y0048323D01*
X0100483Y0048766D02*
X0104869Y0048766D01*
X0104869Y0049209D02*
X0100483Y0049209D01*
X0100483Y0049652D02*
X0104869Y0049652D01*
X0104869Y0050095D02*
X0100483Y0050095D01*
X0107176Y0046108D02*
X0111562Y0046108D01*
X0107176Y0046108D02*
X0107176Y0050100D01*
X0111562Y0050100D01*
X0111562Y0046108D01*
X0111562Y0046551D02*
X0107176Y0046551D01*
X0107176Y0046994D02*
X0111562Y0046994D01*
X0111562Y0047437D02*
X0107176Y0047437D01*
X0107176Y0047880D02*
X0111562Y0047880D01*
X0111562Y0048323D02*
X0107176Y0048323D01*
X0107176Y0048766D02*
X0111562Y0048766D01*
X0111562Y0049209D02*
X0107176Y0049209D01*
X0107176Y0049652D02*
X0111562Y0049652D01*
X0111562Y0050095D02*
X0107176Y0050095D01*
X0091562Y0038608D02*
X0087176Y0038608D01*
X0087176Y0042600D01*
X0091562Y0042600D01*
X0091562Y0038608D01*
X0091562Y0039051D02*
X0087176Y0039051D01*
X0087176Y0039494D02*
X0091562Y0039494D01*
X0091562Y0039937D02*
X0087176Y0039937D01*
X0087176Y0040380D02*
X0091562Y0040380D01*
X0091562Y0040823D02*
X0087176Y0040823D01*
X0087176Y0041266D02*
X0091562Y0041266D01*
X0091562Y0041709D02*
X0087176Y0041709D01*
X0087176Y0042152D02*
X0091562Y0042152D01*
X0091562Y0042595D02*
X0087176Y0042595D01*
X0084869Y0038608D02*
X0080483Y0038608D01*
X0080483Y0042600D01*
X0084869Y0042600D01*
X0084869Y0038608D01*
X0084869Y0039051D02*
X0080483Y0039051D01*
X0080483Y0039494D02*
X0084869Y0039494D01*
X0084869Y0039937D02*
X0080483Y0039937D01*
X0080483Y0040380D02*
X0084869Y0040380D01*
X0084869Y0040823D02*
X0080483Y0040823D01*
X0080483Y0041266D02*
X0084869Y0041266D01*
X0084869Y0041709D02*
X0080483Y0041709D01*
X0080483Y0042152D02*
X0084869Y0042152D01*
X0084869Y0042595D02*
X0080483Y0042595D01*
X0062154Y0041429D02*
X0058162Y0041429D01*
X0058162Y0046997D01*
X0062154Y0046997D01*
X0062154Y0041429D01*
X0062154Y0041872D02*
X0058162Y0041872D01*
X0058162Y0042315D02*
X0062154Y0042315D01*
X0062154Y0042758D02*
X0058162Y0042758D01*
X0058162Y0043201D02*
X0062154Y0043201D01*
X0062154Y0043644D02*
X0058162Y0043644D01*
X0058162Y0044087D02*
X0062154Y0044087D01*
X0062154Y0044530D02*
X0058162Y0044530D01*
X0058162Y0044973D02*
X0062154Y0044973D01*
X0062154Y0045416D02*
X0058162Y0045416D01*
X0058162Y0045859D02*
X0062154Y0045859D01*
X0062154Y0046302D02*
X0058162Y0046302D01*
X0058162Y0046745D02*
X0062154Y0046745D01*
X0058414Y0050091D02*
X0054422Y0050091D01*
X0054422Y0055659D01*
X0058414Y0055659D01*
X0058414Y0050091D01*
X0058414Y0050534D02*
X0054422Y0050534D01*
X0054422Y0050977D02*
X0058414Y0050977D01*
X0058414Y0051420D02*
X0054422Y0051420D01*
X0054422Y0051863D02*
X0058414Y0051863D01*
X0058414Y0052306D02*
X0054422Y0052306D01*
X0054422Y0052749D02*
X0058414Y0052749D01*
X0058414Y0053192D02*
X0054422Y0053192D01*
X0054422Y0053635D02*
X0058414Y0053635D01*
X0058414Y0054078D02*
X0054422Y0054078D01*
X0054422Y0054521D02*
X0058414Y0054521D01*
X0058414Y0054964D02*
X0054422Y0054964D01*
X0054422Y0055407D02*
X0058414Y0055407D01*
X0054674Y0041429D02*
X0050682Y0041429D01*
X0050682Y0046997D01*
X0054674Y0046997D01*
X0054674Y0041429D01*
X0054674Y0041872D02*
X0050682Y0041872D01*
X0050682Y0042315D02*
X0054674Y0042315D01*
X0054674Y0042758D02*
X0050682Y0042758D01*
X0050682Y0043201D02*
X0054674Y0043201D01*
X0054674Y0043644D02*
X0050682Y0043644D01*
X0050682Y0044087D02*
X0054674Y0044087D01*
X0054674Y0044530D02*
X0050682Y0044530D01*
X0050682Y0044973D02*
X0054674Y0044973D01*
X0054674Y0045416D02*
X0050682Y0045416D01*
X0050682Y0045859D02*
X0054674Y0045859D01*
X0054674Y0046302D02*
X0050682Y0046302D01*
X0050682Y0046745D02*
X0054674Y0046745D01*
X0070170Y0184343D02*
X0074162Y0184343D01*
X0070170Y0184343D02*
X0070170Y0188335D01*
X0074162Y0188335D01*
X0074162Y0184343D01*
X0074162Y0184786D02*
X0070170Y0184786D01*
X0070170Y0185229D02*
X0074162Y0185229D01*
X0074162Y0185672D02*
X0070170Y0185672D01*
X0070170Y0186115D02*
X0074162Y0186115D01*
X0074162Y0186558D02*
X0070170Y0186558D01*
X0070170Y0187001D02*
X0074162Y0187001D01*
X0074162Y0187444D02*
X0070170Y0187444D01*
X0070170Y0187887D02*
X0074162Y0187887D01*
X0074162Y0188330D02*
X0070170Y0188330D01*
X0078044Y0184343D02*
X0082036Y0184343D01*
X0078044Y0184343D02*
X0078044Y0188335D01*
X0082036Y0188335D01*
X0082036Y0184343D01*
X0082036Y0184786D02*
X0078044Y0184786D01*
X0078044Y0185229D02*
X0082036Y0185229D01*
X0082036Y0185672D02*
X0078044Y0185672D01*
X0078044Y0186115D02*
X0082036Y0186115D01*
X0082036Y0186558D02*
X0078044Y0186558D01*
X0078044Y0187001D02*
X0082036Y0187001D01*
X0082036Y0187444D02*
X0078044Y0187444D01*
X0078044Y0187887D02*
X0082036Y0187887D01*
X0082036Y0188330D02*
X0078044Y0188330D01*
X0090446Y0184343D02*
X0094438Y0184343D01*
X0090446Y0184343D02*
X0090446Y0188335D01*
X0094438Y0188335D01*
X0094438Y0184343D01*
X0094438Y0184786D02*
X0090446Y0184786D01*
X0090446Y0185229D02*
X0094438Y0185229D01*
X0094438Y0185672D02*
X0090446Y0185672D01*
X0090446Y0186115D02*
X0094438Y0186115D01*
X0094438Y0186558D02*
X0090446Y0186558D01*
X0090446Y0187001D02*
X0094438Y0187001D01*
X0094438Y0187444D02*
X0090446Y0187444D01*
X0090446Y0187887D02*
X0094438Y0187887D01*
X0094438Y0188330D02*
X0090446Y0188330D01*
X0097139Y0184343D02*
X0101131Y0184343D01*
X0097139Y0184343D02*
X0097139Y0188335D01*
X0101131Y0188335D01*
X0101131Y0184343D01*
X0101131Y0184786D02*
X0097139Y0184786D01*
X0097139Y0185229D02*
X0101131Y0185229D01*
X0101131Y0185672D02*
X0097139Y0185672D01*
X0097139Y0186115D02*
X0101131Y0186115D01*
X0101131Y0186558D02*
X0097139Y0186558D01*
X0097139Y0187001D02*
X0101131Y0187001D01*
X0101131Y0187444D02*
X0097139Y0187444D01*
X0097139Y0187887D02*
X0101131Y0187887D01*
X0101131Y0188330D02*
X0097139Y0188330D01*
X0097539Y0201791D02*
X0101531Y0201791D01*
X0097539Y0201791D02*
X0097539Y0205783D01*
X0101531Y0205783D01*
X0101531Y0201791D01*
X0101531Y0202234D02*
X0097539Y0202234D01*
X0097539Y0202677D02*
X0101531Y0202677D01*
X0101531Y0203120D02*
X0097539Y0203120D01*
X0097539Y0203563D02*
X0101531Y0203563D01*
X0101531Y0204006D02*
X0097539Y0204006D01*
X0097539Y0204449D02*
X0101531Y0204449D01*
X0101531Y0204892D02*
X0097539Y0204892D01*
X0097539Y0205335D02*
X0101531Y0205335D01*
X0101531Y0205778D02*
X0097539Y0205778D01*
X0094838Y0201791D02*
X0090846Y0201791D01*
X0090846Y0205783D01*
X0094838Y0205783D01*
X0094838Y0201791D01*
X0094838Y0202234D02*
X0090846Y0202234D01*
X0090846Y0202677D02*
X0094838Y0202677D01*
X0094838Y0203120D02*
X0090846Y0203120D01*
X0090846Y0203563D02*
X0094838Y0203563D01*
X0094838Y0204006D02*
X0090846Y0204006D01*
X0090846Y0204449D02*
X0094838Y0204449D01*
X0094838Y0204892D02*
X0090846Y0204892D01*
X0090846Y0205335D02*
X0094838Y0205335D01*
X0094838Y0205778D02*
X0090846Y0205778D01*
X0178708Y0190036D02*
X0182700Y0190036D01*
X0182700Y0186044D01*
X0178708Y0186044D01*
X0178708Y0190036D01*
X0178708Y0186487D02*
X0182700Y0186487D01*
X0182700Y0186930D02*
X0178708Y0186930D01*
X0178708Y0187373D02*
X0182700Y0187373D01*
X0182700Y0187816D02*
X0178708Y0187816D01*
X0178708Y0188259D02*
X0182700Y0188259D01*
X0182700Y0188702D02*
X0178708Y0188702D01*
X0178708Y0189145D02*
X0182700Y0189145D01*
X0182700Y0189588D02*
X0178708Y0189588D01*
X0178708Y0190031D02*
X0182700Y0190031D01*
X0185401Y0190036D02*
X0189393Y0190036D01*
X0189393Y0186044D01*
X0185401Y0186044D01*
X0185401Y0190036D01*
X0185401Y0186487D02*
X0189393Y0186487D01*
X0189393Y0186930D02*
X0185401Y0186930D01*
X0185401Y0187373D02*
X0189393Y0187373D01*
X0189393Y0187816D02*
X0185401Y0187816D01*
X0185401Y0188259D02*
X0189393Y0188259D01*
X0189393Y0188702D02*
X0185401Y0188702D01*
X0185401Y0189145D02*
X0189393Y0189145D01*
X0189393Y0189588D02*
X0185401Y0189588D01*
X0185401Y0190031D02*
X0189393Y0190031D01*
D20*
X0181999Y0201031D02*
X0181999Y0204207D01*
X0181999Y0201031D02*
X0172131Y0201031D01*
X0172131Y0204207D01*
X0181999Y0204207D01*
X0181999Y0201504D02*
X0172131Y0201504D01*
X0172131Y0201977D02*
X0181999Y0201977D01*
X0181999Y0202450D02*
X0172131Y0202450D01*
X0172131Y0202923D02*
X0181999Y0202923D01*
X0181999Y0203396D02*
X0172131Y0203396D01*
X0172131Y0203869D02*
X0181999Y0203869D01*
X0181999Y0206936D02*
X0181999Y0210112D01*
X0181999Y0206936D02*
X0172131Y0206936D01*
X0172131Y0210112D01*
X0181999Y0210112D01*
X0181999Y0207409D02*
X0172131Y0207409D01*
X0172131Y0207882D02*
X0181999Y0207882D01*
X0181999Y0208355D02*
X0172131Y0208355D01*
X0172131Y0208828D02*
X0181999Y0208828D01*
X0181999Y0209301D02*
X0172131Y0209301D01*
X0172131Y0209774D02*
X0181999Y0209774D01*
X0181999Y0212842D02*
X0181999Y0216018D01*
X0181999Y0212842D02*
X0172131Y0212842D01*
X0172131Y0216018D01*
X0181999Y0216018D01*
X0181999Y0213315D02*
X0172131Y0213315D01*
X0172131Y0213788D02*
X0181999Y0213788D01*
X0181999Y0214261D02*
X0172131Y0214261D01*
X0172131Y0214734D02*
X0181999Y0214734D01*
X0181999Y0215207D02*
X0172131Y0215207D01*
X0172131Y0215680D02*
X0181999Y0215680D01*
X0076941Y0040932D02*
X0076941Y0030276D01*
X0073765Y0030276D01*
X0073765Y0040932D01*
X0076941Y0040932D01*
X0076941Y0030749D02*
X0073765Y0030749D01*
X0073765Y0031222D02*
X0076941Y0031222D01*
X0076941Y0031695D02*
X0073765Y0031695D01*
X0073765Y0032168D02*
X0076941Y0032168D01*
X0076941Y0032641D02*
X0073765Y0032641D01*
X0073765Y0033114D02*
X0076941Y0033114D01*
X0076941Y0033587D02*
X0073765Y0033587D01*
X0073765Y0034060D02*
X0076941Y0034060D01*
X0076941Y0034533D02*
X0073765Y0034533D01*
X0073765Y0035006D02*
X0076941Y0035006D01*
X0076941Y0035479D02*
X0073765Y0035479D01*
X0073765Y0035952D02*
X0076941Y0035952D01*
X0076941Y0036425D02*
X0073765Y0036425D01*
X0073765Y0036898D02*
X0076941Y0036898D01*
X0076941Y0037371D02*
X0073765Y0037371D01*
X0073765Y0037844D02*
X0076941Y0037844D01*
X0076941Y0038317D02*
X0073765Y0038317D01*
X0073765Y0038790D02*
X0076941Y0038790D01*
X0076941Y0039263D02*
X0073765Y0039263D01*
X0073765Y0039736D02*
X0076941Y0039736D01*
X0076941Y0040209D02*
X0073765Y0040209D01*
X0073765Y0040682D02*
X0076941Y0040682D01*
X0068279Y0040932D02*
X0068279Y0030276D01*
X0065103Y0030276D01*
X0065103Y0040932D01*
X0068279Y0040932D01*
X0068279Y0030749D02*
X0065103Y0030749D01*
X0065103Y0031222D02*
X0068279Y0031222D01*
X0068279Y0031695D02*
X0065103Y0031695D01*
X0065103Y0032168D02*
X0068279Y0032168D01*
X0068279Y0032641D02*
X0065103Y0032641D01*
X0065103Y0033114D02*
X0068279Y0033114D01*
X0068279Y0033587D02*
X0065103Y0033587D01*
X0065103Y0034060D02*
X0068279Y0034060D01*
X0068279Y0034533D02*
X0065103Y0034533D01*
X0065103Y0035006D02*
X0068279Y0035006D01*
X0068279Y0035479D02*
X0065103Y0035479D01*
X0065103Y0035952D02*
X0068279Y0035952D01*
X0068279Y0036425D02*
X0065103Y0036425D01*
X0065103Y0036898D02*
X0068279Y0036898D01*
X0068279Y0037371D02*
X0065103Y0037371D01*
X0065103Y0037844D02*
X0068279Y0037844D01*
X0068279Y0038317D02*
X0065103Y0038317D01*
X0065103Y0038790D02*
X0068279Y0038790D01*
X0068279Y0039263D02*
X0065103Y0039263D01*
X0065103Y0039736D02*
X0068279Y0039736D01*
X0068279Y0040209D02*
X0065103Y0040209D01*
X0065103Y0040682D02*
X0068279Y0040682D01*
D21*
X0191242Y0053302D03*
X0191242Y0063302D03*
X0191242Y0073302D03*
X0191242Y0083302D03*
X0191242Y0093302D03*
X0191242Y0103302D03*
X0191302Y0123531D03*
X0191302Y0133531D03*
X0191302Y0143531D03*
X0191302Y0153531D03*
X0191302Y0163531D03*
X0191302Y0173531D03*
D22*
X0025904Y0059960D02*
X0025904Y0049380D01*
X0025904Y0059960D02*
X0035984Y0059960D01*
X0035984Y0049380D01*
X0025904Y0049380D01*
X0025904Y0049799D02*
X0035984Y0049799D01*
X0035984Y0050218D02*
X0025904Y0050218D01*
X0025904Y0050637D02*
X0035984Y0050637D01*
X0035984Y0051056D02*
X0025904Y0051056D01*
X0025904Y0051475D02*
X0035984Y0051475D01*
X0035984Y0051894D02*
X0025904Y0051894D01*
X0025904Y0052313D02*
X0035984Y0052313D01*
X0035984Y0052732D02*
X0025904Y0052732D01*
X0025904Y0053151D02*
X0035984Y0053151D01*
X0035984Y0053570D02*
X0025904Y0053570D01*
X0025904Y0053989D02*
X0035984Y0053989D01*
X0035984Y0054408D02*
X0025904Y0054408D01*
X0025904Y0054827D02*
X0035984Y0054827D01*
X0035984Y0055246D02*
X0025904Y0055246D01*
X0025904Y0055665D02*
X0035984Y0055665D01*
X0035984Y0056084D02*
X0025904Y0056084D01*
X0025904Y0056503D02*
X0035984Y0056503D01*
X0035984Y0056922D02*
X0025904Y0056922D01*
X0025904Y0057341D02*
X0035984Y0057341D01*
X0035984Y0057760D02*
X0025904Y0057760D01*
X0025904Y0058179D02*
X0035984Y0058179D01*
X0035984Y0058598D02*
X0025904Y0058598D01*
X0025904Y0059017D02*
X0035984Y0059017D01*
X0035984Y0059436D02*
X0025904Y0059436D01*
X0025904Y0059855D02*
X0035984Y0059855D01*
D23*
X0028421Y0046943D02*
X0028421Y0043897D01*
X0028421Y0046943D02*
X0033467Y0046943D01*
X0033467Y0043897D01*
X0028421Y0043897D01*
X0028421Y0044351D02*
X0033467Y0044351D01*
X0033467Y0044805D02*
X0028421Y0044805D01*
X0028421Y0045259D02*
X0033467Y0045259D01*
X0033467Y0045713D02*
X0028421Y0045713D01*
X0028421Y0046167D02*
X0033467Y0046167D01*
X0033467Y0046621D02*
X0028421Y0046621D01*
D24*
X0036774Y0281613D03*
X0046774Y0281613D03*
X0056774Y0281613D03*
D25*
X0127743Y0253976D02*
X0132543Y0253976D01*
X0132543Y0243976D02*
X0127743Y0243976D01*
X0127743Y0233976D02*
X0132543Y0233976D01*
X0132543Y0223976D02*
X0127743Y0223976D01*
X0127743Y0213976D02*
X0132543Y0213976D01*
X0132543Y0203976D02*
X0127743Y0203976D01*
X0127743Y0193976D02*
X0132543Y0193976D01*
X0132543Y0183976D02*
X0127743Y0183976D01*
X0127743Y0173976D02*
X0132543Y0173976D01*
X0132543Y0163976D02*
X0127743Y0163976D01*
X0127743Y0153976D02*
X0132543Y0153976D01*
X0132543Y0143976D02*
X0127743Y0143976D01*
X0127743Y0133976D02*
X0132543Y0133976D01*
X0132543Y0123976D02*
X0127743Y0123976D01*
X0157743Y0123976D02*
X0162543Y0123976D01*
X0162543Y0133976D02*
X0157743Y0133976D01*
X0157743Y0143976D02*
X0162543Y0143976D01*
X0162543Y0153976D02*
X0157743Y0153976D01*
X0157743Y0163976D02*
X0162543Y0163976D01*
X0162543Y0173976D02*
X0157743Y0173976D01*
X0157743Y0183976D02*
X0162543Y0183976D01*
X0162543Y0193976D02*
X0157743Y0193976D01*
X0157743Y0203976D02*
X0162543Y0203976D01*
X0162543Y0213976D02*
X0157743Y0213976D01*
X0157743Y0223976D02*
X0162543Y0223976D01*
X0162543Y0233976D02*
X0157743Y0233976D01*
X0157743Y0243976D02*
X0162543Y0243976D01*
X0162543Y0253976D02*
X0157743Y0253976D01*
D26*
X0109595Y0145210D02*
X0097729Y0145210D01*
X0097729Y0148808D01*
X0109595Y0148808D01*
X0109595Y0145210D01*
X0109595Y0145654D02*
X0097729Y0145654D01*
X0097729Y0146098D02*
X0109595Y0146098D01*
X0109595Y0146542D02*
X0097729Y0146542D01*
X0097729Y0146986D02*
X0109595Y0146986D01*
X0109595Y0147430D02*
X0097729Y0147430D01*
X0097729Y0147874D02*
X0109595Y0147874D01*
X0109595Y0148318D02*
X0097729Y0148318D01*
X0097729Y0148762D02*
X0109595Y0148762D01*
X0109595Y0140210D02*
X0097729Y0140210D01*
X0097729Y0143808D01*
X0109595Y0143808D01*
X0109595Y0140210D01*
X0109595Y0140654D02*
X0097729Y0140654D01*
X0097729Y0141098D02*
X0109595Y0141098D01*
X0109595Y0141542D02*
X0097729Y0141542D01*
X0097729Y0141986D02*
X0109595Y0141986D01*
X0109595Y0142430D02*
X0097729Y0142430D01*
X0097729Y0142874D02*
X0109595Y0142874D01*
X0109595Y0143318D02*
X0097729Y0143318D01*
X0097729Y0143762D02*
X0109595Y0143762D01*
X0109595Y0135210D02*
X0097729Y0135210D01*
X0097729Y0138808D01*
X0109595Y0138808D01*
X0109595Y0135210D01*
X0109595Y0135654D02*
X0097729Y0135654D01*
X0097729Y0136098D02*
X0109595Y0136098D01*
X0109595Y0136542D02*
X0097729Y0136542D01*
X0097729Y0136986D02*
X0109595Y0136986D01*
X0109595Y0137430D02*
X0097729Y0137430D01*
X0097729Y0137874D02*
X0109595Y0137874D01*
X0109595Y0138318D02*
X0097729Y0138318D01*
X0097729Y0138762D02*
X0109595Y0138762D01*
X0109595Y0130210D02*
X0097729Y0130210D01*
X0097729Y0133808D01*
X0109595Y0133808D01*
X0109595Y0130210D01*
X0109595Y0130654D02*
X0097729Y0130654D01*
X0097729Y0131098D02*
X0109595Y0131098D01*
X0109595Y0131542D02*
X0097729Y0131542D01*
X0097729Y0131986D02*
X0109595Y0131986D01*
X0109595Y0132430D02*
X0097729Y0132430D01*
X0097729Y0132874D02*
X0109595Y0132874D01*
X0109595Y0133318D02*
X0097729Y0133318D01*
X0097729Y0133762D02*
X0109595Y0133762D01*
X0109595Y0125210D02*
X0097729Y0125210D01*
X0097729Y0128808D01*
X0109595Y0128808D01*
X0109595Y0125210D01*
X0109595Y0125654D02*
X0097729Y0125654D01*
X0097729Y0126098D02*
X0109595Y0126098D01*
X0109595Y0126542D02*
X0097729Y0126542D01*
X0097729Y0126986D02*
X0109595Y0126986D01*
X0109595Y0127430D02*
X0097729Y0127430D01*
X0097729Y0127874D02*
X0109595Y0127874D01*
X0109595Y0128318D02*
X0097729Y0128318D01*
X0097729Y0128762D02*
X0109595Y0128762D01*
X0109595Y0120210D02*
X0097729Y0120210D01*
X0097729Y0123808D01*
X0109595Y0123808D01*
X0109595Y0120210D01*
X0109595Y0120654D02*
X0097729Y0120654D01*
X0097729Y0121098D02*
X0109595Y0121098D01*
X0109595Y0121542D02*
X0097729Y0121542D01*
X0097729Y0121986D02*
X0109595Y0121986D01*
X0109595Y0122430D02*
X0097729Y0122430D01*
X0097729Y0122874D02*
X0109595Y0122874D01*
X0109595Y0123318D02*
X0097729Y0123318D01*
X0097729Y0123762D02*
X0109595Y0123762D01*
X0109595Y0115210D02*
X0097729Y0115210D01*
X0097729Y0118808D01*
X0109595Y0118808D01*
X0109595Y0115210D01*
X0109595Y0115654D02*
X0097729Y0115654D01*
X0097729Y0116098D02*
X0109595Y0116098D01*
X0109595Y0116542D02*
X0097729Y0116542D01*
X0097729Y0116986D02*
X0109595Y0116986D01*
X0109595Y0117430D02*
X0097729Y0117430D01*
X0097729Y0117874D02*
X0109595Y0117874D01*
X0109595Y0118318D02*
X0097729Y0118318D01*
X0097729Y0118762D02*
X0109595Y0118762D01*
X0109595Y0110210D02*
X0097729Y0110210D01*
X0097729Y0113808D01*
X0109595Y0113808D01*
X0109595Y0110210D01*
X0109595Y0110654D02*
X0097729Y0110654D01*
X0097729Y0111098D02*
X0109595Y0111098D01*
X0109595Y0111542D02*
X0097729Y0111542D01*
X0097729Y0111986D02*
X0109595Y0111986D01*
X0109595Y0112430D02*
X0097729Y0112430D01*
X0097729Y0112874D02*
X0109595Y0112874D01*
X0109595Y0113318D02*
X0097729Y0113318D01*
X0097729Y0113762D02*
X0109595Y0113762D01*
X0109595Y0105210D02*
X0097729Y0105210D01*
X0097729Y0108808D01*
X0109595Y0108808D01*
X0109595Y0105210D01*
X0109595Y0105654D02*
X0097729Y0105654D01*
X0097729Y0106098D02*
X0109595Y0106098D01*
X0109595Y0106542D02*
X0097729Y0106542D01*
X0097729Y0106986D02*
X0109595Y0106986D01*
X0109595Y0107430D02*
X0097729Y0107430D01*
X0097729Y0107874D02*
X0109595Y0107874D01*
X0109595Y0108318D02*
X0097729Y0108318D01*
X0097729Y0108762D02*
X0109595Y0108762D01*
X0109595Y0100210D02*
X0097729Y0100210D01*
X0097729Y0103808D01*
X0109595Y0103808D01*
X0109595Y0100210D01*
X0109595Y0100654D02*
X0097729Y0100654D01*
X0097729Y0101098D02*
X0109595Y0101098D01*
X0109595Y0101542D02*
X0097729Y0101542D01*
X0097729Y0101986D02*
X0109595Y0101986D01*
X0109595Y0102430D02*
X0097729Y0102430D01*
X0097729Y0102874D02*
X0109595Y0102874D01*
X0109595Y0103318D02*
X0097729Y0103318D01*
X0097729Y0103762D02*
X0109595Y0103762D01*
X0109595Y0095210D02*
X0097729Y0095210D01*
X0097729Y0098808D01*
X0109595Y0098808D01*
X0109595Y0095210D01*
X0109595Y0095654D02*
X0097729Y0095654D01*
X0097729Y0096098D02*
X0109595Y0096098D01*
X0109595Y0096542D02*
X0097729Y0096542D01*
X0097729Y0096986D02*
X0109595Y0096986D01*
X0109595Y0097430D02*
X0097729Y0097430D01*
X0097729Y0097874D02*
X0109595Y0097874D01*
X0109595Y0098318D02*
X0097729Y0098318D01*
X0097729Y0098762D02*
X0109595Y0098762D01*
X0109595Y0090210D02*
X0097729Y0090210D01*
X0097729Y0093808D01*
X0109595Y0093808D01*
X0109595Y0090210D01*
X0109595Y0090654D02*
X0097729Y0090654D01*
X0097729Y0091098D02*
X0109595Y0091098D01*
X0109595Y0091542D02*
X0097729Y0091542D01*
X0097729Y0091986D02*
X0109595Y0091986D01*
X0109595Y0092430D02*
X0097729Y0092430D01*
X0097729Y0092874D02*
X0109595Y0092874D01*
X0109595Y0093318D02*
X0097729Y0093318D01*
X0097729Y0093762D02*
X0109595Y0093762D01*
X0109595Y0085210D02*
X0097729Y0085210D01*
X0097729Y0088808D01*
X0109595Y0088808D01*
X0109595Y0085210D01*
X0109595Y0085654D02*
X0097729Y0085654D01*
X0097729Y0086098D02*
X0109595Y0086098D01*
X0109595Y0086542D02*
X0097729Y0086542D01*
X0097729Y0086986D02*
X0109595Y0086986D01*
X0109595Y0087430D02*
X0097729Y0087430D01*
X0097729Y0087874D02*
X0109595Y0087874D01*
X0109595Y0088318D02*
X0097729Y0088318D01*
X0097729Y0088762D02*
X0109595Y0088762D01*
X0109595Y0080210D02*
X0097729Y0080210D01*
X0097729Y0083808D01*
X0109595Y0083808D01*
X0109595Y0080210D01*
X0109595Y0080654D02*
X0097729Y0080654D01*
X0097729Y0081098D02*
X0109595Y0081098D01*
X0109595Y0081542D02*
X0097729Y0081542D01*
X0097729Y0081986D02*
X0109595Y0081986D01*
X0109595Y0082430D02*
X0097729Y0082430D01*
X0097729Y0082874D02*
X0109595Y0082874D01*
X0109595Y0083318D02*
X0097729Y0083318D01*
X0097729Y0083762D02*
X0109595Y0083762D01*
X0092528Y0082036D02*
X0092528Y0070170D01*
X0088930Y0070170D01*
X0088930Y0082036D01*
X0092528Y0082036D01*
X0092528Y0070614D02*
X0088930Y0070614D01*
X0088930Y0071058D02*
X0092528Y0071058D01*
X0092528Y0071502D02*
X0088930Y0071502D01*
X0088930Y0071946D02*
X0092528Y0071946D01*
X0092528Y0072390D02*
X0088930Y0072390D01*
X0088930Y0072834D02*
X0092528Y0072834D01*
X0092528Y0073278D02*
X0088930Y0073278D01*
X0088930Y0073722D02*
X0092528Y0073722D01*
X0092528Y0074166D02*
X0088930Y0074166D01*
X0088930Y0074610D02*
X0092528Y0074610D01*
X0092528Y0075054D02*
X0088930Y0075054D01*
X0088930Y0075498D02*
X0092528Y0075498D01*
X0092528Y0075942D02*
X0088930Y0075942D01*
X0088930Y0076386D02*
X0092528Y0076386D01*
X0092528Y0076830D02*
X0088930Y0076830D01*
X0088930Y0077274D02*
X0092528Y0077274D01*
X0092528Y0077718D02*
X0088930Y0077718D01*
X0088930Y0078162D02*
X0092528Y0078162D01*
X0092528Y0078606D02*
X0088930Y0078606D01*
X0088930Y0079050D02*
X0092528Y0079050D01*
X0092528Y0079494D02*
X0088930Y0079494D01*
X0088930Y0079938D02*
X0092528Y0079938D01*
X0092528Y0080382D02*
X0088930Y0080382D01*
X0088930Y0080826D02*
X0092528Y0080826D01*
X0092528Y0081270D02*
X0088930Y0081270D01*
X0088930Y0081714D02*
X0092528Y0081714D01*
X0087528Y0082036D02*
X0087528Y0070170D01*
X0083930Y0070170D01*
X0083930Y0082036D01*
X0087528Y0082036D01*
X0087528Y0070614D02*
X0083930Y0070614D01*
X0083930Y0071058D02*
X0087528Y0071058D01*
X0087528Y0071502D02*
X0083930Y0071502D01*
X0083930Y0071946D02*
X0087528Y0071946D01*
X0087528Y0072390D02*
X0083930Y0072390D01*
X0083930Y0072834D02*
X0087528Y0072834D01*
X0087528Y0073278D02*
X0083930Y0073278D01*
X0083930Y0073722D02*
X0087528Y0073722D01*
X0087528Y0074166D02*
X0083930Y0074166D01*
X0083930Y0074610D02*
X0087528Y0074610D01*
X0087528Y0075054D02*
X0083930Y0075054D01*
X0083930Y0075498D02*
X0087528Y0075498D01*
X0087528Y0075942D02*
X0083930Y0075942D01*
X0083930Y0076386D02*
X0087528Y0076386D01*
X0087528Y0076830D02*
X0083930Y0076830D01*
X0083930Y0077274D02*
X0087528Y0077274D01*
X0087528Y0077718D02*
X0083930Y0077718D01*
X0083930Y0078162D02*
X0087528Y0078162D01*
X0087528Y0078606D02*
X0083930Y0078606D01*
X0083930Y0079050D02*
X0087528Y0079050D01*
X0087528Y0079494D02*
X0083930Y0079494D01*
X0083930Y0079938D02*
X0087528Y0079938D01*
X0087528Y0080382D02*
X0083930Y0080382D01*
X0083930Y0080826D02*
X0087528Y0080826D01*
X0087528Y0081270D02*
X0083930Y0081270D01*
X0083930Y0081714D02*
X0087528Y0081714D01*
X0082528Y0082036D02*
X0082528Y0070170D01*
X0078930Y0070170D01*
X0078930Y0082036D01*
X0082528Y0082036D01*
X0082528Y0070614D02*
X0078930Y0070614D01*
X0078930Y0071058D02*
X0082528Y0071058D01*
X0082528Y0071502D02*
X0078930Y0071502D01*
X0078930Y0071946D02*
X0082528Y0071946D01*
X0082528Y0072390D02*
X0078930Y0072390D01*
X0078930Y0072834D02*
X0082528Y0072834D01*
X0082528Y0073278D02*
X0078930Y0073278D01*
X0078930Y0073722D02*
X0082528Y0073722D01*
X0082528Y0074166D02*
X0078930Y0074166D01*
X0078930Y0074610D02*
X0082528Y0074610D01*
X0082528Y0075054D02*
X0078930Y0075054D01*
X0078930Y0075498D02*
X0082528Y0075498D01*
X0082528Y0075942D02*
X0078930Y0075942D01*
X0078930Y0076386D02*
X0082528Y0076386D01*
X0082528Y0076830D02*
X0078930Y0076830D01*
X0078930Y0077274D02*
X0082528Y0077274D01*
X0082528Y0077718D02*
X0078930Y0077718D01*
X0078930Y0078162D02*
X0082528Y0078162D01*
X0082528Y0078606D02*
X0078930Y0078606D01*
X0078930Y0079050D02*
X0082528Y0079050D01*
X0082528Y0079494D02*
X0078930Y0079494D01*
X0078930Y0079938D02*
X0082528Y0079938D01*
X0082528Y0080382D02*
X0078930Y0080382D01*
X0078930Y0080826D02*
X0082528Y0080826D01*
X0082528Y0081270D02*
X0078930Y0081270D01*
X0078930Y0081714D02*
X0082528Y0081714D01*
X0077528Y0082036D02*
X0077528Y0070170D01*
X0073930Y0070170D01*
X0073930Y0082036D01*
X0077528Y0082036D01*
X0077528Y0070614D02*
X0073930Y0070614D01*
X0073930Y0071058D02*
X0077528Y0071058D01*
X0077528Y0071502D02*
X0073930Y0071502D01*
X0073930Y0071946D02*
X0077528Y0071946D01*
X0077528Y0072390D02*
X0073930Y0072390D01*
X0073930Y0072834D02*
X0077528Y0072834D01*
X0077528Y0073278D02*
X0073930Y0073278D01*
X0073930Y0073722D02*
X0077528Y0073722D01*
X0077528Y0074166D02*
X0073930Y0074166D01*
X0073930Y0074610D02*
X0077528Y0074610D01*
X0077528Y0075054D02*
X0073930Y0075054D01*
X0073930Y0075498D02*
X0077528Y0075498D01*
X0077528Y0075942D02*
X0073930Y0075942D01*
X0073930Y0076386D02*
X0077528Y0076386D01*
X0077528Y0076830D02*
X0073930Y0076830D01*
X0073930Y0077274D02*
X0077528Y0077274D01*
X0077528Y0077718D02*
X0073930Y0077718D01*
X0073930Y0078162D02*
X0077528Y0078162D01*
X0077528Y0078606D02*
X0073930Y0078606D01*
X0073930Y0079050D02*
X0077528Y0079050D01*
X0077528Y0079494D02*
X0073930Y0079494D01*
X0073930Y0079938D02*
X0077528Y0079938D01*
X0077528Y0080382D02*
X0073930Y0080382D01*
X0073930Y0080826D02*
X0077528Y0080826D01*
X0077528Y0081270D02*
X0073930Y0081270D01*
X0073930Y0081714D02*
X0077528Y0081714D01*
X0072528Y0082036D02*
X0072528Y0070170D01*
X0068930Y0070170D01*
X0068930Y0082036D01*
X0072528Y0082036D01*
X0072528Y0070614D02*
X0068930Y0070614D01*
X0068930Y0071058D02*
X0072528Y0071058D01*
X0072528Y0071502D02*
X0068930Y0071502D01*
X0068930Y0071946D02*
X0072528Y0071946D01*
X0072528Y0072390D02*
X0068930Y0072390D01*
X0068930Y0072834D02*
X0072528Y0072834D01*
X0072528Y0073278D02*
X0068930Y0073278D01*
X0068930Y0073722D02*
X0072528Y0073722D01*
X0072528Y0074166D02*
X0068930Y0074166D01*
X0068930Y0074610D02*
X0072528Y0074610D01*
X0072528Y0075054D02*
X0068930Y0075054D01*
X0068930Y0075498D02*
X0072528Y0075498D01*
X0072528Y0075942D02*
X0068930Y0075942D01*
X0068930Y0076386D02*
X0072528Y0076386D01*
X0072528Y0076830D02*
X0068930Y0076830D01*
X0068930Y0077274D02*
X0072528Y0077274D01*
X0072528Y0077718D02*
X0068930Y0077718D01*
X0068930Y0078162D02*
X0072528Y0078162D01*
X0072528Y0078606D02*
X0068930Y0078606D01*
X0068930Y0079050D02*
X0072528Y0079050D01*
X0072528Y0079494D02*
X0068930Y0079494D01*
X0068930Y0079938D02*
X0072528Y0079938D01*
X0072528Y0080382D02*
X0068930Y0080382D01*
X0068930Y0080826D02*
X0072528Y0080826D01*
X0072528Y0081270D02*
X0068930Y0081270D01*
X0068930Y0081714D02*
X0072528Y0081714D01*
X0067528Y0082036D02*
X0067528Y0070170D01*
X0063930Y0070170D01*
X0063930Y0082036D01*
X0067528Y0082036D01*
X0067528Y0070614D02*
X0063930Y0070614D01*
X0063930Y0071058D02*
X0067528Y0071058D01*
X0067528Y0071502D02*
X0063930Y0071502D01*
X0063930Y0071946D02*
X0067528Y0071946D01*
X0067528Y0072390D02*
X0063930Y0072390D01*
X0063930Y0072834D02*
X0067528Y0072834D01*
X0067528Y0073278D02*
X0063930Y0073278D01*
X0063930Y0073722D02*
X0067528Y0073722D01*
X0067528Y0074166D02*
X0063930Y0074166D01*
X0063930Y0074610D02*
X0067528Y0074610D01*
X0067528Y0075054D02*
X0063930Y0075054D01*
X0063930Y0075498D02*
X0067528Y0075498D01*
X0067528Y0075942D02*
X0063930Y0075942D01*
X0063930Y0076386D02*
X0067528Y0076386D01*
X0067528Y0076830D02*
X0063930Y0076830D01*
X0063930Y0077274D02*
X0067528Y0077274D01*
X0067528Y0077718D02*
X0063930Y0077718D01*
X0063930Y0078162D02*
X0067528Y0078162D01*
X0067528Y0078606D02*
X0063930Y0078606D01*
X0063930Y0079050D02*
X0067528Y0079050D01*
X0067528Y0079494D02*
X0063930Y0079494D01*
X0063930Y0079938D02*
X0067528Y0079938D01*
X0067528Y0080382D02*
X0063930Y0080382D01*
X0063930Y0080826D02*
X0067528Y0080826D01*
X0067528Y0081270D02*
X0063930Y0081270D01*
X0063930Y0081714D02*
X0067528Y0081714D01*
X0062528Y0082036D02*
X0062528Y0070170D01*
X0058930Y0070170D01*
X0058930Y0082036D01*
X0062528Y0082036D01*
X0062528Y0070614D02*
X0058930Y0070614D01*
X0058930Y0071058D02*
X0062528Y0071058D01*
X0062528Y0071502D02*
X0058930Y0071502D01*
X0058930Y0071946D02*
X0062528Y0071946D01*
X0062528Y0072390D02*
X0058930Y0072390D01*
X0058930Y0072834D02*
X0062528Y0072834D01*
X0062528Y0073278D02*
X0058930Y0073278D01*
X0058930Y0073722D02*
X0062528Y0073722D01*
X0062528Y0074166D02*
X0058930Y0074166D01*
X0058930Y0074610D02*
X0062528Y0074610D01*
X0062528Y0075054D02*
X0058930Y0075054D01*
X0058930Y0075498D02*
X0062528Y0075498D01*
X0062528Y0075942D02*
X0058930Y0075942D01*
X0058930Y0076386D02*
X0062528Y0076386D01*
X0062528Y0076830D02*
X0058930Y0076830D01*
X0058930Y0077274D02*
X0062528Y0077274D01*
X0062528Y0077718D02*
X0058930Y0077718D01*
X0058930Y0078162D02*
X0062528Y0078162D01*
X0062528Y0078606D02*
X0058930Y0078606D01*
X0058930Y0079050D02*
X0062528Y0079050D01*
X0062528Y0079494D02*
X0058930Y0079494D01*
X0058930Y0079938D02*
X0062528Y0079938D01*
X0062528Y0080382D02*
X0058930Y0080382D01*
X0058930Y0080826D02*
X0062528Y0080826D01*
X0062528Y0081270D02*
X0058930Y0081270D01*
X0058930Y0081714D02*
X0062528Y0081714D01*
X0057528Y0082036D02*
X0057528Y0070170D01*
X0053930Y0070170D01*
X0053930Y0082036D01*
X0057528Y0082036D01*
X0057528Y0070614D02*
X0053930Y0070614D01*
X0053930Y0071058D02*
X0057528Y0071058D01*
X0057528Y0071502D02*
X0053930Y0071502D01*
X0053930Y0071946D02*
X0057528Y0071946D01*
X0057528Y0072390D02*
X0053930Y0072390D01*
X0053930Y0072834D02*
X0057528Y0072834D01*
X0057528Y0073278D02*
X0053930Y0073278D01*
X0053930Y0073722D02*
X0057528Y0073722D01*
X0057528Y0074166D02*
X0053930Y0074166D01*
X0053930Y0074610D02*
X0057528Y0074610D01*
X0057528Y0075054D02*
X0053930Y0075054D01*
X0053930Y0075498D02*
X0057528Y0075498D01*
X0057528Y0075942D02*
X0053930Y0075942D01*
X0053930Y0076386D02*
X0057528Y0076386D01*
X0057528Y0076830D02*
X0053930Y0076830D01*
X0053930Y0077274D02*
X0057528Y0077274D01*
X0057528Y0077718D02*
X0053930Y0077718D01*
X0053930Y0078162D02*
X0057528Y0078162D01*
X0057528Y0078606D02*
X0053930Y0078606D01*
X0053930Y0079050D02*
X0057528Y0079050D01*
X0057528Y0079494D02*
X0053930Y0079494D01*
X0053930Y0079938D02*
X0057528Y0079938D01*
X0057528Y0080382D02*
X0053930Y0080382D01*
X0053930Y0080826D02*
X0057528Y0080826D01*
X0057528Y0081270D02*
X0053930Y0081270D01*
X0053930Y0081714D02*
X0057528Y0081714D01*
X0052528Y0082036D02*
X0052528Y0070170D01*
X0048930Y0070170D01*
X0048930Y0082036D01*
X0052528Y0082036D01*
X0052528Y0070614D02*
X0048930Y0070614D01*
X0048930Y0071058D02*
X0052528Y0071058D01*
X0052528Y0071502D02*
X0048930Y0071502D01*
X0048930Y0071946D02*
X0052528Y0071946D01*
X0052528Y0072390D02*
X0048930Y0072390D01*
X0048930Y0072834D02*
X0052528Y0072834D01*
X0052528Y0073278D02*
X0048930Y0073278D01*
X0048930Y0073722D02*
X0052528Y0073722D01*
X0052528Y0074166D02*
X0048930Y0074166D01*
X0048930Y0074610D02*
X0052528Y0074610D01*
X0052528Y0075054D02*
X0048930Y0075054D01*
X0048930Y0075498D02*
X0052528Y0075498D01*
X0052528Y0075942D02*
X0048930Y0075942D01*
X0048930Y0076386D02*
X0052528Y0076386D01*
X0052528Y0076830D02*
X0048930Y0076830D01*
X0048930Y0077274D02*
X0052528Y0077274D01*
X0052528Y0077718D02*
X0048930Y0077718D01*
X0048930Y0078162D02*
X0052528Y0078162D01*
X0052528Y0078606D02*
X0048930Y0078606D01*
X0048930Y0079050D02*
X0052528Y0079050D01*
X0052528Y0079494D02*
X0048930Y0079494D01*
X0048930Y0079938D02*
X0052528Y0079938D01*
X0052528Y0080382D02*
X0048930Y0080382D01*
X0048930Y0080826D02*
X0052528Y0080826D01*
X0052528Y0081270D02*
X0048930Y0081270D01*
X0048930Y0081714D02*
X0052528Y0081714D01*
X0047528Y0082036D02*
X0047528Y0070170D01*
X0043930Y0070170D01*
X0043930Y0082036D01*
X0047528Y0082036D01*
X0047528Y0070614D02*
X0043930Y0070614D01*
X0043930Y0071058D02*
X0047528Y0071058D01*
X0047528Y0071502D02*
X0043930Y0071502D01*
X0043930Y0071946D02*
X0047528Y0071946D01*
X0047528Y0072390D02*
X0043930Y0072390D01*
X0043930Y0072834D02*
X0047528Y0072834D01*
X0047528Y0073278D02*
X0043930Y0073278D01*
X0043930Y0073722D02*
X0047528Y0073722D01*
X0047528Y0074166D02*
X0043930Y0074166D01*
X0043930Y0074610D02*
X0047528Y0074610D01*
X0047528Y0075054D02*
X0043930Y0075054D01*
X0043930Y0075498D02*
X0047528Y0075498D01*
X0047528Y0075942D02*
X0043930Y0075942D01*
X0043930Y0076386D02*
X0047528Y0076386D01*
X0047528Y0076830D02*
X0043930Y0076830D01*
X0043930Y0077274D02*
X0047528Y0077274D01*
X0047528Y0077718D02*
X0043930Y0077718D01*
X0043930Y0078162D02*
X0047528Y0078162D01*
X0047528Y0078606D02*
X0043930Y0078606D01*
X0043930Y0079050D02*
X0047528Y0079050D01*
X0047528Y0079494D02*
X0043930Y0079494D01*
X0043930Y0079938D02*
X0047528Y0079938D01*
X0047528Y0080382D02*
X0043930Y0080382D01*
X0043930Y0080826D02*
X0047528Y0080826D01*
X0047528Y0081270D02*
X0043930Y0081270D01*
X0043930Y0081714D02*
X0047528Y0081714D01*
X0038729Y0080210D02*
X0026863Y0080210D01*
X0026863Y0083808D01*
X0038729Y0083808D01*
X0038729Y0080210D01*
X0038729Y0080654D02*
X0026863Y0080654D01*
X0026863Y0081098D02*
X0038729Y0081098D01*
X0038729Y0081542D02*
X0026863Y0081542D01*
X0026863Y0081986D02*
X0038729Y0081986D01*
X0038729Y0082430D02*
X0026863Y0082430D01*
X0026863Y0082874D02*
X0038729Y0082874D01*
X0038729Y0083318D02*
X0026863Y0083318D01*
X0026863Y0083762D02*
X0038729Y0083762D01*
X0038729Y0085210D02*
X0026863Y0085210D01*
X0026863Y0088808D01*
X0038729Y0088808D01*
X0038729Y0085210D01*
X0038729Y0085654D02*
X0026863Y0085654D01*
X0026863Y0086098D02*
X0038729Y0086098D01*
X0038729Y0086542D02*
X0026863Y0086542D01*
X0026863Y0086986D02*
X0038729Y0086986D01*
X0038729Y0087430D02*
X0026863Y0087430D01*
X0026863Y0087874D02*
X0038729Y0087874D01*
X0038729Y0088318D02*
X0026863Y0088318D01*
X0026863Y0088762D02*
X0038729Y0088762D01*
X0038729Y0090210D02*
X0026863Y0090210D01*
X0026863Y0093808D01*
X0038729Y0093808D01*
X0038729Y0090210D01*
X0038729Y0090654D02*
X0026863Y0090654D01*
X0026863Y0091098D02*
X0038729Y0091098D01*
X0038729Y0091542D02*
X0026863Y0091542D01*
X0026863Y0091986D02*
X0038729Y0091986D01*
X0038729Y0092430D02*
X0026863Y0092430D01*
X0026863Y0092874D02*
X0038729Y0092874D01*
X0038729Y0093318D02*
X0026863Y0093318D01*
X0026863Y0093762D02*
X0038729Y0093762D01*
X0038729Y0095210D02*
X0026863Y0095210D01*
X0026863Y0098808D01*
X0038729Y0098808D01*
X0038729Y0095210D01*
X0038729Y0095654D02*
X0026863Y0095654D01*
X0026863Y0096098D02*
X0038729Y0096098D01*
X0038729Y0096542D02*
X0026863Y0096542D01*
X0026863Y0096986D02*
X0038729Y0096986D01*
X0038729Y0097430D02*
X0026863Y0097430D01*
X0026863Y0097874D02*
X0038729Y0097874D01*
X0038729Y0098318D02*
X0026863Y0098318D01*
X0026863Y0098762D02*
X0038729Y0098762D01*
X0038729Y0100210D02*
X0026863Y0100210D01*
X0026863Y0103808D01*
X0038729Y0103808D01*
X0038729Y0100210D01*
X0038729Y0100654D02*
X0026863Y0100654D01*
X0026863Y0101098D02*
X0038729Y0101098D01*
X0038729Y0101542D02*
X0026863Y0101542D01*
X0026863Y0101986D02*
X0038729Y0101986D01*
X0038729Y0102430D02*
X0026863Y0102430D01*
X0026863Y0102874D02*
X0038729Y0102874D01*
X0038729Y0103318D02*
X0026863Y0103318D01*
X0026863Y0103762D02*
X0038729Y0103762D01*
X0038729Y0105210D02*
X0026863Y0105210D01*
X0026863Y0108808D01*
X0038729Y0108808D01*
X0038729Y0105210D01*
X0038729Y0105654D02*
X0026863Y0105654D01*
X0026863Y0106098D02*
X0038729Y0106098D01*
X0038729Y0106542D02*
X0026863Y0106542D01*
X0026863Y0106986D02*
X0038729Y0106986D01*
X0038729Y0107430D02*
X0026863Y0107430D01*
X0026863Y0107874D02*
X0038729Y0107874D01*
X0038729Y0108318D02*
X0026863Y0108318D01*
X0026863Y0108762D02*
X0038729Y0108762D01*
X0038729Y0110210D02*
X0026863Y0110210D01*
X0026863Y0113808D01*
X0038729Y0113808D01*
X0038729Y0110210D01*
X0038729Y0110654D02*
X0026863Y0110654D01*
X0026863Y0111098D02*
X0038729Y0111098D01*
X0038729Y0111542D02*
X0026863Y0111542D01*
X0026863Y0111986D02*
X0038729Y0111986D01*
X0038729Y0112430D02*
X0026863Y0112430D01*
X0026863Y0112874D02*
X0038729Y0112874D01*
X0038729Y0113318D02*
X0026863Y0113318D01*
X0026863Y0113762D02*
X0038729Y0113762D01*
X0038729Y0115210D02*
X0026863Y0115210D01*
X0026863Y0118808D01*
X0038729Y0118808D01*
X0038729Y0115210D01*
X0038729Y0115654D02*
X0026863Y0115654D01*
X0026863Y0116098D02*
X0038729Y0116098D01*
X0038729Y0116542D02*
X0026863Y0116542D01*
X0026863Y0116986D02*
X0038729Y0116986D01*
X0038729Y0117430D02*
X0026863Y0117430D01*
X0026863Y0117874D02*
X0038729Y0117874D01*
X0038729Y0118318D02*
X0026863Y0118318D01*
X0026863Y0118762D02*
X0038729Y0118762D01*
X0038729Y0120210D02*
X0026863Y0120210D01*
X0026863Y0123808D01*
X0038729Y0123808D01*
X0038729Y0120210D01*
X0038729Y0120654D02*
X0026863Y0120654D01*
X0026863Y0121098D02*
X0038729Y0121098D01*
X0038729Y0121542D02*
X0026863Y0121542D01*
X0026863Y0121986D02*
X0038729Y0121986D01*
X0038729Y0122430D02*
X0026863Y0122430D01*
X0026863Y0122874D02*
X0038729Y0122874D01*
X0038729Y0123318D02*
X0026863Y0123318D01*
X0026863Y0123762D02*
X0038729Y0123762D01*
X0038729Y0125210D02*
X0026863Y0125210D01*
X0026863Y0128808D01*
X0038729Y0128808D01*
X0038729Y0125210D01*
X0038729Y0125654D02*
X0026863Y0125654D01*
X0026863Y0126098D02*
X0038729Y0126098D01*
X0038729Y0126542D02*
X0026863Y0126542D01*
X0026863Y0126986D02*
X0038729Y0126986D01*
X0038729Y0127430D02*
X0026863Y0127430D01*
X0026863Y0127874D02*
X0038729Y0127874D01*
X0038729Y0128318D02*
X0026863Y0128318D01*
X0026863Y0128762D02*
X0038729Y0128762D01*
X0038729Y0130210D02*
X0026863Y0130210D01*
X0026863Y0133808D01*
X0038729Y0133808D01*
X0038729Y0130210D01*
X0038729Y0130654D02*
X0026863Y0130654D01*
X0026863Y0131098D02*
X0038729Y0131098D01*
X0038729Y0131542D02*
X0026863Y0131542D01*
X0026863Y0131986D02*
X0038729Y0131986D01*
X0038729Y0132430D02*
X0026863Y0132430D01*
X0026863Y0132874D02*
X0038729Y0132874D01*
X0038729Y0133318D02*
X0026863Y0133318D01*
X0026863Y0133762D02*
X0038729Y0133762D01*
X0038729Y0135210D02*
X0026863Y0135210D01*
X0026863Y0138808D01*
X0038729Y0138808D01*
X0038729Y0135210D01*
X0038729Y0135654D02*
X0026863Y0135654D01*
X0026863Y0136098D02*
X0038729Y0136098D01*
X0038729Y0136542D02*
X0026863Y0136542D01*
X0026863Y0136986D02*
X0038729Y0136986D01*
X0038729Y0137430D02*
X0026863Y0137430D01*
X0026863Y0137874D02*
X0038729Y0137874D01*
X0038729Y0138318D02*
X0026863Y0138318D01*
X0026863Y0138762D02*
X0038729Y0138762D01*
X0038729Y0140210D02*
X0026863Y0140210D01*
X0026863Y0143808D01*
X0038729Y0143808D01*
X0038729Y0140210D01*
X0038729Y0140654D02*
X0026863Y0140654D01*
X0026863Y0141098D02*
X0038729Y0141098D01*
X0038729Y0141542D02*
X0026863Y0141542D01*
X0026863Y0141986D02*
X0038729Y0141986D01*
X0038729Y0142430D02*
X0026863Y0142430D01*
X0026863Y0142874D02*
X0038729Y0142874D01*
X0038729Y0143318D02*
X0026863Y0143318D01*
X0026863Y0143762D02*
X0038729Y0143762D01*
X0038729Y0145210D02*
X0026863Y0145210D01*
X0026863Y0148808D01*
X0038729Y0148808D01*
X0038729Y0145210D01*
X0038729Y0145654D02*
X0026863Y0145654D01*
X0026863Y0146098D02*
X0038729Y0146098D01*
X0038729Y0146542D02*
X0026863Y0146542D01*
X0026863Y0146986D02*
X0038729Y0146986D01*
X0038729Y0147430D02*
X0026863Y0147430D01*
X0026863Y0147874D02*
X0038729Y0147874D01*
X0038729Y0148318D02*
X0026863Y0148318D01*
X0026863Y0148762D02*
X0038729Y0148762D01*
D27*
X0054402Y0107552D02*
X0074182Y0107552D01*
X0054402Y0107552D02*
X0054402Y0127332D01*
X0074182Y0127332D01*
X0074182Y0107552D01*
X0074182Y0107955D02*
X0054402Y0107955D01*
X0054402Y0108358D02*
X0074182Y0108358D01*
X0074182Y0108761D02*
X0054402Y0108761D01*
X0054402Y0109164D02*
X0074182Y0109164D01*
X0074182Y0109567D02*
X0054402Y0109567D01*
X0054402Y0109970D02*
X0074182Y0109970D01*
X0074182Y0110373D02*
X0054402Y0110373D01*
X0054402Y0110776D02*
X0074182Y0110776D01*
X0074182Y0111179D02*
X0054402Y0111179D01*
X0054402Y0111582D02*
X0074182Y0111582D01*
X0074182Y0111985D02*
X0054402Y0111985D01*
X0054402Y0112388D02*
X0074182Y0112388D01*
X0074182Y0112791D02*
X0054402Y0112791D01*
X0054402Y0113194D02*
X0074182Y0113194D01*
X0074182Y0113597D02*
X0054402Y0113597D01*
X0054402Y0114000D02*
X0074182Y0114000D01*
X0074182Y0114403D02*
X0054402Y0114403D01*
X0054402Y0114806D02*
X0074182Y0114806D01*
X0074182Y0115209D02*
X0054402Y0115209D01*
X0054402Y0115612D02*
X0074182Y0115612D01*
X0074182Y0116015D02*
X0054402Y0116015D01*
X0054402Y0116418D02*
X0074182Y0116418D01*
X0074182Y0116821D02*
X0054402Y0116821D01*
X0054402Y0117224D02*
X0074182Y0117224D01*
X0074182Y0117627D02*
X0054402Y0117627D01*
X0054402Y0118030D02*
X0074182Y0118030D01*
X0074182Y0118433D02*
X0054402Y0118433D01*
X0054402Y0118836D02*
X0074182Y0118836D01*
X0074182Y0119239D02*
X0054402Y0119239D01*
X0054402Y0119642D02*
X0074182Y0119642D01*
X0074182Y0120045D02*
X0054402Y0120045D01*
X0054402Y0120448D02*
X0074182Y0120448D01*
X0074182Y0120851D02*
X0054402Y0120851D01*
X0054402Y0121254D02*
X0074182Y0121254D01*
X0074182Y0121657D02*
X0054402Y0121657D01*
X0054402Y0122060D02*
X0074182Y0122060D01*
X0074182Y0122463D02*
X0054402Y0122463D01*
X0054402Y0122866D02*
X0074182Y0122866D01*
X0074182Y0123269D02*
X0054402Y0123269D01*
X0054402Y0123672D02*
X0074182Y0123672D01*
X0074182Y0124075D02*
X0054402Y0124075D01*
X0054402Y0124478D02*
X0074182Y0124478D01*
X0074182Y0124881D02*
X0054402Y0124881D01*
X0054402Y0125284D02*
X0074182Y0125284D01*
X0074182Y0125687D02*
X0054402Y0125687D01*
X0054402Y0126090D02*
X0074182Y0126090D01*
X0074182Y0126493D02*
X0054402Y0126493D01*
X0054402Y0126896D02*
X0074182Y0126896D01*
X0074182Y0127299D02*
X0054402Y0127299D01*
D28*
X0095788Y0233583D03*
D29*
X0095788Y0243583D03*
X0105788Y0243583D03*
X0105788Y0233583D03*
X0115788Y0233583D03*
X0115788Y0243583D03*
D30*
X0067048Y0237520D03*
X0057048Y0237520D03*
X0047048Y0237520D03*
X0037048Y0237520D03*
X0037048Y0257520D03*
X0047048Y0257520D03*
X0057048Y0257520D03*
X0067048Y0257520D03*
X0017048Y0257520D03*
X0017048Y0237520D03*
D31*
X0059715Y0218335D02*
X0064521Y0218335D01*
X0059715Y0218335D02*
X0059715Y0223535D01*
X0064521Y0223535D01*
X0064521Y0218335D01*
X0064521Y0218752D02*
X0059715Y0218752D01*
X0059715Y0219169D02*
X0064521Y0219169D01*
X0064521Y0219586D02*
X0059715Y0219586D01*
X0059715Y0220003D02*
X0064521Y0220003D01*
X0064521Y0220420D02*
X0059715Y0220420D01*
X0059715Y0220837D02*
X0064521Y0220837D01*
X0064521Y0221254D02*
X0059715Y0221254D01*
X0059715Y0221671D02*
X0064521Y0221671D01*
X0064521Y0222088D02*
X0059715Y0222088D01*
X0059715Y0222505D02*
X0064521Y0222505D01*
X0064521Y0222922D02*
X0059715Y0222922D01*
X0059715Y0223339D02*
X0064521Y0223339D01*
X0067715Y0218335D02*
X0072521Y0218335D01*
X0067715Y0218335D02*
X0067715Y0223535D01*
X0072521Y0223535D01*
X0072521Y0218335D01*
X0072521Y0218752D02*
X0067715Y0218752D01*
X0067715Y0219169D02*
X0072521Y0219169D01*
X0072521Y0219586D02*
X0067715Y0219586D01*
X0067715Y0220003D02*
X0072521Y0220003D01*
X0072521Y0220420D02*
X0067715Y0220420D01*
X0067715Y0220837D02*
X0072521Y0220837D01*
X0072521Y0221254D02*
X0067715Y0221254D01*
X0067715Y0221671D02*
X0072521Y0221671D01*
X0072521Y0222088D02*
X0067715Y0222088D01*
X0067715Y0222505D02*
X0072521Y0222505D01*
X0072521Y0222922D02*
X0067715Y0222922D01*
X0067715Y0223339D02*
X0072521Y0223339D01*
X0072832Y0204561D02*
X0068026Y0204561D01*
X0068026Y0209761D01*
X0072832Y0209761D01*
X0072832Y0204561D01*
X0072832Y0204978D02*
X0068026Y0204978D01*
X0068026Y0205395D02*
X0072832Y0205395D01*
X0072832Y0205812D02*
X0068026Y0205812D01*
X0068026Y0206229D02*
X0072832Y0206229D01*
X0072832Y0206646D02*
X0068026Y0206646D01*
X0068026Y0207063D02*
X0072832Y0207063D01*
X0072832Y0207480D02*
X0068026Y0207480D01*
X0068026Y0207897D02*
X0072832Y0207897D01*
X0072832Y0208314D02*
X0068026Y0208314D01*
X0068026Y0208731D02*
X0072832Y0208731D01*
X0072832Y0209148D02*
X0068026Y0209148D01*
X0068026Y0209565D02*
X0072832Y0209565D01*
X0064832Y0204561D02*
X0060026Y0204561D01*
X0060026Y0209761D01*
X0064832Y0209761D01*
X0064832Y0204561D01*
X0064832Y0204978D02*
X0060026Y0204978D01*
X0060026Y0205395D02*
X0064832Y0205395D01*
X0064832Y0205812D02*
X0060026Y0205812D01*
X0060026Y0206229D02*
X0064832Y0206229D01*
X0064832Y0206646D02*
X0060026Y0206646D01*
X0060026Y0207063D02*
X0064832Y0207063D01*
X0064832Y0207480D02*
X0060026Y0207480D01*
X0060026Y0207897D02*
X0064832Y0207897D01*
X0064832Y0208314D02*
X0060026Y0208314D01*
X0060026Y0208731D02*
X0064832Y0208731D01*
X0064832Y0209148D02*
X0060026Y0209148D01*
X0060026Y0209565D02*
X0064832Y0209565D01*
M02*
