G75*
%MOIN*%
%OFA0B0*%
%FSLAX25Y25*%
%IPPOS*%
%LPD*%
%AMOC8*
5,1,8,0,0,1.08239X$1,22.5*
%
%ADD10C,0.00000*%
%ADD11C,0.00200*%
%ADD12C,0.00300*%
%ADD13C,0.00500*%
%ADD14C,0.00400*%
%ADD15C,0.00591*%
%ADD16C,0.00600*%
%ADD17R,0.10000X0.01000*%
%ADD18C,0.00700*%
%ADD19C,0.03200*%
%ADD20C,0.01000*%
%ADD21C,0.00787*%
%ADD22C,0.00394*%
%ADD23C,0.00800*%
D10*
X0001300Y0001300D02*
X0001300Y0288702D01*
X0198150Y0288702D01*
X0198150Y0001300D01*
X0001300Y0001300D01*
X0005228Y0006117D02*
X0005230Y0006212D01*
X0005236Y0006306D01*
X0005246Y0006401D01*
X0005260Y0006495D01*
X0005277Y0006588D01*
X0005299Y0006680D01*
X0005325Y0006771D01*
X0005354Y0006862D01*
X0005387Y0006950D01*
X0005424Y0007038D01*
X0005464Y0007124D01*
X0005508Y0007208D01*
X0005555Y0007290D01*
X0005606Y0007370D01*
X0005660Y0007448D01*
X0005718Y0007523D01*
X0005778Y0007596D01*
X0005842Y0007667D01*
X0005908Y0007735D01*
X0005977Y0007799D01*
X0006049Y0007861D01*
X0006123Y0007920D01*
X0006200Y0007976D01*
X0006279Y0008029D01*
X0006360Y0008078D01*
X0006443Y0008123D01*
X0006528Y0008166D01*
X0006615Y0008204D01*
X0006703Y0008239D01*
X0006792Y0008270D01*
X0006883Y0008298D01*
X0006975Y0008321D01*
X0007068Y0008341D01*
X0007161Y0008357D01*
X0007255Y0008369D01*
X0007350Y0008377D01*
X0007445Y0008381D01*
X0007539Y0008381D01*
X0007634Y0008377D01*
X0007729Y0008369D01*
X0007823Y0008357D01*
X0007916Y0008341D01*
X0008009Y0008321D01*
X0008101Y0008298D01*
X0008192Y0008270D01*
X0008281Y0008239D01*
X0008369Y0008204D01*
X0008456Y0008166D01*
X0008541Y0008123D01*
X0008624Y0008078D01*
X0008705Y0008029D01*
X0008784Y0007976D01*
X0008861Y0007920D01*
X0008935Y0007861D01*
X0009007Y0007799D01*
X0009076Y0007735D01*
X0009142Y0007667D01*
X0009206Y0007596D01*
X0009266Y0007523D01*
X0009324Y0007448D01*
X0009378Y0007370D01*
X0009429Y0007290D01*
X0009476Y0007208D01*
X0009520Y0007124D01*
X0009560Y0007038D01*
X0009597Y0006950D01*
X0009630Y0006862D01*
X0009659Y0006771D01*
X0009685Y0006680D01*
X0009707Y0006588D01*
X0009724Y0006495D01*
X0009738Y0006401D01*
X0009748Y0006306D01*
X0009754Y0006212D01*
X0009756Y0006117D01*
X0009754Y0006022D01*
X0009748Y0005928D01*
X0009738Y0005833D01*
X0009724Y0005739D01*
X0009707Y0005646D01*
X0009685Y0005554D01*
X0009659Y0005463D01*
X0009630Y0005372D01*
X0009597Y0005284D01*
X0009560Y0005196D01*
X0009520Y0005110D01*
X0009476Y0005026D01*
X0009429Y0004944D01*
X0009378Y0004864D01*
X0009324Y0004786D01*
X0009266Y0004711D01*
X0009206Y0004638D01*
X0009142Y0004567D01*
X0009076Y0004499D01*
X0009007Y0004435D01*
X0008935Y0004373D01*
X0008861Y0004314D01*
X0008784Y0004258D01*
X0008705Y0004205D01*
X0008624Y0004156D01*
X0008541Y0004111D01*
X0008456Y0004068D01*
X0008369Y0004030D01*
X0008281Y0003995D01*
X0008192Y0003964D01*
X0008101Y0003936D01*
X0008009Y0003913D01*
X0007916Y0003893D01*
X0007823Y0003877D01*
X0007729Y0003865D01*
X0007634Y0003857D01*
X0007539Y0003853D01*
X0007445Y0003853D01*
X0007350Y0003857D01*
X0007255Y0003865D01*
X0007161Y0003877D01*
X0007068Y0003893D01*
X0006975Y0003913D01*
X0006883Y0003936D01*
X0006792Y0003964D01*
X0006703Y0003995D01*
X0006615Y0004030D01*
X0006528Y0004068D01*
X0006443Y0004111D01*
X0006360Y0004156D01*
X0006279Y0004205D01*
X0006200Y0004258D01*
X0006123Y0004314D01*
X0006049Y0004373D01*
X0005977Y0004435D01*
X0005908Y0004499D01*
X0005842Y0004567D01*
X0005778Y0004638D01*
X0005718Y0004711D01*
X0005660Y0004786D01*
X0005606Y0004864D01*
X0005555Y0004944D01*
X0005508Y0005026D01*
X0005464Y0005110D01*
X0005424Y0005196D01*
X0005387Y0005284D01*
X0005354Y0005372D01*
X0005325Y0005463D01*
X0005299Y0005554D01*
X0005277Y0005646D01*
X0005260Y0005739D01*
X0005246Y0005833D01*
X0005236Y0005928D01*
X0005230Y0006022D01*
X0005228Y0006117D01*
X0016449Y0010054D02*
X0016451Y0010135D01*
X0016457Y0010217D01*
X0016467Y0010298D01*
X0016481Y0010378D01*
X0016498Y0010457D01*
X0016520Y0010536D01*
X0016545Y0010613D01*
X0016574Y0010690D01*
X0016607Y0010764D01*
X0016644Y0010837D01*
X0016683Y0010908D01*
X0016727Y0010977D01*
X0016773Y0011044D01*
X0016823Y0011108D01*
X0016876Y0011170D01*
X0016932Y0011230D01*
X0016990Y0011286D01*
X0017052Y0011340D01*
X0017116Y0011391D01*
X0017182Y0011438D01*
X0017250Y0011482D01*
X0017321Y0011523D01*
X0017393Y0011560D01*
X0017468Y0011594D01*
X0017543Y0011624D01*
X0017621Y0011650D01*
X0017699Y0011673D01*
X0017778Y0011691D01*
X0017858Y0011706D01*
X0017939Y0011717D01*
X0018020Y0011724D01*
X0018102Y0011727D01*
X0018183Y0011726D01*
X0018264Y0011721D01*
X0018345Y0011712D01*
X0018426Y0011699D01*
X0018506Y0011682D01*
X0018584Y0011662D01*
X0018662Y0011637D01*
X0018739Y0011609D01*
X0018814Y0011577D01*
X0018887Y0011542D01*
X0018958Y0011503D01*
X0019028Y0011460D01*
X0019095Y0011415D01*
X0019161Y0011366D01*
X0019223Y0011314D01*
X0019283Y0011258D01*
X0019340Y0011200D01*
X0019395Y0011140D01*
X0019446Y0011076D01*
X0019494Y0011011D01*
X0019539Y0010943D01*
X0019581Y0010873D01*
X0019619Y0010801D01*
X0019654Y0010727D01*
X0019685Y0010652D01*
X0019712Y0010575D01*
X0019735Y0010497D01*
X0019755Y0010418D01*
X0019771Y0010338D01*
X0019783Y0010257D01*
X0019791Y0010176D01*
X0019795Y0010095D01*
X0019795Y0010013D01*
X0019791Y0009932D01*
X0019783Y0009851D01*
X0019771Y0009770D01*
X0019755Y0009690D01*
X0019735Y0009611D01*
X0019712Y0009533D01*
X0019685Y0009456D01*
X0019654Y0009381D01*
X0019619Y0009307D01*
X0019581Y0009235D01*
X0019539Y0009165D01*
X0019494Y0009097D01*
X0019446Y0009032D01*
X0019395Y0008968D01*
X0019340Y0008908D01*
X0019283Y0008850D01*
X0019223Y0008794D01*
X0019161Y0008742D01*
X0019095Y0008693D01*
X0019028Y0008648D01*
X0018959Y0008605D01*
X0018887Y0008566D01*
X0018814Y0008531D01*
X0018739Y0008499D01*
X0018662Y0008471D01*
X0018584Y0008446D01*
X0018506Y0008426D01*
X0018426Y0008409D01*
X0018345Y0008396D01*
X0018264Y0008387D01*
X0018183Y0008382D01*
X0018102Y0008381D01*
X0018020Y0008384D01*
X0017939Y0008391D01*
X0017858Y0008402D01*
X0017778Y0008417D01*
X0017699Y0008435D01*
X0017621Y0008458D01*
X0017543Y0008484D01*
X0017468Y0008514D01*
X0017393Y0008548D01*
X0017321Y0008585D01*
X0017250Y0008626D01*
X0017182Y0008670D01*
X0017116Y0008717D01*
X0017052Y0008768D01*
X0016990Y0008822D01*
X0016932Y0008878D01*
X0016876Y0008938D01*
X0016823Y0009000D01*
X0016773Y0009064D01*
X0016727Y0009131D01*
X0016683Y0009200D01*
X0016644Y0009271D01*
X0016607Y0009344D01*
X0016574Y0009418D01*
X0016545Y0009495D01*
X0016520Y0009572D01*
X0016498Y0009651D01*
X0016481Y0009730D01*
X0016467Y0009810D01*
X0016457Y0009891D01*
X0016451Y0009973D01*
X0016449Y0010054D01*
X0016449Y0029739D02*
X0016451Y0029820D01*
X0016457Y0029902D01*
X0016467Y0029983D01*
X0016481Y0030063D01*
X0016498Y0030142D01*
X0016520Y0030221D01*
X0016545Y0030298D01*
X0016574Y0030375D01*
X0016607Y0030449D01*
X0016644Y0030522D01*
X0016683Y0030593D01*
X0016727Y0030662D01*
X0016773Y0030729D01*
X0016823Y0030793D01*
X0016876Y0030855D01*
X0016932Y0030915D01*
X0016990Y0030971D01*
X0017052Y0031025D01*
X0017116Y0031076D01*
X0017182Y0031123D01*
X0017250Y0031167D01*
X0017321Y0031208D01*
X0017393Y0031245D01*
X0017468Y0031279D01*
X0017543Y0031309D01*
X0017621Y0031335D01*
X0017699Y0031358D01*
X0017778Y0031376D01*
X0017858Y0031391D01*
X0017939Y0031402D01*
X0018020Y0031409D01*
X0018102Y0031412D01*
X0018183Y0031411D01*
X0018264Y0031406D01*
X0018345Y0031397D01*
X0018426Y0031384D01*
X0018506Y0031367D01*
X0018584Y0031347D01*
X0018662Y0031322D01*
X0018739Y0031294D01*
X0018814Y0031262D01*
X0018887Y0031227D01*
X0018958Y0031188D01*
X0019028Y0031145D01*
X0019095Y0031100D01*
X0019161Y0031051D01*
X0019223Y0030999D01*
X0019283Y0030943D01*
X0019340Y0030885D01*
X0019395Y0030825D01*
X0019446Y0030761D01*
X0019494Y0030696D01*
X0019539Y0030628D01*
X0019581Y0030558D01*
X0019619Y0030486D01*
X0019654Y0030412D01*
X0019685Y0030337D01*
X0019712Y0030260D01*
X0019735Y0030182D01*
X0019755Y0030103D01*
X0019771Y0030023D01*
X0019783Y0029942D01*
X0019791Y0029861D01*
X0019795Y0029780D01*
X0019795Y0029698D01*
X0019791Y0029617D01*
X0019783Y0029536D01*
X0019771Y0029455D01*
X0019755Y0029375D01*
X0019735Y0029296D01*
X0019712Y0029218D01*
X0019685Y0029141D01*
X0019654Y0029066D01*
X0019619Y0028992D01*
X0019581Y0028920D01*
X0019539Y0028850D01*
X0019494Y0028782D01*
X0019446Y0028717D01*
X0019395Y0028653D01*
X0019340Y0028593D01*
X0019283Y0028535D01*
X0019223Y0028479D01*
X0019161Y0028427D01*
X0019095Y0028378D01*
X0019028Y0028333D01*
X0018959Y0028290D01*
X0018887Y0028251D01*
X0018814Y0028216D01*
X0018739Y0028184D01*
X0018662Y0028156D01*
X0018584Y0028131D01*
X0018506Y0028111D01*
X0018426Y0028094D01*
X0018345Y0028081D01*
X0018264Y0028072D01*
X0018183Y0028067D01*
X0018102Y0028066D01*
X0018020Y0028069D01*
X0017939Y0028076D01*
X0017858Y0028087D01*
X0017778Y0028102D01*
X0017699Y0028120D01*
X0017621Y0028143D01*
X0017543Y0028169D01*
X0017468Y0028199D01*
X0017393Y0028233D01*
X0017321Y0028270D01*
X0017250Y0028311D01*
X0017182Y0028355D01*
X0017116Y0028402D01*
X0017052Y0028453D01*
X0016990Y0028507D01*
X0016932Y0028563D01*
X0016876Y0028623D01*
X0016823Y0028685D01*
X0016773Y0028749D01*
X0016727Y0028816D01*
X0016683Y0028885D01*
X0016644Y0028956D01*
X0016607Y0029029D01*
X0016574Y0029103D01*
X0016545Y0029180D01*
X0016520Y0029257D01*
X0016498Y0029336D01*
X0016481Y0029415D01*
X0016467Y0029495D01*
X0016457Y0029576D01*
X0016451Y0029658D01*
X0016449Y0029739D01*
X0005228Y0033676D02*
X0005230Y0033771D01*
X0005236Y0033865D01*
X0005246Y0033960D01*
X0005260Y0034054D01*
X0005277Y0034147D01*
X0005299Y0034239D01*
X0005325Y0034330D01*
X0005354Y0034421D01*
X0005387Y0034509D01*
X0005424Y0034597D01*
X0005464Y0034683D01*
X0005508Y0034767D01*
X0005555Y0034849D01*
X0005606Y0034929D01*
X0005660Y0035007D01*
X0005718Y0035082D01*
X0005778Y0035155D01*
X0005842Y0035226D01*
X0005908Y0035294D01*
X0005977Y0035358D01*
X0006049Y0035420D01*
X0006123Y0035479D01*
X0006200Y0035535D01*
X0006279Y0035588D01*
X0006360Y0035637D01*
X0006443Y0035682D01*
X0006528Y0035725D01*
X0006615Y0035763D01*
X0006703Y0035798D01*
X0006792Y0035829D01*
X0006883Y0035857D01*
X0006975Y0035880D01*
X0007068Y0035900D01*
X0007161Y0035916D01*
X0007255Y0035928D01*
X0007350Y0035936D01*
X0007445Y0035940D01*
X0007539Y0035940D01*
X0007634Y0035936D01*
X0007729Y0035928D01*
X0007823Y0035916D01*
X0007916Y0035900D01*
X0008009Y0035880D01*
X0008101Y0035857D01*
X0008192Y0035829D01*
X0008281Y0035798D01*
X0008369Y0035763D01*
X0008456Y0035725D01*
X0008541Y0035682D01*
X0008624Y0035637D01*
X0008705Y0035588D01*
X0008784Y0035535D01*
X0008861Y0035479D01*
X0008935Y0035420D01*
X0009007Y0035358D01*
X0009076Y0035294D01*
X0009142Y0035226D01*
X0009206Y0035155D01*
X0009266Y0035082D01*
X0009324Y0035007D01*
X0009378Y0034929D01*
X0009429Y0034849D01*
X0009476Y0034767D01*
X0009520Y0034683D01*
X0009560Y0034597D01*
X0009597Y0034509D01*
X0009630Y0034421D01*
X0009659Y0034330D01*
X0009685Y0034239D01*
X0009707Y0034147D01*
X0009724Y0034054D01*
X0009738Y0033960D01*
X0009748Y0033865D01*
X0009754Y0033771D01*
X0009756Y0033676D01*
X0009754Y0033581D01*
X0009748Y0033487D01*
X0009738Y0033392D01*
X0009724Y0033298D01*
X0009707Y0033205D01*
X0009685Y0033113D01*
X0009659Y0033022D01*
X0009630Y0032931D01*
X0009597Y0032843D01*
X0009560Y0032755D01*
X0009520Y0032669D01*
X0009476Y0032585D01*
X0009429Y0032503D01*
X0009378Y0032423D01*
X0009324Y0032345D01*
X0009266Y0032270D01*
X0009206Y0032197D01*
X0009142Y0032126D01*
X0009076Y0032058D01*
X0009007Y0031994D01*
X0008935Y0031932D01*
X0008861Y0031873D01*
X0008784Y0031817D01*
X0008705Y0031764D01*
X0008624Y0031715D01*
X0008541Y0031670D01*
X0008456Y0031627D01*
X0008369Y0031589D01*
X0008281Y0031554D01*
X0008192Y0031523D01*
X0008101Y0031495D01*
X0008009Y0031472D01*
X0007916Y0031452D01*
X0007823Y0031436D01*
X0007729Y0031424D01*
X0007634Y0031416D01*
X0007539Y0031412D01*
X0007445Y0031412D01*
X0007350Y0031416D01*
X0007255Y0031424D01*
X0007161Y0031436D01*
X0007068Y0031452D01*
X0006975Y0031472D01*
X0006883Y0031495D01*
X0006792Y0031523D01*
X0006703Y0031554D01*
X0006615Y0031589D01*
X0006528Y0031627D01*
X0006443Y0031670D01*
X0006360Y0031715D01*
X0006279Y0031764D01*
X0006200Y0031817D01*
X0006123Y0031873D01*
X0006049Y0031932D01*
X0005977Y0031994D01*
X0005908Y0032058D01*
X0005842Y0032126D01*
X0005778Y0032197D01*
X0005718Y0032270D01*
X0005660Y0032345D01*
X0005606Y0032423D01*
X0005555Y0032503D01*
X0005508Y0032585D01*
X0005464Y0032669D01*
X0005424Y0032755D01*
X0005387Y0032843D01*
X0005354Y0032931D01*
X0005325Y0033022D01*
X0005299Y0033113D01*
X0005277Y0033205D01*
X0005260Y0033298D01*
X0005246Y0033392D01*
X0005236Y0033487D01*
X0005230Y0033581D01*
X0005228Y0033676D01*
D11*
X0067122Y0056343D02*
X0067122Y0058004D01*
X0068400Y0058004D02*
X0068400Y0056343D01*
X0068398Y0056294D01*
X0068393Y0056245D01*
X0068383Y0056197D01*
X0068370Y0056150D01*
X0068354Y0056104D01*
X0068334Y0056059D01*
X0068310Y0056016D01*
X0068284Y0055975D01*
X0068254Y0055936D01*
X0068221Y0055900D01*
X0068186Y0055866D01*
X0068148Y0055835D01*
X0068108Y0055807D01*
X0068066Y0055782D01*
X0068022Y0055760D01*
X0067977Y0055742D01*
X0067930Y0055727D01*
X0067883Y0055716D01*
X0067834Y0055708D01*
X0067785Y0055704D01*
X0067737Y0055704D01*
X0067688Y0055708D01*
X0067639Y0055716D01*
X0067592Y0055727D01*
X0067545Y0055742D01*
X0067500Y0055760D01*
X0067456Y0055782D01*
X0067414Y0055807D01*
X0067374Y0055835D01*
X0067336Y0055866D01*
X0067301Y0055900D01*
X0067268Y0055936D01*
X0067238Y0055975D01*
X0067212Y0056016D01*
X0067188Y0056059D01*
X0067168Y0056104D01*
X0067152Y0056150D01*
X0067139Y0056197D01*
X0067129Y0056245D01*
X0067124Y0056294D01*
X0067122Y0056343D01*
X0069447Y0055704D02*
X0070725Y0055704D01*
X0070086Y0055704D02*
X0070086Y0058004D01*
X0069447Y0057493D01*
X0164902Y0053349D02*
X0164902Y0051149D01*
X0165513Y0051149D01*
X0165561Y0051151D01*
X0165609Y0051157D01*
X0165656Y0051166D01*
X0165702Y0051179D01*
X0165747Y0051196D01*
X0165790Y0051216D01*
X0165832Y0051239D01*
X0165872Y0051266D01*
X0165910Y0051295D01*
X0165945Y0051328D01*
X0165978Y0051363D01*
X0166007Y0051401D01*
X0166034Y0051441D01*
X0166057Y0051483D01*
X0166077Y0051526D01*
X0166094Y0051571D01*
X0166107Y0051617D01*
X0166116Y0051664D01*
X0166122Y0051712D01*
X0166124Y0051760D01*
X0166125Y0051760D02*
X0166125Y0052738D01*
X0166124Y0052738D02*
X0166122Y0052786D01*
X0166116Y0052834D01*
X0166107Y0052881D01*
X0166094Y0052927D01*
X0166077Y0052972D01*
X0166057Y0053015D01*
X0166034Y0053057D01*
X0166007Y0053097D01*
X0165978Y0053135D01*
X0165945Y0053170D01*
X0165910Y0053203D01*
X0165872Y0053232D01*
X0165832Y0053259D01*
X0165790Y0053282D01*
X0165747Y0053302D01*
X0165702Y0053319D01*
X0165656Y0053332D01*
X0165609Y0053341D01*
X0165561Y0053347D01*
X0165513Y0053349D01*
X0164902Y0053349D01*
X0167134Y0052860D02*
X0167745Y0053349D01*
X0167745Y0051149D01*
X0167134Y0051149D02*
X0168357Y0051149D01*
X0169294Y0051149D02*
X0170028Y0051149D01*
X0170071Y0051151D01*
X0170113Y0051156D01*
X0170155Y0051166D01*
X0170195Y0051178D01*
X0170235Y0051195D01*
X0170272Y0051215D01*
X0170308Y0051237D01*
X0170342Y0051263D01*
X0170374Y0051292D01*
X0170403Y0051324D01*
X0170429Y0051358D01*
X0170451Y0051393D01*
X0170471Y0051431D01*
X0170488Y0051471D01*
X0170500Y0051511D01*
X0170510Y0051553D01*
X0170515Y0051595D01*
X0170517Y0051638D01*
X0170517Y0051882D01*
X0170515Y0051925D01*
X0170510Y0051967D01*
X0170500Y0052009D01*
X0170488Y0052049D01*
X0170471Y0052089D01*
X0170451Y0052127D01*
X0170429Y0052162D01*
X0170403Y0052196D01*
X0170374Y0052228D01*
X0170342Y0052257D01*
X0170308Y0052283D01*
X0170273Y0052305D01*
X0170235Y0052325D01*
X0170195Y0052342D01*
X0170155Y0052354D01*
X0170113Y0052364D01*
X0170071Y0052369D01*
X0170028Y0052371D01*
X0169294Y0052371D01*
X0169294Y0053349D01*
X0170517Y0053349D01*
X0171361Y0050904D02*
X0172338Y0050904D01*
X0173259Y0051149D02*
X0173259Y0053349D01*
X0174236Y0053349D01*
X0173992Y0052371D02*
X0173259Y0052371D01*
X0173259Y0051149D02*
X0174236Y0051149D01*
X0175960Y0052066D02*
X0175996Y0052043D01*
X0176030Y0052016D01*
X0176062Y0051987D01*
X0176091Y0051955D01*
X0176117Y0051921D01*
X0176140Y0051885D01*
X0176159Y0051846D01*
X0176176Y0051807D01*
X0176188Y0051766D01*
X0176198Y0051724D01*
X0176203Y0051681D01*
X0176205Y0051638D01*
X0176203Y0051595D01*
X0176198Y0051553D01*
X0176188Y0051511D01*
X0176176Y0051471D01*
X0176159Y0051431D01*
X0176139Y0051394D01*
X0176117Y0051358D01*
X0176091Y0051324D01*
X0176062Y0051292D01*
X0176030Y0051263D01*
X0175996Y0051237D01*
X0175961Y0051215D01*
X0175923Y0051195D01*
X0175883Y0051178D01*
X0175843Y0051166D01*
X0175801Y0051156D01*
X0175759Y0051151D01*
X0175716Y0051149D01*
X0175960Y0052065D02*
X0175288Y0052432D01*
X0175532Y0053349D02*
X0175591Y0053347D01*
X0175650Y0053341D01*
X0175708Y0053332D01*
X0175765Y0053319D01*
X0175822Y0053302D01*
X0175877Y0053281D01*
X0175931Y0053258D01*
X0175983Y0053230D01*
X0176034Y0053199D01*
X0176082Y0053166D01*
X0175288Y0052432D02*
X0175252Y0052455D01*
X0175218Y0052482D01*
X0175186Y0052511D01*
X0175157Y0052543D01*
X0175131Y0052577D01*
X0175108Y0052613D01*
X0175089Y0052652D01*
X0175072Y0052691D01*
X0175060Y0052732D01*
X0175050Y0052774D01*
X0175045Y0052817D01*
X0175043Y0052860D01*
X0175045Y0052903D01*
X0175050Y0052945D01*
X0175060Y0052987D01*
X0175072Y0053027D01*
X0175089Y0053067D01*
X0175109Y0053105D01*
X0175131Y0053140D01*
X0175157Y0053174D01*
X0175186Y0053206D01*
X0175218Y0053235D01*
X0175252Y0053261D01*
X0175288Y0053283D01*
X0175325Y0053303D01*
X0175365Y0053320D01*
X0175405Y0053332D01*
X0175447Y0053342D01*
X0175489Y0053347D01*
X0175532Y0053349D01*
X0174983Y0051455D02*
X0175028Y0051411D01*
X0175076Y0051371D01*
X0175126Y0051334D01*
X0175179Y0051300D01*
X0175234Y0051269D01*
X0175290Y0051241D01*
X0175348Y0051217D01*
X0175407Y0051196D01*
X0175468Y0051179D01*
X0175529Y0051166D01*
X0175591Y0051157D01*
X0175653Y0051151D01*
X0175716Y0051149D01*
X0177175Y0051149D02*
X0177175Y0053349D01*
X0177786Y0053349D01*
X0177834Y0053347D01*
X0177882Y0053341D01*
X0177929Y0053332D01*
X0177975Y0053319D01*
X0178020Y0053302D01*
X0178063Y0053282D01*
X0178105Y0053259D01*
X0178145Y0053232D01*
X0178183Y0053203D01*
X0178218Y0053170D01*
X0178251Y0053135D01*
X0178280Y0053097D01*
X0178307Y0053057D01*
X0178330Y0053015D01*
X0178350Y0052972D01*
X0178367Y0052927D01*
X0178380Y0052881D01*
X0178389Y0052834D01*
X0178395Y0052786D01*
X0178397Y0052738D01*
X0178395Y0052690D01*
X0178389Y0052642D01*
X0178380Y0052595D01*
X0178367Y0052549D01*
X0178350Y0052504D01*
X0178330Y0052461D01*
X0178307Y0052419D01*
X0178280Y0052379D01*
X0178251Y0052341D01*
X0178218Y0052306D01*
X0178183Y0052273D01*
X0178145Y0052244D01*
X0178105Y0052217D01*
X0178063Y0052194D01*
X0178020Y0052174D01*
X0177975Y0052157D01*
X0177929Y0052144D01*
X0177882Y0052135D01*
X0177834Y0052129D01*
X0177786Y0052127D01*
X0177175Y0052127D01*
X0179230Y0051149D02*
X0179841Y0051149D01*
X0179889Y0051151D01*
X0179937Y0051157D01*
X0179984Y0051166D01*
X0180030Y0051179D01*
X0180075Y0051196D01*
X0180118Y0051216D01*
X0180160Y0051239D01*
X0180200Y0051266D01*
X0180238Y0051295D01*
X0180273Y0051328D01*
X0180306Y0051363D01*
X0180335Y0051401D01*
X0180362Y0051441D01*
X0180385Y0051483D01*
X0180405Y0051526D01*
X0180422Y0051571D01*
X0180435Y0051617D01*
X0180444Y0051664D01*
X0180450Y0051712D01*
X0180452Y0051760D01*
X0180450Y0051808D01*
X0180444Y0051856D01*
X0180435Y0051903D01*
X0180422Y0051949D01*
X0180405Y0051994D01*
X0180385Y0052037D01*
X0180362Y0052079D01*
X0180335Y0052119D01*
X0180306Y0052157D01*
X0180273Y0052192D01*
X0180238Y0052225D01*
X0180200Y0052254D01*
X0180160Y0052281D01*
X0180118Y0052304D01*
X0180075Y0052324D01*
X0180030Y0052341D01*
X0179984Y0052354D01*
X0179937Y0052363D01*
X0179889Y0052369D01*
X0179841Y0052371D01*
X0179964Y0052371D02*
X0179475Y0052371D01*
X0179964Y0052371D02*
X0180007Y0052373D01*
X0180049Y0052378D01*
X0180091Y0052388D01*
X0180131Y0052400D01*
X0180171Y0052417D01*
X0180209Y0052437D01*
X0180244Y0052459D01*
X0180278Y0052485D01*
X0180310Y0052514D01*
X0180339Y0052546D01*
X0180365Y0052580D01*
X0180387Y0052616D01*
X0180407Y0052653D01*
X0180424Y0052693D01*
X0180436Y0052733D01*
X0180446Y0052775D01*
X0180451Y0052817D01*
X0180453Y0052860D01*
X0180451Y0052903D01*
X0180446Y0052945D01*
X0180436Y0052987D01*
X0180424Y0053027D01*
X0180407Y0053067D01*
X0180387Y0053105D01*
X0180365Y0053140D01*
X0180339Y0053174D01*
X0180310Y0053206D01*
X0180278Y0053235D01*
X0180244Y0053261D01*
X0180209Y0053283D01*
X0180171Y0053303D01*
X0180131Y0053320D01*
X0180091Y0053332D01*
X0180049Y0053342D01*
X0180007Y0053347D01*
X0179964Y0053349D01*
X0179230Y0053349D01*
X0181390Y0051149D02*
X0182612Y0051149D01*
X0181390Y0051149D02*
X0182429Y0052371D01*
X0182062Y0053349D02*
X0182010Y0053347D01*
X0181958Y0053341D01*
X0181906Y0053332D01*
X0181856Y0053318D01*
X0181806Y0053301D01*
X0181758Y0053280D01*
X0181712Y0053256D01*
X0181668Y0053229D01*
X0181625Y0053198D01*
X0181585Y0053164D01*
X0181548Y0053128D01*
X0181514Y0053088D01*
X0181482Y0053046D01*
X0181454Y0053003D01*
X0181429Y0052957D01*
X0181407Y0052909D01*
X0181389Y0052860D01*
X0182430Y0052371D02*
X0182463Y0052405D01*
X0182493Y0052442D01*
X0182521Y0052482D01*
X0182545Y0052523D01*
X0182565Y0052566D01*
X0182582Y0052611D01*
X0182596Y0052657D01*
X0182605Y0052704D01*
X0182611Y0052751D01*
X0182613Y0052799D01*
X0182612Y0052799D02*
X0182610Y0052844D01*
X0182604Y0052890D01*
X0182595Y0052934D01*
X0182582Y0052978D01*
X0182566Y0053020D01*
X0182546Y0053061D01*
X0182522Y0053100D01*
X0182496Y0053137D01*
X0182467Y0053172D01*
X0182435Y0053204D01*
X0182400Y0053233D01*
X0182363Y0053259D01*
X0182324Y0053283D01*
X0182283Y0053303D01*
X0182241Y0053319D01*
X0182197Y0053332D01*
X0182153Y0053341D01*
X0182107Y0053347D01*
X0182062Y0053349D01*
X0181617Y0061375D02*
X0180884Y0063575D01*
X0180150Y0061375D01*
X0180334Y0061925D02*
X0181434Y0061925D01*
X0183472Y0061681D02*
X0183506Y0061755D01*
X0183537Y0061831D01*
X0183564Y0061909D01*
X0183588Y0061988D01*
X0183609Y0062067D01*
X0183625Y0062148D01*
X0183638Y0062229D01*
X0183648Y0062311D01*
X0183653Y0062393D01*
X0183655Y0062475D01*
X0182433Y0062475D02*
X0182435Y0062557D01*
X0182440Y0062639D01*
X0182450Y0062721D01*
X0182463Y0062802D01*
X0182479Y0062883D01*
X0182500Y0062962D01*
X0182524Y0063041D01*
X0182551Y0063119D01*
X0182582Y0063195D01*
X0182616Y0063269D01*
X0183044Y0063575D02*
X0183084Y0063573D01*
X0183124Y0063568D01*
X0183163Y0063559D01*
X0183201Y0063547D01*
X0183238Y0063531D01*
X0183273Y0063513D01*
X0183307Y0063491D01*
X0183338Y0063466D01*
X0183367Y0063439D01*
X0183394Y0063409D01*
X0183418Y0063377D01*
X0183439Y0063343D01*
X0183457Y0063307D01*
X0183472Y0063270D01*
X0183533Y0063086D02*
X0182555Y0061864D01*
X0183044Y0061375D02*
X0183084Y0061377D01*
X0183124Y0061382D01*
X0183163Y0061391D01*
X0183201Y0061403D01*
X0183238Y0061419D01*
X0183273Y0061437D01*
X0183307Y0061459D01*
X0183338Y0061484D01*
X0183367Y0061511D01*
X0183394Y0061541D01*
X0183418Y0061573D01*
X0183439Y0061607D01*
X0183457Y0061643D01*
X0183472Y0061680D01*
X0183044Y0061375D02*
X0183004Y0061377D01*
X0182964Y0061382D01*
X0182925Y0061391D01*
X0182887Y0061403D01*
X0182850Y0061419D01*
X0182815Y0061437D01*
X0182781Y0061459D01*
X0182750Y0061484D01*
X0182721Y0061511D01*
X0182694Y0061541D01*
X0182670Y0061573D01*
X0182649Y0061607D01*
X0182631Y0061643D01*
X0182616Y0061680D01*
X0183655Y0062475D02*
X0183653Y0062557D01*
X0183648Y0062639D01*
X0183638Y0062721D01*
X0183625Y0062802D01*
X0183609Y0062883D01*
X0183588Y0062962D01*
X0183564Y0063041D01*
X0183537Y0063119D01*
X0183506Y0063195D01*
X0183472Y0063269D01*
X0183044Y0063575D02*
X0183004Y0063573D01*
X0182964Y0063568D01*
X0182925Y0063559D01*
X0182887Y0063547D01*
X0182850Y0063531D01*
X0182815Y0063513D01*
X0182781Y0063491D01*
X0182750Y0063466D01*
X0182721Y0063439D01*
X0182694Y0063409D01*
X0182670Y0063377D01*
X0182649Y0063343D01*
X0182631Y0063307D01*
X0182616Y0063270D01*
X0182433Y0062475D02*
X0182435Y0062393D01*
X0182440Y0062311D01*
X0182450Y0062229D01*
X0182463Y0062148D01*
X0182479Y0062067D01*
X0182500Y0061988D01*
X0182524Y0061909D01*
X0182551Y0061831D01*
X0182582Y0061755D01*
X0182616Y0061681D01*
X0183092Y0071864D02*
X0181870Y0071864D01*
X0182908Y0073086D01*
X0182542Y0074064D02*
X0182490Y0074062D01*
X0182438Y0074056D01*
X0182386Y0074047D01*
X0182336Y0074033D01*
X0182286Y0074016D01*
X0182238Y0073995D01*
X0182192Y0073971D01*
X0182148Y0073944D01*
X0182105Y0073913D01*
X0182065Y0073879D01*
X0182028Y0073843D01*
X0181994Y0073803D01*
X0181962Y0073761D01*
X0181934Y0073718D01*
X0181909Y0073672D01*
X0181887Y0073624D01*
X0181869Y0073575D01*
X0182909Y0073086D02*
X0182942Y0073120D01*
X0182972Y0073157D01*
X0183000Y0073197D01*
X0183024Y0073238D01*
X0183044Y0073281D01*
X0183061Y0073326D01*
X0183075Y0073372D01*
X0183084Y0073419D01*
X0183090Y0073466D01*
X0183092Y0073514D01*
X0183090Y0073559D01*
X0183084Y0073605D01*
X0183075Y0073649D01*
X0183062Y0073693D01*
X0183046Y0073735D01*
X0183026Y0073776D01*
X0183002Y0073815D01*
X0182976Y0073852D01*
X0182947Y0073887D01*
X0182915Y0073919D01*
X0182880Y0073948D01*
X0182843Y0073974D01*
X0182804Y0073998D01*
X0182763Y0074018D01*
X0182721Y0074034D01*
X0182677Y0074047D01*
X0182633Y0074056D01*
X0182587Y0074062D01*
X0182542Y0074064D01*
X0180321Y0074064D02*
X0181054Y0071864D01*
X0180871Y0072414D02*
X0179771Y0072414D01*
X0179587Y0071864D02*
X0180321Y0074064D01*
X0180137Y0081453D02*
X0180748Y0081453D01*
X0180796Y0081455D01*
X0180844Y0081461D01*
X0180891Y0081470D01*
X0180937Y0081483D01*
X0180982Y0081500D01*
X0181025Y0081520D01*
X0181067Y0081543D01*
X0181107Y0081570D01*
X0181145Y0081599D01*
X0181180Y0081632D01*
X0181213Y0081667D01*
X0181242Y0081705D01*
X0181269Y0081745D01*
X0181292Y0081787D01*
X0181312Y0081830D01*
X0181329Y0081875D01*
X0181342Y0081921D01*
X0181351Y0081968D01*
X0181357Y0082016D01*
X0181359Y0082064D01*
X0181357Y0082112D01*
X0181351Y0082160D01*
X0181342Y0082207D01*
X0181329Y0082253D01*
X0181312Y0082298D01*
X0181292Y0082341D01*
X0181269Y0082383D01*
X0181242Y0082423D01*
X0181213Y0082461D01*
X0181180Y0082496D01*
X0181145Y0082529D01*
X0181107Y0082558D01*
X0181067Y0082585D01*
X0181025Y0082608D01*
X0180982Y0082628D01*
X0180937Y0082645D01*
X0180891Y0082658D01*
X0180844Y0082667D01*
X0180796Y0082673D01*
X0180748Y0082675D01*
X0180871Y0082675D02*
X0180382Y0082675D01*
X0180871Y0082675D02*
X0180914Y0082677D01*
X0180956Y0082682D01*
X0180998Y0082692D01*
X0181038Y0082704D01*
X0181078Y0082721D01*
X0181116Y0082741D01*
X0181151Y0082763D01*
X0181185Y0082789D01*
X0181217Y0082818D01*
X0181246Y0082850D01*
X0181272Y0082884D01*
X0181294Y0082920D01*
X0181314Y0082957D01*
X0181331Y0082997D01*
X0181343Y0083037D01*
X0181353Y0083079D01*
X0181358Y0083121D01*
X0181360Y0083164D01*
X0181358Y0083207D01*
X0181353Y0083249D01*
X0181343Y0083291D01*
X0181331Y0083331D01*
X0181314Y0083371D01*
X0181294Y0083409D01*
X0181272Y0083444D01*
X0181246Y0083478D01*
X0181217Y0083510D01*
X0181185Y0083539D01*
X0181151Y0083565D01*
X0181116Y0083587D01*
X0181078Y0083607D01*
X0181038Y0083624D01*
X0180998Y0083636D01*
X0180956Y0083646D01*
X0180914Y0083651D01*
X0180871Y0083653D01*
X0180137Y0083653D01*
X0182175Y0083653D02*
X0182908Y0081453D01*
X0183642Y0083653D01*
X0179298Y0081575D02*
X0179298Y0081453D01*
X0179175Y0081453D01*
X0179175Y0081575D01*
X0179298Y0081575D01*
X0177724Y0081453D02*
X0177113Y0081453D01*
X0177724Y0081453D02*
X0177772Y0081455D01*
X0177820Y0081461D01*
X0177867Y0081470D01*
X0177913Y0081483D01*
X0177958Y0081500D01*
X0178001Y0081520D01*
X0178043Y0081543D01*
X0178083Y0081570D01*
X0178121Y0081599D01*
X0178156Y0081632D01*
X0178189Y0081667D01*
X0178218Y0081705D01*
X0178245Y0081745D01*
X0178268Y0081787D01*
X0178288Y0081830D01*
X0178305Y0081875D01*
X0178318Y0081921D01*
X0178327Y0081968D01*
X0178333Y0082016D01*
X0178335Y0082064D01*
X0178333Y0082112D01*
X0178327Y0082160D01*
X0178318Y0082207D01*
X0178305Y0082253D01*
X0178288Y0082298D01*
X0178268Y0082341D01*
X0178245Y0082383D01*
X0178218Y0082423D01*
X0178189Y0082461D01*
X0178156Y0082496D01*
X0178121Y0082529D01*
X0178083Y0082558D01*
X0178043Y0082585D01*
X0178001Y0082608D01*
X0177958Y0082628D01*
X0177913Y0082645D01*
X0177867Y0082658D01*
X0177820Y0082667D01*
X0177772Y0082673D01*
X0177724Y0082675D01*
X0177847Y0082675D02*
X0177358Y0082675D01*
X0177847Y0082675D02*
X0177890Y0082677D01*
X0177932Y0082682D01*
X0177974Y0082692D01*
X0178014Y0082704D01*
X0178054Y0082721D01*
X0178092Y0082741D01*
X0178127Y0082763D01*
X0178161Y0082789D01*
X0178193Y0082818D01*
X0178222Y0082850D01*
X0178248Y0082884D01*
X0178270Y0082920D01*
X0178290Y0082957D01*
X0178307Y0082997D01*
X0178319Y0083037D01*
X0178329Y0083079D01*
X0178334Y0083121D01*
X0178336Y0083164D01*
X0178334Y0083207D01*
X0178329Y0083249D01*
X0178319Y0083291D01*
X0178307Y0083331D01*
X0178290Y0083371D01*
X0178270Y0083409D01*
X0178248Y0083444D01*
X0178222Y0083478D01*
X0178193Y0083510D01*
X0178161Y0083539D01*
X0178127Y0083565D01*
X0178092Y0083587D01*
X0178054Y0083607D01*
X0178014Y0083624D01*
X0177974Y0083636D01*
X0177932Y0083646D01*
X0177890Y0083651D01*
X0177847Y0083653D01*
X0177113Y0083653D01*
X0177210Y0091979D02*
X0177943Y0094179D01*
X0178831Y0094179D02*
X0178831Y0092590D01*
X0178833Y0092542D01*
X0178839Y0092494D01*
X0178848Y0092447D01*
X0178861Y0092401D01*
X0178878Y0092356D01*
X0178898Y0092313D01*
X0178921Y0092271D01*
X0178948Y0092231D01*
X0178977Y0092193D01*
X0179010Y0092158D01*
X0179045Y0092125D01*
X0179083Y0092096D01*
X0179123Y0092069D01*
X0179165Y0092046D01*
X0179208Y0092026D01*
X0179253Y0092009D01*
X0179299Y0091996D01*
X0179346Y0091987D01*
X0179394Y0091981D01*
X0179442Y0091979D01*
X0179490Y0091981D01*
X0179538Y0091987D01*
X0179585Y0091996D01*
X0179631Y0092009D01*
X0179676Y0092026D01*
X0179719Y0092046D01*
X0179761Y0092069D01*
X0179801Y0092096D01*
X0179839Y0092125D01*
X0179874Y0092158D01*
X0179907Y0092193D01*
X0179936Y0092231D01*
X0179963Y0092271D01*
X0179986Y0092313D01*
X0180006Y0092356D01*
X0180023Y0092401D01*
X0180036Y0092447D01*
X0180045Y0092494D01*
X0180051Y0092542D01*
X0180053Y0092590D01*
X0180053Y0094179D01*
X0181296Y0093262D02*
X0181968Y0092895D01*
X0181724Y0091979D02*
X0181661Y0091981D01*
X0181599Y0091987D01*
X0181537Y0091996D01*
X0181476Y0092009D01*
X0181415Y0092026D01*
X0181356Y0092047D01*
X0181298Y0092071D01*
X0181242Y0092099D01*
X0181187Y0092130D01*
X0181134Y0092164D01*
X0181084Y0092201D01*
X0181036Y0092241D01*
X0180991Y0092285D01*
X0181968Y0092896D02*
X0182004Y0092873D01*
X0182038Y0092846D01*
X0182070Y0092817D01*
X0182099Y0092785D01*
X0182125Y0092751D01*
X0182148Y0092715D01*
X0182167Y0092676D01*
X0182184Y0092637D01*
X0182196Y0092596D01*
X0182206Y0092554D01*
X0182211Y0092511D01*
X0182213Y0092468D01*
X0182211Y0092425D01*
X0182206Y0092383D01*
X0182196Y0092341D01*
X0182184Y0092301D01*
X0182167Y0092261D01*
X0182147Y0092224D01*
X0182125Y0092188D01*
X0182099Y0092154D01*
X0182070Y0092122D01*
X0182038Y0092093D01*
X0182004Y0092067D01*
X0181969Y0092045D01*
X0181931Y0092025D01*
X0181891Y0092008D01*
X0181851Y0091996D01*
X0181809Y0091986D01*
X0181767Y0091981D01*
X0181724Y0091979D01*
X0182091Y0093996D02*
X0182043Y0094029D01*
X0181992Y0094060D01*
X0181940Y0094088D01*
X0181886Y0094111D01*
X0181831Y0094132D01*
X0181774Y0094149D01*
X0181717Y0094162D01*
X0181659Y0094171D01*
X0181600Y0094177D01*
X0181541Y0094179D01*
X0181498Y0094177D01*
X0181456Y0094172D01*
X0181414Y0094162D01*
X0181374Y0094150D01*
X0181334Y0094133D01*
X0181297Y0094113D01*
X0181261Y0094091D01*
X0181227Y0094065D01*
X0181195Y0094036D01*
X0181166Y0094004D01*
X0181140Y0093970D01*
X0181118Y0093935D01*
X0181098Y0093897D01*
X0181081Y0093857D01*
X0181069Y0093817D01*
X0181059Y0093775D01*
X0181054Y0093733D01*
X0181052Y0093690D01*
X0181051Y0093690D02*
X0181053Y0093647D01*
X0181058Y0093604D01*
X0181068Y0093562D01*
X0181080Y0093521D01*
X0181097Y0093482D01*
X0181116Y0093443D01*
X0181139Y0093407D01*
X0181165Y0093373D01*
X0181194Y0093341D01*
X0181226Y0093312D01*
X0181260Y0093285D01*
X0181296Y0093262D01*
X0183183Y0093201D02*
X0183794Y0093201D01*
X0183837Y0093203D01*
X0183879Y0093208D01*
X0183921Y0093218D01*
X0183961Y0093230D01*
X0184001Y0093247D01*
X0184039Y0093267D01*
X0184074Y0093289D01*
X0184108Y0093315D01*
X0184140Y0093344D01*
X0184169Y0093376D01*
X0184195Y0093410D01*
X0184217Y0093446D01*
X0184237Y0093483D01*
X0184254Y0093523D01*
X0184266Y0093563D01*
X0184276Y0093605D01*
X0184281Y0093647D01*
X0184283Y0093690D01*
X0184281Y0093733D01*
X0184276Y0093775D01*
X0184266Y0093817D01*
X0184254Y0093857D01*
X0184237Y0093897D01*
X0184217Y0093935D01*
X0184195Y0093970D01*
X0184169Y0094004D01*
X0184140Y0094036D01*
X0184108Y0094065D01*
X0184074Y0094091D01*
X0184039Y0094113D01*
X0184001Y0094133D01*
X0183961Y0094150D01*
X0183921Y0094162D01*
X0183879Y0094172D01*
X0183837Y0094177D01*
X0183794Y0094179D01*
X0183183Y0094179D01*
X0183183Y0091979D01*
X0183794Y0091979D01*
X0183842Y0091981D01*
X0183890Y0091987D01*
X0183937Y0091996D01*
X0183983Y0092009D01*
X0184028Y0092026D01*
X0184071Y0092046D01*
X0184113Y0092069D01*
X0184153Y0092096D01*
X0184191Y0092125D01*
X0184226Y0092158D01*
X0184259Y0092193D01*
X0184288Y0092231D01*
X0184315Y0092271D01*
X0184338Y0092313D01*
X0184358Y0092356D01*
X0184375Y0092401D01*
X0184388Y0092447D01*
X0184397Y0092494D01*
X0184403Y0092542D01*
X0184405Y0092590D01*
X0184403Y0092638D01*
X0184397Y0092686D01*
X0184388Y0092733D01*
X0184375Y0092779D01*
X0184358Y0092824D01*
X0184338Y0092867D01*
X0184315Y0092909D01*
X0184288Y0092949D01*
X0184259Y0092987D01*
X0184226Y0093022D01*
X0184191Y0093055D01*
X0184153Y0093084D01*
X0184113Y0093111D01*
X0184071Y0093134D01*
X0184028Y0093154D01*
X0183983Y0093171D01*
X0183937Y0093184D01*
X0183890Y0093193D01*
X0183842Y0093199D01*
X0183794Y0093201D01*
X0182432Y0101668D02*
X0181821Y0101668D01*
X0181821Y0103868D01*
X0182432Y0103868D01*
X0182480Y0103866D01*
X0182528Y0103860D01*
X0182575Y0103851D01*
X0182621Y0103838D01*
X0182666Y0103821D01*
X0182709Y0103801D01*
X0182751Y0103778D01*
X0182791Y0103751D01*
X0182829Y0103722D01*
X0182864Y0103689D01*
X0182897Y0103654D01*
X0182926Y0103616D01*
X0182953Y0103576D01*
X0182976Y0103534D01*
X0182996Y0103491D01*
X0183013Y0103446D01*
X0183026Y0103400D01*
X0183035Y0103353D01*
X0183041Y0103305D01*
X0183043Y0103257D01*
X0183044Y0103257D02*
X0183044Y0102279D01*
X0183043Y0102279D02*
X0183041Y0102231D01*
X0183035Y0102183D01*
X0183026Y0102136D01*
X0183013Y0102090D01*
X0182996Y0102045D01*
X0182976Y0102002D01*
X0182953Y0101960D01*
X0182926Y0101920D01*
X0182897Y0101882D01*
X0182864Y0101847D01*
X0182829Y0101814D01*
X0182791Y0101785D01*
X0182751Y0101758D01*
X0182709Y0101735D01*
X0182666Y0101715D01*
X0182621Y0101698D01*
X0182575Y0101685D01*
X0182528Y0101676D01*
X0182480Y0101670D01*
X0182432Y0101668D01*
X0180740Y0101668D02*
X0180740Y0103868D01*
X0179517Y0103868D02*
X0180740Y0101668D01*
X0179517Y0101668D02*
X0179517Y0103868D01*
X0178436Y0103868D02*
X0177702Y0103868D01*
X0177659Y0103866D01*
X0177617Y0103861D01*
X0177575Y0103851D01*
X0177535Y0103839D01*
X0177495Y0103822D01*
X0177457Y0103802D01*
X0177422Y0103780D01*
X0177388Y0103754D01*
X0177356Y0103725D01*
X0177327Y0103693D01*
X0177301Y0103659D01*
X0177279Y0103623D01*
X0177259Y0103586D01*
X0177242Y0103546D01*
X0177230Y0103506D01*
X0177220Y0103464D01*
X0177215Y0103422D01*
X0177213Y0103379D01*
X0177213Y0102157D01*
X0177215Y0102114D01*
X0177220Y0102072D01*
X0177230Y0102030D01*
X0177242Y0101990D01*
X0177259Y0101950D01*
X0177279Y0101913D01*
X0177301Y0101877D01*
X0177327Y0101843D01*
X0177356Y0101811D01*
X0177388Y0101782D01*
X0177422Y0101756D01*
X0177458Y0101734D01*
X0177495Y0101714D01*
X0177535Y0101697D01*
X0177575Y0101685D01*
X0177617Y0101675D01*
X0177659Y0101670D01*
X0177702Y0101668D01*
X0178436Y0101668D01*
X0178436Y0102890D01*
X0178069Y0102890D01*
X0176476Y0094179D02*
X0177210Y0091979D01*
X0177945Y0122878D02*
X0178678Y0122878D01*
X0178678Y0124100D01*
X0178311Y0124100D01*
X0177456Y0124589D02*
X0177458Y0124632D01*
X0177463Y0124674D01*
X0177473Y0124716D01*
X0177485Y0124756D01*
X0177502Y0124796D01*
X0177522Y0124833D01*
X0177544Y0124869D01*
X0177570Y0124903D01*
X0177599Y0124935D01*
X0177631Y0124964D01*
X0177665Y0124990D01*
X0177700Y0125012D01*
X0177738Y0125032D01*
X0177778Y0125049D01*
X0177818Y0125061D01*
X0177860Y0125071D01*
X0177902Y0125076D01*
X0177945Y0125078D01*
X0178678Y0125078D01*
X0179760Y0125078D02*
X0180982Y0122878D01*
X0180982Y0125078D01*
X0182064Y0125078D02*
X0182064Y0122878D01*
X0182675Y0122878D01*
X0182723Y0122880D01*
X0182771Y0122886D01*
X0182818Y0122895D01*
X0182864Y0122908D01*
X0182909Y0122925D01*
X0182952Y0122945D01*
X0182994Y0122968D01*
X0183034Y0122995D01*
X0183072Y0123024D01*
X0183107Y0123057D01*
X0183140Y0123092D01*
X0183169Y0123130D01*
X0183196Y0123170D01*
X0183219Y0123212D01*
X0183239Y0123255D01*
X0183256Y0123300D01*
X0183269Y0123346D01*
X0183278Y0123393D01*
X0183284Y0123441D01*
X0183286Y0123489D01*
X0183286Y0124467D01*
X0183284Y0124515D01*
X0183278Y0124563D01*
X0183269Y0124610D01*
X0183256Y0124656D01*
X0183239Y0124701D01*
X0183219Y0124744D01*
X0183196Y0124786D01*
X0183169Y0124826D01*
X0183140Y0124864D01*
X0183107Y0124899D01*
X0183072Y0124932D01*
X0183034Y0124961D01*
X0182994Y0124988D01*
X0182952Y0125011D01*
X0182909Y0125031D01*
X0182864Y0125048D01*
X0182818Y0125061D01*
X0182771Y0125070D01*
X0182723Y0125076D01*
X0182675Y0125078D01*
X0182064Y0125078D01*
X0179760Y0125078D02*
X0179760Y0122878D01*
X0177945Y0122878D02*
X0177902Y0122880D01*
X0177860Y0122885D01*
X0177818Y0122895D01*
X0177778Y0122907D01*
X0177738Y0122924D01*
X0177701Y0122944D01*
X0177665Y0122966D01*
X0177631Y0122992D01*
X0177599Y0123021D01*
X0177570Y0123053D01*
X0177544Y0123087D01*
X0177522Y0123123D01*
X0177502Y0123160D01*
X0177485Y0123200D01*
X0177473Y0123240D01*
X0177463Y0123282D01*
X0177458Y0123324D01*
X0177456Y0123367D01*
X0177456Y0124589D01*
X0178761Y0133001D02*
X0178761Y0135201D01*
X0179372Y0135201D01*
X0179420Y0135199D01*
X0179468Y0135193D01*
X0179515Y0135184D01*
X0179561Y0135171D01*
X0179606Y0135154D01*
X0179649Y0135134D01*
X0179691Y0135111D01*
X0179731Y0135084D01*
X0179769Y0135055D01*
X0179804Y0135022D01*
X0179837Y0134987D01*
X0179866Y0134949D01*
X0179893Y0134909D01*
X0179916Y0134867D01*
X0179936Y0134824D01*
X0179953Y0134779D01*
X0179966Y0134733D01*
X0179975Y0134686D01*
X0179981Y0134638D01*
X0179983Y0134590D01*
X0179981Y0134542D01*
X0179975Y0134494D01*
X0179966Y0134447D01*
X0179953Y0134401D01*
X0179936Y0134356D01*
X0179916Y0134313D01*
X0179893Y0134271D01*
X0179866Y0134231D01*
X0179837Y0134193D01*
X0179804Y0134158D01*
X0179769Y0134125D01*
X0179731Y0134096D01*
X0179691Y0134069D01*
X0179649Y0134046D01*
X0179606Y0134026D01*
X0179561Y0134009D01*
X0179515Y0133996D01*
X0179468Y0133987D01*
X0179420Y0133981D01*
X0179372Y0133979D01*
X0178761Y0133979D01*
X0177546Y0133917D02*
X0176874Y0134284D01*
X0177118Y0135201D02*
X0177177Y0135199D01*
X0177236Y0135193D01*
X0177294Y0135184D01*
X0177351Y0135171D01*
X0177408Y0135154D01*
X0177463Y0135133D01*
X0177517Y0135110D01*
X0177569Y0135082D01*
X0177620Y0135051D01*
X0177668Y0135018D01*
X0176874Y0134284D02*
X0176838Y0134307D01*
X0176804Y0134334D01*
X0176772Y0134363D01*
X0176743Y0134395D01*
X0176717Y0134429D01*
X0176694Y0134465D01*
X0176675Y0134504D01*
X0176658Y0134543D01*
X0176646Y0134584D01*
X0176636Y0134626D01*
X0176631Y0134669D01*
X0176629Y0134712D01*
X0176631Y0134755D01*
X0176636Y0134797D01*
X0176646Y0134839D01*
X0176658Y0134879D01*
X0176675Y0134919D01*
X0176695Y0134957D01*
X0176717Y0134992D01*
X0176743Y0135026D01*
X0176772Y0135058D01*
X0176804Y0135087D01*
X0176838Y0135113D01*
X0176874Y0135135D01*
X0176911Y0135155D01*
X0176951Y0135172D01*
X0176991Y0135184D01*
X0177033Y0135194D01*
X0177075Y0135199D01*
X0177118Y0135201D01*
X0176569Y0133307D02*
X0176614Y0133263D01*
X0176662Y0133223D01*
X0176712Y0133186D01*
X0176765Y0133152D01*
X0176820Y0133121D01*
X0176876Y0133093D01*
X0176934Y0133069D01*
X0176993Y0133048D01*
X0177054Y0133031D01*
X0177115Y0133018D01*
X0177177Y0133009D01*
X0177239Y0133003D01*
X0177302Y0133001D01*
X0177345Y0133003D01*
X0177387Y0133008D01*
X0177429Y0133018D01*
X0177469Y0133030D01*
X0177509Y0133047D01*
X0177547Y0133067D01*
X0177582Y0133089D01*
X0177616Y0133115D01*
X0177648Y0133144D01*
X0177677Y0133176D01*
X0177703Y0133210D01*
X0177725Y0133246D01*
X0177745Y0133283D01*
X0177762Y0133323D01*
X0177774Y0133363D01*
X0177784Y0133405D01*
X0177789Y0133447D01*
X0177791Y0133490D01*
X0177789Y0133533D01*
X0177784Y0133576D01*
X0177774Y0133618D01*
X0177762Y0133659D01*
X0177745Y0133698D01*
X0177726Y0133737D01*
X0177703Y0133773D01*
X0177677Y0133807D01*
X0177648Y0133839D01*
X0177616Y0133868D01*
X0177582Y0133895D01*
X0177546Y0133918D01*
X0175823Y0133001D02*
X0174845Y0133001D01*
X0174845Y0135201D01*
X0175823Y0135201D01*
X0175578Y0134223D02*
X0174845Y0134223D01*
X0173924Y0132756D02*
X0172947Y0132756D01*
X0172225Y0133001D02*
X0170758Y0135201D01*
X0169346Y0135201D02*
X0168735Y0135201D01*
X0168735Y0133001D01*
X0168735Y0133979D02*
X0169346Y0133979D01*
X0169468Y0133979D02*
X0169957Y0133001D01*
X0170758Y0133001D02*
X0172225Y0135201D01*
X0169346Y0135201D02*
X0169394Y0135199D01*
X0169442Y0135193D01*
X0169489Y0135184D01*
X0169535Y0135171D01*
X0169580Y0135154D01*
X0169623Y0135134D01*
X0169665Y0135111D01*
X0169705Y0135084D01*
X0169743Y0135055D01*
X0169778Y0135022D01*
X0169811Y0134987D01*
X0169840Y0134949D01*
X0169867Y0134909D01*
X0169890Y0134867D01*
X0169910Y0134824D01*
X0169927Y0134779D01*
X0169940Y0134733D01*
X0169949Y0134686D01*
X0169955Y0134638D01*
X0169957Y0134590D01*
X0169955Y0134542D01*
X0169949Y0134494D01*
X0169940Y0134447D01*
X0169927Y0134401D01*
X0169910Y0134356D01*
X0169890Y0134313D01*
X0169867Y0134271D01*
X0169840Y0134231D01*
X0169811Y0134193D01*
X0169778Y0134158D01*
X0169743Y0134125D01*
X0169705Y0134096D01*
X0169665Y0134069D01*
X0169623Y0134046D01*
X0169580Y0134026D01*
X0169535Y0134009D01*
X0169489Y0133996D01*
X0169442Y0133987D01*
X0169394Y0133981D01*
X0169346Y0133979D01*
X0169809Y0143016D02*
X0169809Y0145216D01*
X0169198Y0145216D02*
X0170420Y0145216D01*
X0171091Y0145216D02*
X0172558Y0143016D01*
X0173280Y0142771D02*
X0174258Y0142771D01*
X0175178Y0143016D02*
X0175178Y0145216D01*
X0176156Y0145216D01*
X0175911Y0144238D02*
X0175178Y0144238D01*
X0175178Y0143016D02*
X0176156Y0143016D01*
X0177879Y0143933D02*
X0177915Y0143910D01*
X0177949Y0143883D01*
X0177981Y0143854D01*
X0178010Y0143822D01*
X0178036Y0143788D01*
X0178059Y0143752D01*
X0178078Y0143713D01*
X0178095Y0143674D01*
X0178107Y0143633D01*
X0178117Y0143591D01*
X0178122Y0143548D01*
X0178124Y0143505D01*
X0178122Y0143462D01*
X0178117Y0143420D01*
X0178107Y0143378D01*
X0178095Y0143338D01*
X0178078Y0143298D01*
X0178058Y0143261D01*
X0178036Y0143225D01*
X0178010Y0143191D01*
X0177981Y0143159D01*
X0177949Y0143130D01*
X0177915Y0143104D01*
X0177880Y0143082D01*
X0177842Y0143062D01*
X0177802Y0143045D01*
X0177762Y0143033D01*
X0177720Y0143023D01*
X0177678Y0143018D01*
X0177635Y0143016D01*
X0177879Y0143932D02*
X0177207Y0144299D01*
X0177452Y0145216D02*
X0177511Y0145214D01*
X0177570Y0145208D01*
X0177628Y0145199D01*
X0177685Y0145186D01*
X0177742Y0145169D01*
X0177797Y0145148D01*
X0177851Y0145125D01*
X0177903Y0145097D01*
X0177954Y0145066D01*
X0178002Y0145033D01*
X0177207Y0144299D02*
X0177171Y0144322D01*
X0177137Y0144349D01*
X0177105Y0144378D01*
X0177076Y0144410D01*
X0177050Y0144444D01*
X0177027Y0144480D01*
X0177008Y0144519D01*
X0176991Y0144558D01*
X0176979Y0144599D01*
X0176969Y0144641D01*
X0176964Y0144684D01*
X0176962Y0144727D01*
X0176963Y0144727D02*
X0176965Y0144770D01*
X0176970Y0144812D01*
X0176980Y0144854D01*
X0176992Y0144894D01*
X0177009Y0144934D01*
X0177029Y0144972D01*
X0177051Y0145007D01*
X0177077Y0145041D01*
X0177106Y0145073D01*
X0177138Y0145102D01*
X0177172Y0145128D01*
X0177208Y0145150D01*
X0177245Y0145170D01*
X0177285Y0145187D01*
X0177325Y0145199D01*
X0177367Y0145209D01*
X0177409Y0145214D01*
X0177452Y0145216D01*
X0176902Y0143322D02*
X0176947Y0143278D01*
X0176995Y0143238D01*
X0177045Y0143201D01*
X0177098Y0143167D01*
X0177153Y0143136D01*
X0177209Y0143108D01*
X0177267Y0143084D01*
X0177326Y0143063D01*
X0177387Y0143046D01*
X0177448Y0143033D01*
X0177510Y0143024D01*
X0177572Y0143018D01*
X0177635Y0143016D01*
X0179094Y0143016D02*
X0179094Y0145216D01*
X0179705Y0145216D01*
X0179753Y0145214D01*
X0179801Y0145208D01*
X0179848Y0145199D01*
X0179894Y0145186D01*
X0179939Y0145169D01*
X0179982Y0145149D01*
X0180024Y0145126D01*
X0180064Y0145099D01*
X0180102Y0145070D01*
X0180137Y0145037D01*
X0180170Y0145002D01*
X0180199Y0144964D01*
X0180226Y0144924D01*
X0180249Y0144882D01*
X0180269Y0144839D01*
X0180286Y0144794D01*
X0180299Y0144748D01*
X0180308Y0144701D01*
X0180314Y0144653D01*
X0180316Y0144605D01*
X0180314Y0144557D01*
X0180308Y0144509D01*
X0180299Y0144462D01*
X0180286Y0144416D01*
X0180269Y0144371D01*
X0180249Y0144328D01*
X0180226Y0144286D01*
X0180199Y0144246D01*
X0180170Y0144208D01*
X0180137Y0144173D01*
X0180102Y0144140D01*
X0180064Y0144111D01*
X0180024Y0144084D01*
X0179982Y0144061D01*
X0179939Y0144041D01*
X0179894Y0144024D01*
X0179848Y0144011D01*
X0179801Y0144002D01*
X0179753Y0143996D01*
X0179705Y0143994D01*
X0179094Y0143994D01*
X0181150Y0143016D02*
X0181761Y0143016D01*
X0181809Y0143018D01*
X0181857Y0143024D01*
X0181904Y0143033D01*
X0181950Y0143046D01*
X0181995Y0143063D01*
X0182038Y0143083D01*
X0182080Y0143106D01*
X0182120Y0143133D01*
X0182158Y0143162D01*
X0182193Y0143195D01*
X0182226Y0143230D01*
X0182255Y0143268D01*
X0182282Y0143308D01*
X0182305Y0143350D01*
X0182325Y0143393D01*
X0182342Y0143438D01*
X0182355Y0143484D01*
X0182364Y0143531D01*
X0182370Y0143579D01*
X0182372Y0143627D01*
X0182370Y0143675D01*
X0182364Y0143723D01*
X0182355Y0143770D01*
X0182342Y0143816D01*
X0182325Y0143861D01*
X0182305Y0143904D01*
X0182282Y0143946D01*
X0182255Y0143986D01*
X0182226Y0144024D01*
X0182193Y0144059D01*
X0182158Y0144092D01*
X0182120Y0144121D01*
X0182080Y0144148D01*
X0182038Y0144171D01*
X0181995Y0144191D01*
X0181950Y0144208D01*
X0181904Y0144221D01*
X0181857Y0144230D01*
X0181809Y0144236D01*
X0181761Y0144238D01*
X0181883Y0144238D02*
X0181394Y0144238D01*
X0181883Y0144238D02*
X0181926Y0144240D01*
X0181968Y0144245D01*
X0182010Y0144255D01*
X0182050Y0144267D01*
X0182090Y0144284D01*
X0182128Y0144304D01*
X0182163Y0144326D01*
X0182197Y0144352D01*
X0182229Y0144381D01*
X0182258Y0144413D01*
X0182284Y0144447D01*
X0182306Y0144483D01*
X0182326Y0144520D01*
X0182343Y0144560D01*
X0182355Y0144600D01*
X0182365Y0144642D01*
X0182370Y0144684D01*
X0182372Y0144727D01*
X0182370Y0144770D01*
X0182365Y0144812D01*
X0182355Y0144854D01*
X0182343Y0144894D01*
X0182326Y0144934D01*
X0182306Y0144972D01*
X0182284Y0145007D01*
X0182258Y0145041D01*
X0182229Y0145073D01*
X0182197Y0145102D01*
X0182163Y0145128D01*
X0182128Y0145150D01*
X0182090Y0145170D01*
X0182050Y0145187D01*
X0182010Y0145199D01*
X0181968Y0145209D01*
X0181926Y0145214D01*
X0181883Y0145216D01*
X0181150Y0145216D01*
X0183310Y0143016D02*
X0184532Y0143016D01*
X0183310Y0143016D02*
X0184348Y0144238D01*
X0183982Y0145216D02*
X0183930Y0145214D01*
X0183878Y0145208D01*
X0183826Y0145199D01*
X0183776Y0145185D01*
X0183726Y0145168D01*
X0183678Y0145147D01*
X0183632Y0145123D01*
X0183588Y0145096D01*
X0183545Y0145065D01*
X0183505Y0145031D01*
X0183468Y0144995D01*
X0183434Y0144955D01*
X0183402Y0144913D01*
X0183374Y0144870D01*
X0183349Y0144824D01*
X0183327Y0144776D01*
X0183309Y0144727D01*
X0184349Y0144238D02*
X0184382Y0144272D01*
X0184412Y0144309D01*
X0184440Y0144349D01*
X0184464Y0144390D01*
X0184484Y0144433D01*
X0184501Y0144478D01*
X0184515Y0144524D01*
X0184524Y0144571D01*
X0184530Y0144618D01*
X0184532Y0144666D01*
X0184530Y0144711D01*
X0184524Y0144757D01*
X0184515Y0144801D01*
X0184502Y0144845D01*
X0184486Y0144887D01*
X0184466Y0144928D01*
X0184442Y0144967D01*
X0184416Y0145004D01*
X0184387Y0145039D01*
X0184355Y0145071D01*
X0184320Y0145100D01*
X0184283Y0145126D01*
X0184244Y0145150D01*
X0184203Y0145170D01*
X0184161Y0145186D01*
X0184117Y0145199D01*
X0184073Y0145208D01*
X0184027Y0145214D01*
X0183982Y0145216D01*
X0181550Y0135201D02*
X0180816Y0135201D01*
X0181550Y0135201D02*
X0181593Y0135199D01*
X0181635Y0135194D01*
X0181677Y0135184D01*
X0181717Y0135172D01*
X0181757Y0135155D01*
X0181795Y0135135D01*
X0181830Y0135113D01*
X0181864Y0135087D01*
X0181896Y0135058D01*
X0181925Y0135026D01*
X0181951Y0134992D01*
X0181973Y0134957D01*
X0181993Y0134919D01*
X0182010Y0134879D01*
X0182022Y0134839D01*
X0182032Y0134797D01*
X0182037Y0134755D01*
X0182039Y0134712D01*
X0182037Y0134669D01*
X0182032Y0134627D01*
X0182022Y0134585D01*
X0182010Y0134545D01*
X0181993Y0134505D01*
X0181973Y0134468D01*
X0181951Y0134432D01*
X0181925Y0134398D01*
X0181896Y0134366D01*
X0181864Y0134337D01*
X0181830Y0134311D01*
X0181795Y0134289D01*
X0181757Y0134269D01*
X0181717Y0134252D01*
X0181677Y0134240D01*
X0181635Y0134230D01*
X0181593Y0134225D01*
X0181550Y0134223D01*
X0181061Y0134223D01*
X0181427Y0134223D02*
X0181475Y0134221D01*
X0181523Y0134215D01*
X0181570Y0134206D01*
X0181616Y0134193D01*
X0181661Y0134176D01*
X0181704Y0134156D01*
X0181746Y0134133D01*
X0181786Y0134106D01*
X0181824Y0134077D01*
X0181859Y0134044D01*
X0181892Y0134009D01*
X0181921Y0133971D01*
X0181948Y0133931D01*
X0181971Y0133889D01*
X0181991Y0133846D01*
X0182008Y0133801D01*
X0182021Y0133755D01*
X0182030Y0133708D01*
X0182036Y0133660D01*
X0182038Y0133612D01*
X0182036Y0133564D01*
X0182030Y0133516D01*
X0182021Y0133469D01*
X0182008Y0133423D01*
X0181991Y0133378D01*
X0181971Y0133335D01*
X0181948Y0133293D01*
X0181921Y0133253D01*
X0181892Y0133215D01*
X0181859Y0133180D01*
X0181824Y0133147D01*
X0181786Y0133118D01*
X0181746Y0133091D01*
X0181704Y0133068D01*
X0181661Y0133048D01*
X0181616Y0133031D01*
X0181570Y0133018D01*
X0181523Y0133009D01*
X0181475Y0133003D01*
X0181427Y0133001D01*
X0180816Y0133001D01*
X0182976Y0133001D02*
X0184199Y0133001D01*
X0182976Y0133001D02*
X0184015Y0134223D01*
X0183649Y0135201D02*
X0183597Y0135199D01*
X0183545Y0135193D01*
X0183493Y0135184D01*
X0183443Y0135170D01*
X0183393Y0135153D01*
X0183345Y0135132D01*
X0183299Y0135108D01*
X0183255Y0135081D01*
X0183212Y0135050D01*
X0183172Y0135016D01*
X0183135Y0134980D01*
X0183101Y0134940D01*
X0183069Y0134898D01*
X0183041Y0134855D01*
X0183016Y0134809D01*
X0182994Y0134761D01*
X0182976Y0134712D01*
X0184016Y0134223D02*
X0184049Y0134257D01*
X0184079Y0134294D01*
X0184107Y0134334D01*
X0184131Y0134375D01*
X0184151Y0134418D01*
X0184168Y0134463D01*
X0184182Y0134509D01*
X0184191Y0134556D01*
X0184197Y0134603D01*
X0184199Y0134651D01*
X0184197Y0134696D01*
X0184191Y0134742D01*
X0184182Y0134786D01*
X0184169Y0134830D01*
X0184153Y0134872D01*
X0184133Y0134913D01*
X0184109Y0134952D01*
X0184083Y0134989D01*
X0184054Y0135024D01*
X0184022Y0135056D01*
X0183987Y0135085D01*
X0183950Y0135111D01*
X0183911Y0135135D01*
X0183870Y0135155D01*
X0183828Y0135171D01*
X0183784Y0135184D01*
X0183740Y0135193D01*
X0183694Y0135199D01*
X0183649Y0135201D01*
X0171091Y0143016D02*
X0172558Y0145216D01*
X0174635Y0162346D02*
X0174635Y0164546D01*
X0175246Y0164546D01*
X0175294Y0164544D01*
X0175342Y0164538D01*
X0175389Y0164529D01*
X0175435Y0164516D01*
X0175480Y0164499D01*
X0175523Y0164479D01*
X0175565Y0164456D01*
X0175605Y0164429D01*
X0175643Y0164400D01*
X0175678Y0164367D01*
X0175711Y0164332D01*
X0175740Y0164294D01*
X0175767Y0164254D01*
X0175790Y0164212D01*
X0175810Y0164169D01*
X0175827Y0164124D01*
X0175840Y0164078D01*
X0175849Y0164031D01*
X0175855Y0163983D01*
X0175857Y0163935D01*
X0175855Y0163887D01*
X0175849Y0163839D01*
X0175840Y0163792D01*
X0175827Y0163746D01*
X0175810Y0163701D01*
X0175790Y0163658D01*
X0175767Y0163616D01*
X0175740Y0163576D01*
X0175711Y0163538D01*
X0175678Y0163503D01*
X0175643Y0163470D01*
X0175605Y0163441D01*
X0175565Y0163414D01*
X0175523Y0163391D01*
X0175480Y0163371D01*
X0175435Y0163354D01*
X0175389Y0163341D01*
X0175342Y0163332D01*
X0175294Y0163326D01*
X0175246Y0163324D01*
X0175246Y0163323D02*
X0174635Y0163323D01*
X0175368Y0163323D02*
X0175857Y0162346D01*
X0176658Y0162346D02*
X0178125Y0164546D01*
X0176658Y0164546D02*
X0178125Y0162346D01*
X0178847Y0162101D02*
X0179824Y0162101D01*
X0180546Y0162346D02*
X0181280Y0164546D01*
X0182013Y0162346D01*
X0181830Y0162896D02*
X0180730Y0162896D01*
X0182684Y0164546D02*
X0183907Y0164546D01*
X0183296Y0164546D02*
X0183296Y0162346D01*
X0182750Y0171934D02*
X0182750Y0174134D01*
X0182139Y0174134D02*
X0183361Y0174134D01*
X0180734Y0174134D02*
X0181467Y0171934D01*
X0181284Y0172484D02*
X0180184Y0172484D01*
X0180001Y0171934D02*
X0180734Y0174134D01*
X0179279Y0171689D02*
X0178301Y0171689D01*
X0177579Y0171934D02*
X0176113Y0174134D01*
X0175441Y0174134D02*
X0174219Y0174134D01*
X0174830Y0174134D02*
X0174830Y0171934D01*
X0176113Y0171934D02*
X0177579Y0174134D01*
X0058144Y0268728D02*
X0055944Y0268728D01*
X0058144Y0269951D01*
X0055944Y0269951D01*
X0056555Y0270960D02*
X0057533Y0270960D01*
X0057581Y0270962D01*
X0057629Y0270968D01*
X0057676Y0270977D01*
X0057722Y0270990D01*
X0057767Y0271007D01*
X0057810Y0271027D01*
X0057852Y0271050D01*
X0057892Y0271077D01*
X0057930Y0271106D01*
X0057965Y0271139D01*
X0057998Y0271174D01*
X0058027Y0271212D01*
X0058054Y0271252D01*
X0058077Y0271294D01*
X0058097Y0271337D01*
X0058114Y0271382D01*
X0058127Y0271428D01*
X0058136Y0271475D01*
X0058142Y0271523D01*
X0058144Y0271571D01*
X0058142Y0271619D01*
X0058136Y0271667D01*
X0058127Y0271714D01*
X0058114Y0271760D01*
X0058097Y0271805D01*
X0058077Y0271848D01*
X0058054Y0271890D01*
X0058027Y0271930D01*
X0057998Y0271968D01*
X0057965Y0272003D01*
X0057930Y0272036D01*
X0057892Y0272065D01*
X0057852Y0272092D01*
X0057810Y0272115D01*
X0057767Y0272135D01*
X0057722Y0272152D01*
X0057676Y0272165D01*
X0057629Y0272174D01*
X0057581Y0272180D01*
X0057533Y0272182D01*
X0057533Y0272183D02*
X0056555Y0272183D01*
X0056555Y0272182D02*
X0056507Y0272180D01*
X0056459Y0272174D01*
X0056412Y0272165D01*
X0056366Y0272152D01*
X0056321Y0272135D01*
X0056278Y0272115D01*
X0056236Y0272092D01*
X0056196Y0272065D01*
X0056158Y0272036D01*
X0056123Y0272003D01*
X0056090Y0271968D01*
X0056061Y0271930D01*
X0056034Y0271890D01*
X0056011Y0271848D01*
X0055991Y0271805D01*
X0055974Y0271760D01*
X0055961Y0271714D01*
X0055952Y0271667D01*
X0055946Y0271619D01*
X0055944Y0271571D01*
X0055946Y0271523D01*
X0055952Y0271475D01*
X0055961Y0271428D01*
X0055974Y0271382D01*
X0055991Y0271337D01*
X0056011Y0271294D01*
X0056034Y0271252D01*
X0056061Y0271212D01*
X0056090Y0271174D01*
X0056123Y0271139D01*
X0056158Y0271106D01*
X0056196Y0271077D01*
X0056236Y0271050D01*
X0056278Y0271027D01*
X0056321Y0271007D01*
X0056366Y0270990D01*
X0056412Y0270977D01*
X0056459Y0270968D01*
X0056507Y0270962D01*
X0056555Y0270960D01*
X0056433Y0273120D02*
X0055944Y0273731D01*
X0058144Y0273731D01*
X0058144Y0273120D02*
X0058144Y0274343D01*
X0048344Y0274598D02*
X0046144Y0274598D01*
X0046633Y0273987D01*
X0046144Y0272955D02*
X0048344Y0272955D01*
X0048344Y0273987D02*
X0048344Y0275209D01*
X0047366Y0272222D02*
X0046144Y0272955D01*
X0047366Y0272222D02*
X0046144Y0271489D01*
X0048344Y0271489D01*
X0047733Y0270457D02*
X0046755Y0270457D01*
X0046707Y0270455D01*
X0046659Y0270449D01*
X0046612Y0270440D01*
X0046566Y0270427D01*
X0046521Y0270410D01*
X0046478Y0270390D01*
X0046436Y0270367D01*
X0046396Y0270340D01*
X0046358Y0270311D01*
X0046323Y0270278D01*
X0046290Y0270243D01*
X0046261Y0270205D01*
X0046234Y0270165D01*
X0046211Y0270123D01*
X0046191Y0270080D01*
X0046174Y0270035D01*
X0046161Y0269989D01*
X0046152Y0269942D01*
X0046146Y0269894D01*
X0046144Y0269846D01*
X0046146Y0269798D01*
X0046152Y0269750D01*
X0046161Y0269703D01*
X0046174Y0269657D01*
X0046191Y0269612D01*
X0046211Y0269569D01*
X0046234Y0269527D01*
X0046261Y0269487D01*
X0046290Y0269449D01*
X0046323Y0269414D01*
X0046358Y0269381D01*
X0046396Y0269352D01*
X0046436Y0269325D01*
X0046478Y0269302D01*
X0046521Y0269282D01*
X0046566Y0269265D01*
X0046612Y0269252D01*
X0046659Y0269243D01*
X0046707Y0269237D01*
X0046755Y0269235D01*
X0047733Y0269235D01*
X0047781Y0269237D01*
X0047829Y0269243D01*
X0047876Y0269252D01*
X0047922Y0269265D01*
X0047967Y0269282D01*
X0048010Y0269302D01*
X0048052Y0269325D01*
X0048092Y0269352D01*
X0048130Y0269381D01*
X0048165Y0269414D01*
X0048198Y0269449D01*
X0048227Y0269487D01*
X0048254Y0269527D01*
X0048277Y0269569D01*
X0048297Y0269612D01*
X0048314Y0269657D01*
X0048327Y0269703D01*
X0048336Y0269750D01*
X0048342Y0269798D01*
X0048344Y0269846D01*
X0048342Y0269894D01*
X0048336Y0269942D01*
X0048327Y0269989D01*
X0048314Y0270035D01*
X0048297Y0270080D01*
X0048277Y0270123D01*
X0048254Y0270165D01*
X0048227Y0270205D01*
X0048198Y0270243D01*
X0048165Y0270278D01*
X0048130Y0270311D01*
X0048092Y0270340D01*
X0048052Y0270367D01*
X0048010Y0270390D01*
X0047967Y0270410D01*
X0047922Y0270427D01*
X0047876Y0270440D01*
X0047829Y0270449D01*
X0047781Y0270455D01*
X0047733Y0270457D01*
X0048344Y0268406D02*
X0048344Y0267917D01*
X0048342Y0267874D01*
X0048337Y0267832D01*
X0048327Y0267790D01*
X0048315Y0267750D01*
X0048298Y0267710D01*
X0048278Y0267673D01*
X0048256Y0267637D01*
X0048230Y0267603D01*
X0048201Y0267571D01*
X0048169Y0267542D01*
X0048135Y0267516D01*
X0048100Y0267494D01*
X0048062Y0267474D01*
X0048022Y0267457D01*
X0047982Y0267445D01*
X0047940Y0267435D01*
X0047898Y0267430D01*
X0047855Y0267428D01*
X0046633Y0267428D01*
X0046590Y0267430D01*
X0046548Y0267435D01*
X0046506Y0267445D01*
X0046466Y0267457D01*
X0046426Y0267474D01*
X0046389Y0267494D01*
X0046353Y0267516D01*
X0046319Y0267542D01*
X0046287Y0267571D01*
X0046258Y0267603D01*
X0046232Y0267637D01*
X0046210Y0267672D01*
X0046190Y0267710D01*
X0046173Y0267750D01*
X0046161Y0267790D01*
X0046151Y0267832D01*
X0046146Y0267874D01*
X0046144Y0267917D01*
X0046144Y0268406D01*
X0038796Y0269902D02*
X0036596Y0269902D01*
X0038796Y0271125D01*
X0036596Y0271125D01*
X0037085Y0272128D02*
X0038307Y0272128D01*
X0038350Y0272130D01*
X0038392Y0272135D01*
X0038434Y0272145D01*
X0038474Y0272157D01*
X0038514Y0272174D01*
X0038552Y0272194D01*
X0038587Y0272216D01*
X0038621Y0272242D01*
X0038653Y0272271D01*
X0038682Y0272303D01*
X0038708Y0272337D01*
X0038730Y0272373D01*
X0038750Y0272410D01*
X0038767Y0272450D01*
X0038779Y0272490D01*
X0038789Y0272532D01*
X0038794Y0272574D01*
X0038796Y0272617D01*
X0038796Y0273106D01*
X0038796Y0273934D02*
X0038796Y0275157D01*
X0038796Y0274545D02*
X0036596Y0274545D01*
X0037085Y0273934D01*
X0036596Y0273106D02*
X0036596Y0272617D01*
X0036598Y0272574D01*
X0036603Y0272532D01*
X0036613Y0272490D01*
X0036625Y0272450D01*
X0036642Y0272410D01*
X0036662Y0272372D01*
X0036684Y0272337D01*
X0036710Y0272303D01*
X0036739Y0272271D01*
X0036771Y0272242D01*
X0036805Y0272216D01*
X0036841Y0272194D01*
X0036878Y0272174D01*
X0036918Y0272157D01*
X0036958Y0272145D01*
X0037000Y0272135D01*
X0037042Y0272130D01*
X0037085Y0272128D01*
D12*
X0064661Y0279641D02*
X0066917Y0279641D01*
X0066965Y0279639D01*
X0067013Y0279634D01*
X0067060Y0279625D01*
X0067107Y0279612D01*
X0067152Y0279596D01*
X0067196Y0279577D01*
X0067239Y0279555D01*
X0067280Y0279529D01*
X0067319Y0279500D01*
X0067355Y0279469D01*
X0067389Y0279435D01*
X0067420Y0279399D01*
X0067449Y0279360D01*
X0067475Y0279319D01*
X0067497Y0279276D01*
X0067516Y0279232D01*
X0067532Y0279187D01*
X0067545Y0279140D01*
X0067554Y0279093D01*
X0067559Y0279045D01*
X0067561Y0278997D01*
X0067561Y0278674D01*
X0067561Y0281136D02*
X0064661Y0281136D01*
X0064661Y0281941D01*
X0064663Y0281996D01*
X0064669Y0282051D01*
X0064678Y0282105D01*
X0064691Y0282158D01*
X0064708Y0282211D01*
X0064728Y0282262D01*
X0064751Y0282312D01*
X0064778Y0282360D01*
X0064809Y0282406D01*
X0064842Y0282450D01*
X0064878Y0282491D01*
X0064917Y0282530D01*
X0064958Y0282566D01*
X0065002Y0282599D01*
X0065048Y0282630D01*
X0065096Y0282657D01*
X0065146Y0282680D01*
X0065197Y0282700D01*
X0065250Y0282717D01*
X0065303Y0282730D01*
X0065357Y0282739D01*
X0065412Y0282745D01*
X0065467Y0282747D01*
X0065522Y0282745D01*
X0065577Y0282739D01*
X0065631Y0282730D01*
X0065684Y0282717D01*
X0065737Y0282700D01*
X0065788Y0282680D01*
X0065838Y0282657D01*
X0065886Y0282630D01*
X0065932Y0282599D01*
X0065976Y0282566D01*
X0066017Y0282530D01*
X0066056Y0282491D01*
X0066092Y0282450D01*
X0066125Y0282406D01*
X0066156Y0282360D01*
X0066183Y0282312D01*
X0066206Y0282262D01*
X0066226Y0282211D01*
X0066243Y0282158D01*
X0066256Y0282105D01*
X0066265Y0282051D01*
X0066271Y0281996D01*
X0066273Y0281941D01*
X0066272Y0281941D02*
X0066272Y0281136D01*
X0067561Y0283873D02*
X0067561Y0284679D01*
X0067559Y0284734D01*
X0067553Y0284789D01*
X0067544Y0284843D01*
X0067531Y0284896D01*
X0067514Y0284949D01*
X0067494Y0285000D01*
X0067471Y0285050D01*
X0067444Y0285098D01*
X0067413Y0285144D01*
X0067380Y0285188D01*
X0067344Y0285229D01*
X0067305Y0285268D01*
X0067264Y0285304D01*
X0067220Y0285337D01*
X0067174Y0285368D01*
X0067126Y0285395D01*
X0067076Y0285418D01*
X0067025Y0285438D01*
X0066972Y0285455D01*
X0066919Y0285468D01*
X0066865Y0285477D01*
X0066810Y0285483D01*
X0066755Y0285485D01*
X0066700Y0285483D01*
X0066645Y0285477D01*
X0066591Y0285468D01*
X0066538Y0285455D01*
X0066485Y0285438D01*
X0066434Y0285418D01*
X0066384Y0285395D01*
X0066336Y0285368D01*
X0066290Y0285337D01*
X0066246Y0285304D01*
X0066205Y0285268D01*
X0066166Y0285229D01*
X0066130Y0285188D01*
X0066097Y0285144D01*
X0066066Y0285098D01*
X0066039Y0285050D01*
X0066016Y0285000D01*
X0065996Y0284949D01*
X0065979Y0284896D01*
X0065966Y0284843D01*
X0065957Y0284789D01*
X0065951Y0284734D01*
X0065949Y0284679D01*
X0065950Y0284840D02*
X0065950Y0284195D01*
X0065949Y0284840D02*
X0065947Y0284889D01*
X0065941Y0284938D01*
X0065932Y0284987D01*
X0065919Y0285034D01*
X0065902Y0285081D01*
X0065882Y0285126D01*
X0065859Y0285169D01*
X0065832Y0285211D01*
X0065802Y0285250D01*
X0065769Y0285287D01*
X0065733Y0285321D01*
X0065695Y0285352D01*
X0065655Y0285381D01*
X0065613Y0285406D01*
X0065568Y0285428D01*
X0065523Y0285446D01*
X0065476Y0285461D01*
X0065428Y0285472D01*
X0065379Y0285480D01*
X0065330Y0285484D01*
X0065280Y0285484D01*
X0065231Y0285480D01*
X0065182Y0285472D01*
X0065134Y0285461D01*
X0065087Y0285446D01*
X0065042Y0285428D01*
X0064997Y0285406D01*
X0064955Y0285381D01*
X0064915Y0285352D01*
X0064877Y0285321D01*
X0064841Y0285287D01*
X0064808Y0285250D01*
X0064778Y0285211D01*
X0064751Y0285169D01*
X0064728Y0285126D01*
X0064708Y0285081D01*
X0064691Y0285034D01*
X0064678Y0284987D01*
X0064669Y0284938D01*
X0064663Y0284889D01*
X0064661Y0284840D01*
X0064661Y0283873D01*
X0063720Y0148919D02*
X0064587Y0145019D01*
X0065454Y0147619D01*
X0066320Y0145019D01*
X0067187Y0148919D01*
X0068803Y0148919D02*
X0068803Y0145019D01*
X0068803Y0146753D02*
X0069887Y0146753D01*
X0070103Y0146753D02*
X0070970Y0145019D01*
X0072560Y0146103D02*
X0072560Y0147836D01*
X0072561Y0147836D02*
X0072563Y0147900D01*
X0072569Y0147964D01*
X0072578Y0148028D01*
X0072591Y0148090D01*
X0072608Y0148152D01*
X0072629Y0148213D01*
X0072653Y0148273D01*
X0072681Y0148331D01*
X0072711Y0148387D01*
X0072746Y0148441D01*
X0072783Y0148493D01*
X0072824Y0148543D01*
X0072867Y0148590D01*
X0072913Y0148635D01*
X0072962Y0148677D01*
X0073013Y0148716D01*
X0073066Y0148752D01*
X0073121Y0148784D01*
X0073178Y0148814D01*
X0073237Y0148840D01*
X0073297Y0148862D01*
X0073359Y0148881D01*
X0073421Y0148896D01*
X0073484Y0148907D01*
X0073548Y0148915D01*
X0073612Y0148919D01*
X0073676Y0148919D01*
X0073740Y0148915D01*
X0073804Y0148907D01*
X0073867Y0148896D01*
X0073929Y0148881D01*
X0073991Y0148862D01*
X0074051Y0148840D01*
X0074110Y0148814D01*
X0074167Y0148784D01*
X0074222Y0148752D01*
X0074275Y0148716D01*
X0074326Y0148677D01*
X0074375Y0148635D01*
X0074421Y0148590D01*
X0074464Y0148543D01*
X0074505Y0148493D01*
X0074542Y0148441D01*
X0074577Y0148387D01*
X0074607Y0148331D01*
X0074635Y0148273D01*
X0074659Y0148213D01*
X0074680Y0148152D01*
X0074697Y0148090D01*
X0074710Y0148028D01*
X0074719Y0147964D01*
X0074725Y0147900D01*
X0074727Y0147836D01*
X0074727Y0146103D01*
X0074725Y0146039D01*
X0074719Y0145975D01*
X0074710Y0145911D01*
X0074697Y0145849D01*
X0074680Y0145787D01*
X0074659Y0145726D01*
X0074635Y0145666D01*
X0074607Y0145608D01*
X0074577Y0145552D01*
X0074542Y0145498D01*
X0074505Y0145446D01*
X0074464Y0145396D01*
X0074421Y0145349D01*
X0074375Y0145304D01*
X0074326Y0145262D01*
X0074275Y0145223D01*
X0074222Y0145187D01*
X0074167Y0145155D01*
X0074110Y0145125D01*
X0074051Y0145099D01*
X0073991Y0145077D01*
X0073929Y0145058D01*
X0073867Y0145043D01*
X0073804Y0145032D01*
X0073740Y0145024D01*
X0073676Y0145020D01*
X0073612Y0145020D01*
X0073548Y0145024D01*
X0073484Y0145032D01*
X0073421Y0145043D01*
X0073359Y0145058D01*
X0073297Y0145077D01*
X0073237Y0145099D01*
X0073178Y0145125D01*
X0073121Y0145155D01*
X0073066Y0145187D01*
X0073013Y0145223D01*
X0072962Y0145262D01*
X0072913Y0145304D01*
X0072867Y0145349D01*
X0072824Y0145396D01*
X0072783Y0145446D01*
X0072746Y0145498D01*
X0072711Y0145552D01*
X0072681Y0145608D01*
X0072653Y0145666D01*
X0072629Y0145726D01*
X0072608Y0145787D01*
X0072591Y0145849D01*
X0072578Y0145911D01*
X0072569Y0145975D01*
X0072563Y0146039D01*
X0072561Y0146103D01*
X0069887Y0146753D02*
X0069951Y0146755D01*
X0070015Y0146761D01*
X0070079Y0146770D01*
X0070141Y0146783D01*
X0070203Y0146800D01*
X0070264Y0146821D01*
X0070324Y0146845D01*
X0070382Y0146873D01*
X0070438Y0146903D01*
X0070492Y0146938D01*
X0070544Y0146975D01*
X0070594Y0147016D01*
X0070641Y0147059D01*
X0070686Y0147105D01*
X0070728Y0147154D01*
X0070767Y0147205D01*
X0070803Y0147258D01*
X0070835Y0147313D01*
X0070865Y0147370D01*
X0070891Y0147429D01*
X0070913Y0147489D01*
X0070932Y0147551D01*
X0070947Y0147613D01*
X0070958Y0147676D01*
X0070966Y0147740D01*
X0070970Y0147804D01*
X0070970Y0147868D01*
X0070966Y0147932D01*
X0070958Y0147996D01*
X0070947Y0148059D01*
X0070932Y0148121D01*
X0070913Y0148183D01*
X0070891Y0148243D01*
X0070865Y0148302D01*
X0070835Y0148359D01*
X0070803Y0148414D01*
X0070767Y0148467D01*
X0070728Y0148518D01*
X0070686Y0148567D01*
X0070641Y0148613D01*
X0070594Y0148656D01*
X0070544Y0148697D01*
X0070492Y0148734D01*
X0070438Y0148769D01*
X0070382Y0148799D01*
X0070324Y0148827D01*
X0070264Y0148851D01*
X0070203Y0148872D01*
X0070141Y0148889D01*
X0070079Y0148902D01*
X0070015Y0148911D01*
X0069951Y0148917D01*
X0069887Y0148919D01*
X0068803Y0148919D01*
X0062218Y0146536D02*
X0059618Y0146536D01*
X0057644Y0147186D02*
X0055802Y0145019D01*
X0057969Y0145019D01*
X0055802Y0148053D02*
X0055825Y0148118D01*
X0055851Y0148181D01*
X0055881Y0148243D01*
X0055914Y0148302D01*
X0055950Y0148361D01*
X0055990Y0148417D01*
X0056032Y0148470D01*
X0056078Y0148522D01*
X0056126Y0148570D01*
X0056176Y0148617D01*
X0056230Y0148660D01*
X0056285Y0148700D01*
X0056343Y0148737D01*
X0056402Y0148771D01*
X0056463Y0148802D01*
X0056526Y0148829D01*
X0056590Y0148853D01*
X0056656Y0148873D01*
X0056722Y0148890D01*
X0056789Y0148903D01*
X0056857Y0148913D01*
X0056926Y0148918D01*
X0056994Y0148920D01*
X0056994Y0148919D02*
X0057055Y0148917D01*
X0057116Y0148911D01*
X0057177Y0148902D01*
X0057236Y0148888D01*
X0057295Y0148871D01*
X0057353Y0148851D01*
X0057409Y0148826D01*
X0057464Y0148798D01*
X0057516Y0148767D01*
X0057567Y0148733D01*
X0057615Y0148695D01*
X0057661Y0148655D01*
X0057705Y0148611D01*
X0057745Y0148565D01*
X0057783Y0148517D01*
X0057817Y0148466D01*
X0057848Y0148414D01*
X0057876Y0148359D01*
X0057901Y0148303D01*
X0057921Y0148245D01*
X0057938Y0148186D01*
X0057952Y0148127D01*
X0057961Y0148066D01*
X0057967Y0148005D01*
X0057969Y0147944D01*
X0057967Y0147883D01*
X0057962Y0147823D01*
X0057953Y0147763D01*
X0057941Y0147704D01*
X0057926Y0147645D01*
X0057907Y0147588D01*
X0057884Y0147532D01*
X0057859Y0147477D01*
X0057830Y0147423D01*
X0057799Y0147372D01*
X0057764Y0147322D01*
X0057727Y0147274D01*
X0057687Y0147229D01*
X0057644Y0147186D01*
X0053322Y0147186D02*
X0052456Y0147186D01*
X0053322Y0147186D02*
X0053380Y0147188D01*
X0053438Y0147194D01*
X0053495Y0147203D01*
X0053551Y0147217D01*
X0053606Y0147234D01*
X0053660Y0147255D01*
X0053713Y0147279D01*
X0053764Y0147307D01*
X0053813Y0147338D01*
X0053859Y0147373D01*
X0053904Y0147410D01*
X0053945Y0147450D01*
X0053984Y0147493D01*
X0054020Y0147539D01*
X0054053Y0147586D01*
X0054082Y0147636D01*
X0054108Y0147688D01*
X0054131Y0147741D01*
X0054150Y0147796D01*
X0054165Y0147852D01*
X0054177Y0147909D01*
X0054185Y0147966D01*
X0054189Y0148024D01*
X0054189Y0148082D01*
X0054185Y0148140D01*
X0054177Y0148197D01*
X0054165Y0148254D01*
X0054150Y0148310D01*
X0054131Y0148365D01*
X0054108Y0148418D01*
X0054082Y0148470D01*
X0054053Y0148520D01*
X0054020Y0148567D01*
X0053984Y0148613D01*
X0053945Y0148656D01*
X0053904Y0148696D01*
X0053859Y0148733D01*
X0053813Y0148768D01*
X0053764Y0148799D01*
X0053713Y0148827D01*
X0053660Y0148851D01*
X0053606Y0148872D01*
X0053551Y0148889D01*
X0053495Y0148903D01*
X0053438Y0148912D01*
X0053380Y0148918D01*
X0053322Y0148920D01*
X0053322Y0148919D02*
X0052022Y0148919D01*
X0053106Y0147186D02*
X0053170Y0147184D01*
X0053234Y0147178D01*
X0053298Y0147169D01*
X0053360Y0147156D01*
X0053422Y0147139D01*
X0053483Y0147118D01*
X0053543Y0147094D01*
X0053601Y0147066D01*
X0053657Y0147036D01*
X0053711Y0147001D01*
X0053763Y0146964D01*
X0053813Y0146923D01*
X0053860Y0146880D01*
X0053905Y0146834D01*
X0053947Y0146785D01*
X0053986Y0146734D01*
X0054022Y0146681D01*
X0054054Y0146626D01*
X0054084Y0146569D01*
X0054110Y0146510D01*
X0054132Y0146450D01*
X0054151Y0146388D01*
X0054166Y0146326D01*
X0054177Y0146263D01*
X0054185Y0146199D01*
X0054189Y0146135D01*
X0054189Y0146071D01*
X0054185Y0146007D01*
X0054177Y0145943D01*
X0054166Y0145880D01*
X0054151Y0145818D01*
X0054132Y0145756D01*
X0054110Y0145696D01*
X0054084Y0145637D01*
X0054054Y0145580D01*
X0054022Y0145525D01*
X0053986Y0145472D01*
X0053947Y0145421D01*
X0053905Y0145372D01*
X0053860Y0145326D01*
X0053813Y0145283D01*
X0053763Y0145242D01*
X0053711Y0145205D01*
X0053657Y0145170D01*
X0053601Y0145140D01*
X0053543Y0145112D01*
X0053483Y0145088D01*
X0053422Y0145067D01*
X0053360Y0145050D01*
X0053298Y0145037D01*
X0053234Y0145028D01*
X0053170Y0145022D01*
X0053106Y0145020D01*
X0053106Y0145019D02*
X0052022Y0145019D01*
X0049505Y0146753D02*
X0048421Y0146753D01*
X0049505Y0146753D02*
X0049569Y0146755D01*
X0049633Y0146761D01*
X0049697Y0146770D01*
X0049759Y0146783D01*
X0049821Y0146800D01*
X0049882Y0146821D01*
X0049942Y0146845D01*
X0050000Y0146873D01*
X0050056Y0146903D01*
X0050110Y0146938D01*
X0050162Y0146975D01*
X0050212Y0147016D01*
X0050259Y0147059D01*
X0050304Y0147105D01*
X0050346Y0147154D01*
X0050385Y0147205D01*
X0050421Y0147258D01*
X0050453Y0147313D01*
X0050483Y0147370D01*
X0050509Y0147429D01*
X0050531Y0147489D01*
X0050550Y0147551D01*
X0050565Y0147613D01*
X0050576Y0147676D01*
X0050584Y0147740D01*
X0050588Y0147804D01*
X0050588Y0147868D01*
X0050584Y0147932D01*
X0050576Y0147996D01*
X0050565Y0148059D01*
X0050550Y0148121D01*
X0050531Y0148183D01*
X0050509Y0148243D01*
X0050483Y0148302D01*
X0050453Y0148359D01*
X0050421Y0148414D01*
X0050385Y0148467D01*
X0050346Y0148518D01*
X0050304Y0148567D01*
X0050259Y0148613D01*
X0050212Y0148656D01*
X0050162Y0148697D01*
X0050110Y0148734D01*
X0050056Y0148769D01*
X0050000Y0148799D01*
X0049942Y0148827D01*
X0049882Y0148851D01*
X0049821Y0148872D01*
X0049759Y0148889D01*
X0049697Y0148902D01*
X0049633Y0148911D01*
X0049569Y0148917D01*
X0049505Y0148919D01*
X0048421Y0148919D01*
X0048421Y0145019D01*
X0046322Y0146644D02*
X0045130Y0147294D01*
X0045563Y0148919D02*
X0045638Y0148917D01*
X0045712Y0148912D01*
X0045786Y0148904D01*
X0045860Y0148892D01*
X0045933Y0148876D01*
X0046005Y0148858D01*
X0046077Y0148836D01*
X0046147Y0148810D01*
X0046216Y0148782D01*
X0046284Y0148750D01*
X0046350Y0148716D01*
X0046415Y0148678D01*
X0046477Y0148637D01*
X0046538Y0148594D01*
X0045130Y0147295D02*
X0045082Y0147325D01*
X0045036Y0147359D01*
X0044992Y0147396D01*
X0044951Y0147435D01*
X0044912Y0147477D01*
X0044876Y0147521D01*
X0044843Y0147568D01*
X0044813Y0147616D01*
X0044786Y0147667D01*
X0044763Y0147719D01*
X0044743Y0147772D01*
X0044726Y0147827D01*
X0044714Y0147883D01*
X0044704Y0147939D01*
X0044699Y0147996D01*
X0044697Y0148053D01*
X0044696Y0148053D02*
X0044698Y0148110D01*
X0044703Y0148166D01*
X0044713Y0148222D01*
X0044726Y0148277D01*
X0044742Y0148332D01*
X0044762Y0148385D01*
X0044785Y0148436D01*
X0044812Y0148487D01*
X0044842Y0148535D01*
X0044875Y0148581D01*
X0044911Y0148625D01*
X0044950Y0148666D01*
X0044991Y0148705D01*
X0045035Y0148741D01*
X0045081Y0148774D01*
X0045130Y0148804D01*
X0045180Y0148831D01*
X0045231Y0148854D01*
X0045284Y0148874D01*
X0045339Y0148890D01*
X0045394Y0148903D01*
X0045450Y0148913D01*
X0045506Y0148918D01*
X0045563Y0148920D01*
X0044588Y0145561D02*
X0044649Y0145502D01*
X0044713Y0145446D01*
X0044780Y0145393D01*
X0044848Y0145343D01*
X0044920Y0145296D01*
X0044993Y0145253D01*
X0045068Y0145213D01*
X0045145Y0145177D01*
X0045223Y0145144D01*
X0045303Y0145115D01*
X0045384Y0145090D01*
X0045467Y0145068D01*
X0045550Y0145051D01*
X0045634Y0145037D01*
X0045718Y0145027D01*
X0045803Y0145021D01*
X0045888Y0145019D01*
X0045945Y0145021D01*
X0046001Y0145026D01*
X0046057Y0145036D01*
X0046112Y0145049D01*
X0046167Y0145065D01*
X0046220Y0145085D01*
X0046271Y0145108D01*
X0046322Y0145135D01*
X0046370Y0145165D01*
X0046416Y0145198D01*
X0046460Y0145234D01*
X0046501Y0145273D01*
X0046540Y0145314D01*
X0046576Y0145358D01*
X0046609Y0145404D01*
X0046639Y0145453D01*
X0046666Y0145503D01*
X0046689Y0145554D01*
X0046709Y0145607D01*
X0046725Y0145662D01*
X0046738Y0145717D01*
X0046748Y0145773D01*
X0046753Y0145829D01*
X0046755Y0145886D01*
X0046753Y0145943D01*
X0046748Y0146000D01*
X0046738Y0146056D01*
X0046726Y0146112D01*
X0046709Y0146167D01*
X0046689Y0146220D01*
X0046666Y0146272D01*
X0046639Y0146323D01*
X0046609Y0146371D01*
X0046576Y0146418D01*
X0046540Y0146462D01*
X0046501Y0146504D01*
X0046460Y0146543D01*
X0046416Y0146580D01*
X0046370Y0146614D01*
X0046322Y0146644D01*
X0043305Y0145019D02*
X0041571Y0145019D01*
X0041571Y0148919D01*
X0043305Y0148919D01*
X0042871Y0147186D02*
X0041571Y0147186D01*
X0076340Y0147836D02*
X0076340Y0146103D01*
X0076341Y0146103D02*
X0076343Y0146039D01*
X0076349Y0145975D01*
X0076358Y0145911D01*
X0076371Y0145849D01*
X0076388Y0145787D01*
X0076409Y0145726D01*
X0076433Y0145666D01*
X0076461Y0145608D01*
X0076491Y0145552D01*
X0076526Y0145498D01*
X0076563Y0145446D01*
X0076604Y0145396D01*
X0076647Y0145349D01*
X0076693Y0145304D01*
X0076742Y0145262D01*
X0076793Y0145223D01*
X0076846Y0145187D01*
X0076901Y0145155D01*
X0076958Y0145125D01*
X0077017Y0145099D01*
X0077077Y0145077D01*
X0077139Y0145058D01*
X0077201Y0145043D01*
X0077264Y0145032D01*
X0077328Y0145024D01*
X0077392Y0145020D01*
X0077456Y0145020D01*
X0077520Y0145024D01*
X0077584Y0145032D01*
X0077647Y0145043D01*
X0077709Y0145058D01*
X0077771Y0145077D01*
X0077831Y0145099D01*
X0077890Y0145125D01*
X0077947Y0145155D01*
X0078002Y0145187D01*
X0078055Y0145223D01*
X0078106Y0145262D01*
X0078155Y0145304D01*
X0078201Y0145349D01*
X0078244Y0145396D01*
X0078285Y0145446D01*
X0078322Y0145498D01*
X0078357Y0145552D01*
X0078387Y0145608D01*
X0078415Y0145666D01*
X0078439Y0145726D01*
X0078460Y0145787D01*
X0078477Y0145849D01*
X0078490Y0145911D01*
X0078499Y0145975D01*
X0078505Y0146039D01*
X0078507Y0146103D01*
X0078507Y0147836D01*
X0078505Y0147900D01*
X0078499Y0147964D01*
X0078490Y0148028D01*
X0078477Y0148090D01*
X0078460Y0148152D01*
X0078439Y0148213D01*
X0078415Y0148273D01*
X0078387Y0148331D01*
X0078357Y0148387D01*
X0078322Y0148441D01*
X0078285Y0148493D01*
X0078244Y0148543D01*
X0078201Y0148590D01*
X0078155Y0148635D01*
X0078106Y0148677D01*
X0078055Y0148716D01*
X0078002Y0148752D01*
X0077947Y0148784D01*
X0077890Y0148814D01*
X0077831Y0148840D01*
X0077771Y0148862D01*
X0077709Y0148881D01*
X0077647Y0148896D01*
X0077584Y0148907D01*
X0077520Y0148915D01*
X0077456Y0148919D01*
X0077392Y0148919D01*
X0077328Y0148915D01*
X0077264Y0148907D01*
X0077201Y0148896D01*
X0077139Y0148881D01*
X0077077Y0148862D01*
X0077017Y0148840D01*
X0076958Y0148814D01*
X0076901Y0148784D01*
X0076846Y0148752D01*
X0076793Y0148716D01*
X0076742Y0148677D01*
X0076693Y0148635D01*
X0076647Y0148590D01*
X0076604Y0148543D01*
X0076563Y0148493D01*
X0076526Y0148441D01*
X0076491Y0148387D01*
X0076461Y0148331D01*
X0076433Y0148273D01*
X0076409Y0148213D01*
X0076388Y0148152D01*
X0076371Y0148090D01*
X0076358Y0148028D01*
X0076349Y0147964D01*
X0076343Y0147900D01*
X0076341Y0147836D01*
X0080282Y0148919D02*
X0081582Y0146753D01*
X0082882Y0148919D01*
X0082882Y0145019D01*
X0084692Y0146536D02*
X0087292Y0146536D01*
X0089374Y0147186D02*
X0090240Y0147186D01*
X0090298Y0147188D01*
X0090356Y0147194D01*
X0090413Y0147203D01*
X0090469Y0147217D01*
X0090524Y0147234D01*
X0090578Y0147255D01*
X0090631Y0147279D01*
X0090682Y0147307D01*
X0090731Y0147338D01*
X0090777Y0147373D01*
X0090822Y0147410D01*
X0090863Y0147450D01*
X0090902Y0147493D01*
X0090938Y0147539D01*
X0090971Y0147586D01*
X0091000Y0147636D01*
X0091026Y0147688D01*
X0091049Y0147741D01*
X0091068Y0147796D01*
X0091083Y0147852D01*
X0091095Y0147909D01*
X0091103Y0147966D01*
X0091107Y0148024D01*
X0091107Y0148082D01*
X0091103Y0148140D01*
X0091095Y0148197D01*
X0091083Y0148254D01*
X0091068Y0148310D01*
X0091049Y0148365D01*
X0091026Y0148418D01*
X0091000Y0148470D01*
X0090971Y0148520D01*
X0090938Y0148567D01*
X0090902Y0148613D01*
X0090863Y0148656D01*
X0090822Y0148696D01*
X0090777Y0148733D01*
X0090731Y0148768D01*
X0090682Y0148799D01*
X0090631Y0148827D01*
X0090578Y0148851D01*
X0090524Y0148872D01*
X0090469Y0148889D01*
X0090413Y0148903D01*
X0090356Y0148912D01*
X0090298Y0148918D01*
X0090240Y0148920D01*
X0090240Y0148919D02*
X0088940Y0148919D01*
X0090024Y0147186D02*
X0090088Y0147184D01*
X0090152Y0147178D01*
X0090216Y0147169D01*
X0090278Y0147156D01*
X0090340Y0147139D01*
X0090401Y0147118D01*
X0090461Y0147094D01*
X0090519Y0147066D01*
X0090575Y0147036D01*
X0090629Y0147001D01*
X0090681Y0146964D01*
X0090731Y0146923D01*
X0090778Y0146880D01*
X0090823Y0146834D01*
X0090865Y0146785D01*
X0090904Y0146734D01*
X0090940Y0146681D01*
X0090972Y0146626D01*
X0091002Y0146569D01*
X0091028Y0146510D01*
X0091050Y0146450D01*
X0091069Y0146388D01*
X0091084Y0146326D01*
X0091095Y0146263D01*
X0091103Y0146199D01*
X0091107Y0146135D01*
X0091107Y0146071D01*
X0091103Y0146007D01*
X0091095Y0145943D01*
X0091084Y0145880D01*
X0091069Y0145818D01*
X0091050Y0145756D01*
X0091028Y0145696D01*
X0091002Y0145637D01*
X0090972Y0145580D01*
X0090940Y0145525D01*
X0090904Y0145472D01*
X0090865Y0145421D01*
X0090823Y0145372D01*
X0090778Y0145326D01*
X0090731Y0145283D01*
X0090681Y0145242D01*
X0090629Y0145205D01*
X0090575Y0145170D01*
X0090519Y0145140D01*
X0090461Y0145112D01*
X0090401Y0145088D01*
X0090340Y0145067D01*
X0090278Y0145050D01*
X0090216Y0145037D01*
X0090152Y0145028D01*
X0090088Y0145022D01*
X0090024Y0145020D01*
X0090024Y0145019D02*
X0088940Y0145019D01*
X0092720Y0145019D02*
X0094887Y0145019D01*
X0092720Y0145019D02*
X0094562Y0147186D01*
X0093912Y0148920D02*
X0093844Y0148918D01*
X0093775Y0148913D01*
X0093707Y0148903D01*
X0093640Y0148890D01*
X0093574Y0148873D01*
X0093508Y0148853D01*
X0093444Y0148829D01*
X0093381Y0148802D01*
X0093320Y0148771D01*
X0093261Y0148737D01*
X0093203Y0148700D01*
X0093148Y0148660D01*
X0093094Y0148617D01*
X0093044Y0148570D01*
X0092996Y0148522D01*
X0092950Y0148470D01*
X0092908Y0148417D01*
X0092868Y0148361D01*
X0092832Y0148302D01*
X0092799Y0148243D01*
X0092769Y0148181D01*
X0092743Y0148118D01*
X0092720Y0148053D01*
X0094562Y0147186D02*
X0094605Y0147229D01*
X0094645Y0147274D01*
X0094682Y0147322D01*
X0094717Y0147372D01*
X0094748Y0147423D01*
X0094777Y0147477D01*
X0094802Y0147532D01*
X0094825Y0147588D01*
X0094844Y0147645D01*
X0094859Y0147704D01*
X0094871Y0147763D01*
X0094880Y0147823D01*
X0094885Y0147883D01*
X0094887Y0147944D01*
X0094885Y0148005D01*
X0094879Y0148066D01*
X0094870Y0148127D01*
X0094856Y0148186D01*
X0094839Y0148245D01*
X0094819Y0148303D01*
X0094794Y0148359D01*
X0094766Y0148414D01*
X0094735Y0148466D01*
X0094701Y0148517D01*
X0094663Y0148565D01*
X0094623Y0148611D01*
X0094579Y0148655D01*
X0094533Y0148695D01*
X0094485Y0148733D01*
X0094434Y0148767D01*
X0094382Y0148798D01*
X0094327Y0148826D01*
X0094271Y0148851D01*
X0094213Y0148871D01*
X0094154Y0148888D01*
X0094095Y0148902D01*
X0094034Y0148911D01*
X0093973Y0148917D01*
X0093912Y0148919D01*
X0080282Y0148919D02*
X0080282Y0145019D01*
X0169408Y0201293D02*
X0170696Y0201293D01*
X0170696Y0201292D02*
X0170751Y0201294D01*
X0170806Y0201300D01*
X0170860Y0201309D01*
X0170913Y0201322D01*
X0170966Y0201339D01*
X0171017Y0201359D01*
X0171067Y0201382D01*
X0171115Y0201409D01*
X0171161Y0201440D01*
X0171205Y0201473D01*
X0171246Y0201509D01*
X0171285Y0201548D01*
X0171321Y0201589D01*
X0171354Y0201633D01*
X0171385Y0201679D01*
X0171412Y0201727D01*
X0171435Y0201777D01*
X0171455Y0201828D01*
X0171472Y0201881D01*
X0171485Y0201934D01*
X0171494Y0201988D01*
X0171500Y0202043D01*
X0171502Y0202098D01*
X0171500Y0202153D01*
X0171494Y0202208D01*
X0171485Y0202262D01*
X0171472Y0202315D01*
X0171455Y0202368D01*
X0171435Y0202419D01*
X0171412Y0202469D01*
X0171385Y0202517D01*
X0171354Y0202563D01*
X0171321Y0202607D01*
X0171285Y0202648D01*
X0171246Y0202687D01*
X0171205Y0202723D01*
X0171161Y0202756D01*
X0171115Y0202787D01*
X0171067Y0202814D01*
X0171017Y0202837D01*
X0170966Y0202857D01*
X0170913Y0202874D01*
X0170860Y0202887D01*
X0170806Y0202896D01*
X0170751Y0202902D01*
X0170696Y0202904D01*
X0169408Y0202904D01*
X0169353Y0202902D01*
X0169298Y0202896D01*
X0169244Y0202887D01*
X0169191Y0202874D01*
X0169138Y0202857D01*
X0169087Y0202837D01*
X0169037Y0202814D01*
X0168989Y0202787D01*
X0168943Y0202756D01*
X0168899Y0202723D01*
X0168858Y0202687D01*
X0168819Y0202648D01*
X0168783Y0202607D01*
X0168750Y0202563D01*
X0168719Y0202517D01*
X0168692Y0202469D01*
X0168669Y0202419D01*
X0168649Y0202368D01*
X0168632Y0202315D01*
X0168619Y0202262D01*
X0168610Y0202208D01*
X0168604Y0202153D01*
X0168602Y0202098D01*
X0168604Y0202043D01*
X0168610Y0201988D01*
X0168619Y0201934D01*
X0168632Y0201881D01*
X0168649Y0201828D01*
X0168669Y0201777D01*
X0168692Y0201727D01*
X0168719Y0201679D01*
X0168750Y0201633D01*
X0168783Y0201589D01*
X0168819Y0201548D01*
X0168858Y0201509D01*
X0168899Y0201473D01*
X0168943Y0201440D01*
X0168989Y0201409D01*
X0169037Y0201382D01*
X0169087Y0201359D01*
X0169138Y0201339D01*
X0169191Y0201322D01*
X0169244Y0201309D01*
X0169298Y0201300D01*
X0169353Y0201294D01*
X0169408Y0201292D01*
X0170858Y0202581D02*
X0171502Y0203226D01*
X0171502Y0204086D02*
X0171502Y0205697D01*
X0171502Y0204892D02*
X0168602Y0204892D01*
X0169246Y0204086D01*
X0177022Y0155881D02*
X0177988Y0155881D01*
X0177988Y0155880D02*
X0178037Y0155878D01*
X0178086Y0155872D01*
X0178135Y0155863D01*
X0178182Y0155850D01*
X0178229Y0155833D01*
X0178274Y0155813D01*
X0178317Y0155790D01*
X0178359Y0155763D01*
X0178398Y0155733D01*
X0178435Y0155700D01*
X0178469Y0155664D01*
X0178500Y0155626D01*
X0178529Y0155586D01*
X0178554Y0155544D01*
X0178576Y0155499D01*
X0178594Y0155454D01*
X0178609Y0155407D01*
X0178620Y0155359D01*
X0178628Y0155310D01*
X0178632Y0155261D01*
X0178632Y0155211D01*
X0178628Y0155162D01*
X0178620Y0155113D01*
X0178609Y0155065D01*
X0178594Y0155018D01*
X0178576Y0154973D01*
X0178554Y0154928D01*
X0178529Y0154886D01*
X0178500Y0154846D01*
X0178469Y0154808D01*
X0178435Y0154772D01*
X0178398Y0154739D01*
X0178359Y0154709D01*
X0178317Y0154682D01*
X0178274Y0154659D01*
X0178229Y0154639D01*
X0178182Y0154622D01*
X0178135Y0154609D01*
X0178086Y0154600D01*
X0178037Y0154594D01*
X0177988Y0154592D01*
X0177344Y0154592D01*
X0177827Y0154592D02*
X0177882Y0154590D01*
X0177937Y0154584D01*
X0177991Y0154575D01*
X0178044Y0154562D01*
X0178097Y0154545D01*
X0178148Y0154525D01*
X0178198Y0154502D01*
X0178246Y0154475D01*
X0178292Y0154444D01*
X0178336Y0154411D01*
X0178377Y0154375D01*
X0178416Y0154336D01*
X0178452Y0154295D01*
X0178485Y0154251D01*
X0178516Y0154205D01*
X0178543Y0154157D01*
X0178566Y0154107D01*
X0178586Y0154056D01*
X0178603Y0154003D01*
X0178616Y0153950D01*
X0178625Y0153896D01*
X0178631Y0153841D01*
X0178633Y0153786D01*
X0178631Y0153731D01*
X0178625Y0153676D01*
X0178616Y0153622D01*
X0178603Y0153569D01*
X0178586Y0153516D01*
X0178566Y0153465D01*
X0178543Y0153415D01*
X0178516Y0153367D01*
X0178485Y0153321D01*
X0178452Y0153277D01*
X0178416Y0153236D01*
X0178377Y0153197D01*
X0178336Y0153161D01*
X0178292Y0153128D01*
X0178246Y0153097D01*
X0178198Y0153070D01*
X0178148Y0153047D01*
X0178097Y0153027D01*
X0178044Y0153010D01*
X0177991Y0152997D01*
X0177937Y0152988D01*
X0177882Y0152982D01*
X0177827Y0152980D01*
X0177827Y0152981D02*
X0177022Y0152981D01*
X0179763Y0152981D02*
X0179924Y0152981D01*
X0179924Y0153142D01*
X0179763Y0153142D01*
X0179763Y0152981D01*
X0181054Y0152981D02*
X0181859Y0152981D01*
X0181859Y0152980D02*
X0181914Y0152982D01*
X0181969Y0152988D01*
X0182023Y0152997D01*
X0182076Y0153010D01*
X0182129Y0153027D01*
X0182180Y0153047D01*
X0182230Y0153070D01*
X0182278Y0153097D01*
X0182324Y0153128D01*
X0182368Y0153161D01*
X0182409Y0153197D01*
X0182448Y0153236D01*
X0182484Y0153277D01*
X0182517Y0153321D01*
X0182548Y0153367D01*
X0182575Y0153415D01*
X0182598Y0153465D01*
X0182618Y0153516D01*
X0182635Y0153569D01*
X0182648Y0153622D01*
X0182657Y0153676D01*
X0182663Y0153731D01*
X0182665Y0153786D01*
X0182663Y0153841D01*
X0182657Y0153896D01*
X0182648Y0153950D01*
X0182635Y0154003D01*
X0182618Y0154056D01*
X0182598Y0154107D01*
X0182575Y0154157D01*
X0182548Y0154205D01*
X0182517Y0154251D01*
X0182484Y0154295D01*
X0182448Y0154336D01*
X0182409Y0154375D01*
X0182368Y0154411D01*
X0182324Y0154444D01*
X0182278Y0154475D01*
X0182230Y0154502D01*
X0182180Y0154525D01*
X0182129Y0154545D01*
X0182076Y0154562D01*
X0182023Y0154575D01*
X0181969Y0154584D01*
X0181914Y0154590D01*
X0181859Y0154592D01*
X0182020Y0154592D02*
X0181376Y0154592D01*
X0182020Y0154592D02*
X0182069Y0154594D01*
X0182118Y0154600D01*
X0182167Y0154609D01*
X0182214Y0154622D01*
X0182261Y0154639D01*
X0182306Y0154659D01*
X0182349Y0154682D01*
X0182391Y0154709D01*
X0182430Y0154739D01*
X0182467Y0154772D01*
X0182501Y0154808D01*
X0182532Y0154846D01*
X0182561Y0154886D01*
X0182586Y0154928D01*
X0182608Y0154973D01*
X0182626Y0155018D01*
X0182641Y0155065D01*
X0182652Y0155113D01*
X0182660Y0155162D01*
X0182664Y0155211D01*
X0182664Y0155261D01*
X0182660Y0155310D01*
X0182652Y0155359D01*
X0182641Y0155407D01*
X0182626Y0155454D01*
X0182608Y0155499D01*
X0182586Y0155544D01*
X0182561Y0155586D01*
X0182532Y0155626D01*
X0182501Y0155664D01*
X0182467Y0155700D01*
X0182430Y0155733D01*
X0182391Y0155763D01*
X0182349Y0155790D01*
X0182306Y0155813D01*
X0182261Y0155833D01*
X0182214Y0155850D01*
X0182167Y0155863D01*
X0182118Y0155872D01*
X0182069Y0155878D01*
X0182020Y0155880D01*
X0182020Y0155881D02*
X0181054Y0155881D01*
X0183773Y0155881D02*
X0184739Y0152981D01*
X0185706Y0155881D01*
X0186776Y0016144D02*
X0187743Y0013244D01*
X0188710Y0016144D01*
X0189817Y0015499D02*
X0190623Y0016144D01*
X0190623Y0013244D01*
X0191428Y0013244D02*
X0189817Y0013244D01*
X0192558Y0013244D02*
X0192719Y0013244D01*
X0192719Y0013405D01*
X0192558Y0013405D01*
X0192558Y0013244D01*
X0195219Y0013647D02*
X0195257Y0013729D01*
X0195292Y0013812D01*
X0195324Y0013897D01*
X0195353Y0013982D01*
X0195378Y0014069D01*
X0195400Y0014157D01*
X0195418Y0014245D01*
X0195434Y0014334D01*
X0195446Y0014424D01*
X0195454Y0014513D01*
X0195459Y0014604D01*
X0195461Y0014694D01*
X0193849Y0014694D02*
X0193851Y0014784D01*
X0193856Y0014875D01*
X0193864Y0014964D01*
X0193876Y0015054D01*
X0193892Y0015143D01*
X0193910Y0015231D01*
X0193932Y0015319D01*
X0193957Y0015406D01*
X0193986Y0015491D01*
X0194018Y0015576D01*
X0194053Y0015659D01*
X0194091Y0015741D01*
X0194655Y0016144D02*
X0194701Y0016142D01*
X0194747Y0016137D01*
X0194792Y0016128D01*
X0194837Y0016116D01*
X0194880Y0016100D01*
X0194922Y0016081D01*
X0194963Y0016058D01*
X0195001Y0016033D01*
X0195038Y0016005D01*
X0195072Y0015974D01*
X0195104Y0015940D01*
X0195133Y0015904D01*
X0195159Y0015866D01*
X0195182Y0015826D01*
X0195202Y0015784D01*
X0195219Y0015741D01*
X0195299Y0015499D02*
X0194010Y0013888D01*
X0194655Y0013244D02*
X0194701Y0013246D01*
X0194747Y0013251D01*
X0194792Y0013260D01*
X0194837Y0013272D01*
X0194880Y0013288D01*
X0194922Y0013307D01*
X0194963Y0013330D01*
X0195001Y0013355D01*
X0195038Y0013383D01*
X0195072Y0013414D01*
X0195104Y0013448D01*
X0195133Y0013484D01*
X0195159Y0013522D01*
X0195182Y0013562D01*
X0195202Y0013604D01*
X0195219Y0013647D01*
X0194655Y0013244D02*
X0194609Y0013246D01*
X0194563Y0013251D01*
X0194518Y0013260D01*
X0194473Y0013272D01*
X0194430Y0013288D01*
X0194388Y0013307D01*
X0194347Y0013330D01*
X0194309Y0013355D01*
X0194272Y0013383D01*
X0194238Y0013414D01*
X0194206Y0013448D01*
X0194177Y0013484D01*
X0194151Y0013522D01*
X0194128Y0013562D01*
X0194108Y0013604D01*
X0194091Y0013647D01*
X0195461Y0014694D02*
X0195459Y0014784D01*
X0195454Y0014875D01*
X0195446Y0014964D01*
X0195434Y0015054D01*
X0195418Y0015143D01*
X0195400Y0015231D01*
X0195378Y0015319D01*
X0195353Y0015406D01*
X0195324Y0015491D01*
X0195292Y0015576D01*
X0195257Y0015659D01*
X0195219Y0015741D01*
X0194655Y0016144D02*
X0194609Y0016142D01*
X0194563Y0016137D01*
X0194518Y0016128D01*
X0194473Y0016116D01*
X0194430Y0016100D01*
X0194388Y0016081D01*
X0194347Y0016058D01*
X0194309Y0016033D01*
X0194272Y0016005D01*
X0194238Y0015974D01*
X0194206Y0015940D01*
X0194177Y0015904D01*
X0194151Y0015866D01*
X0194128Y0015826D01*
X0194108Y0015784D01*
X0194091Y0015741D01*
X0193849Y0014694D02*
X0193851Y0014604D01*
X0193856Y0014513D01*
X0193864Y0014424D01*
X0193876Y0014334D01*
X0193892Y0014245D01*
X0193910Y0014157D01*
X0193932Y0014069D01*
X0193957Y0013982D01*
X0193986Y0013897D01*
X0194018Y0013812D01*
X0194053Y0013729D01*
X0194091Y0013647D01*
X0184132Y0013244D02*
X0182521Y0013244D01*
X0183327Y0013244D02*
X0183327Y0016144D01*
X0182521Y0015499D01*
X0181011Y0014855D02*
X0179641Y0013244D01*
X0181252Y0013244D01*
X0179641Y0015499D02*
X0179661Y0015554D01*
X0179684Y0015608D01*
X0179711Y0015660D01*
X0179741Y0015710D01*
X0179773Y0015759D01*
X0179809Y0015805D01*
X0179848Y0015849D01*
X0179889Y0015890D01*
X0179933Y0015929D01*
X0179979Y0015965D01*
X0180028Y0015998D01*
X0180078Y0016028D01*
X0180130Y0016054D01*
X0180184Y0016078D01*
X0180239Y0016097D01*
X0180295Y0016114D01*
X0180352Y0016126D01*
X0180410Y0016136D01*
X0180468Y0016141D01*
X0180527Y0016143D01*
X0180527Y0016144D02*
X0180579Y0016142D01*
X0180630Y0016137D01*
X0180681Y0016127D01*
X0180731Y0016115D01*
X0180780Y0016098D01*
X0180828Y0016078D01*
X0180874Y0016055D01*
X0180919Y0016029D01*
X0180961Y0015999D01*
X0181002Y0015967D01*
X0181040Y0015932D01*
X0181075Y0015894D01*
X0181107Y0015853D01*
X0181137Y0015811D01*
X0181163Y0015766D01*
X0181186Y0015720D01*
X0181206Y0015672D01*
X0181223Y0015623D01*
X0181235Y0015573D01*
X0181245Y0015522D01*
X0181250Y0015471D01*
X0181252Y0015419D01*
X0181253Y0015419D02*
X0181251Y0015366D01*
X0181246Y0015314D01*
X0181237Y0015262D01*
X0181225Y0015211D01*
X0181209Y0015161D01*
X0181190Y0015112D01*
X0181168Y0015065D01*
X0181142Y0015019D01*
X0181114Y0014974D01*
X0181082Y0014932D01*
X0181048Y0014892D01*
X0181011Y0014855D01*
X0177003Y0013647D02*
X0176965Y0013729D01*
X0176930Y0013812D01*
X0176898Y0013897D01*
X0176869Y0013982D01*
X0176844Y0014069D01*
X0176822Y0014157D01*
X0176804Y0014245D01*
X0176788Y0014334D01*
X0176776Y0014424D01*
X0176768Y0014513D01*
X0176763Y0014604D01*
X0176761Y0014694D01*
X0178373Y0014694D02*
X0178371Y0014784D01*
X0178366Y0014875D01*
X0178358Y0014964D01*
X0178346Y0015054D01*
X0178330Y0015143D01*
X0178312Y0015231D01*
X0178290Y0015319D01*
X0178265Y0015406D01*
X0178236Y0015491D01*
X0178204Y0015576D01*
X0178169Y0015659D01*
X0178131Y0015741D01*
X0178211Y0015499D02*
X0176922Y0013888D01*
X0177567Y0013244D02*
X0177613Y0013246D01*
X0177659Y0013251D01*
X0177704Y0013260D01*
X0177749Y0013272D01*
X0177792Y0013288D01*
X0177834Y0013307D01*
X0177875Y0013330D01*
X0177913Y0013355D01*
X0177950Y0013383D01*
X0177984Y0013414D01*
X0178016Y0013448D01*
X0178045Y0013484D01*
X0178071Y0013522D01*
X0178094Y0013562D01*
X0178114Y0013604D01*
X0178131Y0013647D01*
X0177567Y0013244D02*
X0177521Y0013246D01*
X0177475Y0013251D01*
X0177430Y0013260D01*
X0177385Y0013272D01*
X0177342Y0013288D01*
X0177300Y0013307D01*
X0177259Y0013330D01*
X0177221Y0013355D01*
X0177184Y0013383D01*
X0177150Y0013414D01*
X0177118Y0013448D01*
X0177089Y0013484D01*
X0177063Y0013522D01*
X0177040Y0013562D01*
X0177020Y0013604D01*
X0177003Y0013647D01*
X0178131Y0013647D02*
X0178169Y0013729D01*
X0178204Y0013812D01*
X0178236Y0013897D01*
X0178265Y0013982D01*
X0178290Y0014069D01*
X0178312Y0014157D01*
X0178330Y0014245D01*
X0178346Y0014334D01*
X0178358Y0014424D01*
X0178366Y0014513D01*
X0178371Y0014604D01*
X0178373Y0014694D01*
X0176761Y0014694D02*
X0176763Y0014784D01*
X0176768Y0014875D01*
X0176776Y0014964D01*
X0176788Y0015054D01*
X0176804Y0015143D01*
X0176822Y0015231D01*
X0176844Y0015319D01*
X0176869Y0015406D01*
X0176898Y0015491D01*
X0176930Y0015576D01*
X0176965Y0015659D01*
X0177003Y0015741D01*
X0177567Y0016144D02*
X0177613Y0016142D01*
X0177659Y0016137D01*
X0177704Y0016128D01*
X0177749Y0016116D01*
X0177792Y0016100D01*
X0177834Y0016081D01*
X0177875Y0016058D01*
X0177913Y0016033D01*
X0177950Y0016005D01*
X0177984Y0015974D01*
X0178016Y0015940D01*
X0178045Y0015904D01*
X0178071Y0015866D01*
X0178094Y0015826D01*
X0178114Y0015784D01*
X0178131Y0015741D01*
X0177567Y0016144D02*
X0177521Y0016142D01*
X0177475Y0016137D01*
X0177430Y0016128D01*
X0177385Y0016116D01*
X0177342Y0016100D01*
X0177300Y0016081D01*
X0177259Y0016058D01*
X0177221Y0016033D01*
X0177184Y0016005D01*
X0177150Y0015974D01*
X0177118Y0015940D01*
X0177089Y0015904D01*
X0177063Y0015866D01*
X0177040Y0015826D01*
X0177020Y0015784D01*
X0177003Y0015741D01*
X0175251Y0014855D02*
X0173881Y0013244D01*
X0175492Y0013244D01*
X0173881Y0015499D02*
X0173901Y0015554D01*
X0173924Y0015608D01*
X0173951Y0015660D01*
X0173981Y0015710D01*
X0174013Y0015759D01*
X0174049Y0015805D01*
X0174088Y0015849D01*
X0174129Y0015890D01*
X0174173Y0015929D01*
X0174219Y0015965D01*
X0174268Y0015998D01*
X0174318Y0016028D01*
X0174370Y0016054D01*
X0174424Y0016078D01*
X0174479Y0016097D01*
X0174535Y0016114D01*
X0174592Y0016126D01*
X0174650Y0016136D01*
X0174708Y0016141D01*
X0174767Y0016143D01*
X0174767Y0016144D02*
X0174819Y0016142D01*
X0174870Y0016137D01*
X0174921Y0016127D01*
X0174971Y0016115D01*
X0175020Y0016098D01*
X0175068Y0016078D01*
X0175114Y0016055D01*
X0175159Y0016029D01*
X0175201Y0015999D01*
X0175242Y0015967D01*
X0175280Y0015932D01*
X0175315Y0015894D01*
X0175347Y0015853D01*
X0175377Y0015811D01*
X0175403Y0015766D01*
X0175426Y0015720D01*
X0175446Y0015672D01*
X0175463Y0015623D01*
X0175475Y0015573D01*
X0175485Y0015522D01*
X0175490Y0015471D01*
X0175492Y0015419D01*
X0175493Y0015419D02*
X0175491Y0015366D01*
X0175486Y0015314D01*
X0175477Y0015262D01*
X0175465Y0015211D01*
X0175449Y0015161D01*
X0175430Y0015112D01*
X0175408Y0015065D01*
X0175382Y0015019D01*
X0175354Y0014974D01*
X0175322Y0014932D01*
X0175288Y0014892D01*
X0175251Y0014855D01*
X0171268Y0016144D02*
X0169657Y0016144D01*
X0170463Y0016144D02*
X0170463Y0013244D01*
X0167917Y0014533D02*
X0167112Y0014533D01*
X0167917Y0014532D02*
X0167972Y0014534D01*
X0168027Y0014540D01*
X0168081Y0014549D01*
X0168134Y0014562D01*
X0168187Y0014579D01*
X0168238Y0014599D01*
X0168288Y0014622D01*
X0168336Y0014649D01*
X0168382Y0014680D01*
X0168426Y0014713D01*
X0168467Y0014749D01*
X0168506Y0014788D01*
X0168542Y0014829D01*
X0168575Y0014873D01*
X0168606Y0014919D01*
X0168633Y0014967D01*
X0168656Y0015017D01*
X0168676Y0015068D01*
X0168693Y0015121D01*
X0168706Y0015174D01*
X0168715Y0015228D01*
X0168721Y0015283D01*
X0168723Y0015338D01*
X0168721Y0015393D01*
X0168715Y0015448D01*
X0168706Y0015502D01*
X0168693Y0015555D01*
X0168676Y0015608D01*
X0168656Y0015659D01*
X0168633Y0015709D01*
X0168606Y0015757D01*
X0168575Y0015803D01*
X0168542Y0015847D01*
X0168506Y0015888D01*
X0168467Y0015927D01*
X0168426Y0015963D01*
X0168382Y0015996D01*
X0168336Y0016027D01*
X0168288Y0016054D01*
X0168238Y0016077D01*
X0168187Y0016097D01*
X0168134Y0016114D01*
X0168081Y0016127D01*
X0168027Y0016136D01*
X0167972Y0016142D01*
X0167917Y0016144D01*
X0167112Y0016144D01*
X0167112Y0013244D01*
X0165864Y0013244D02*
X0164575Y0013244D01*
X0164575Y0016144D01*
X0165864Y0016144D01*
X0165542Y0014855D02*
X0164575Y0014855D01*
X0162978Y0014452D02*
X0162092Y0014935D01*
X0162414Y0016143D02*
X0162479Y0016141D01*
X0162543Y0016136D01*
X0162608Y0016127D01*
X0162671Y0016115D01*
X0162734Y0016100D01*
X0162796Y0016081D01*
X0162857Y0016059D01*
X0162916Y0016034D01*
X0162975Y0016005D01*
X0163031Y0015973D01*
X0163086Y0015939D01*
X0163139Y0015901D01*
X0162091Y0014935D02*
X0162051Y0014961D01*
X0162012Y0014990D01*
X0161975Y0015022D01*
X0161941Y0015057D01*
X0161910Y0015094D01*
X0161881Y0015133D01*
X0161855Y0015174D01*
X0161833Y0015217D01*
X0161814Y0015262D01*
X0161798Y0015308D01*
X0161785Y0015354D01*
X0161776Y0015402D01*
X0161771Y0015450D01*
X0161769Y0015499D01*
X0161770Y0015499D02*
X0161772Y0015547D01*
X0161777Y0015595D01*
X0161786Y0015642D01*
X0161799Y0015689D01*
X0161815Y0015734D01*
X0161834Y0015778D01*
X0161856Y0015821D01*
X0161882Y0015862D01*
X0161911Y0015901D01*
X0161942Y0015937D01*
X0161976Y0015971D01*
X0162012Y0016003D01*
X0162051Y0016031D01*
X0162092Y0016057D01*
X0162135Y0016079D01*
X0162179Y0016098D01*
X0162224Y0016114D01*
X0162271Y0016127D01*
X0162318Y0016136D01*
X0162366Y0016141D01*
X0162414Y0016143D01*
X0161690Y0013647D02*
X0161741Y0013597D01*
X0161796Y0013550D01*
X0161852Y0013507D01*
X0161911Y0013466D01*
X0161972Y0013428D01*
X0162035Y0013394D01*
X0162100Y0013363D01*
X0162166Y0013335D01*
X0162233Y0013311D01*
X0162302Y0013291D01*
X0162372Y0013274D01*
X0162442Y0013261D01*
X0162513Y0013252D01*
X0162584Y0013246D01*
X0162656Y0013244D01*
X0162704Y0013246D01*
X0162752Y0013251D01*
X0162799Y0013260D01*
X0162846Y0013273D01*
X0162891Y0013289D01*
X0162935Y0013308D01*
X0162978Y0013330D01*
X0163019Y0013356D01*
X0163058Y0013385D01*
X0163094Y0013416D01*
X0163128Y0013450D01*
X0163159Y0013486D01*
X0163188Y0013525D01*
X0163214Y0013566D01*
X0163236Y0013609D01*
X0163255Y0013653D01*
X0163271Y0013698D01*
X0163284Y0013745D01*
X0163293Y0013792D01*
X0163298Y0013840D01*
X0163300Y0013888D01*
X0163301Y0013888D02*
X0163299Y0013937D01*
X0163294Y0013985D01*
X0163285Y0014033D01*
X0163272Y0014079D01*
X0163256Y0014125D01*
X0163237Y0014170D01*
X0163215Y0014213D01*
X0163189Y0014254D01*
X0163160Y0014293D01*
X0163129Y0014330D01*
X0163095Y0014365D01*
X0163058Y0014397D01*
X0163019Y0014426D01*
X0162979Y0014452D01*
X0158980Y0014210D02*
X0158980Y0013888D01*
X0158978Y0013840D01*
X0158973Y0013792D01*
X0158964Y0013745D01*
X0158951Y0013698D01*
X0158935Y0013653D01*
X0158916Y0013609D01*
X0158894Y0013566D01*
X0158868Y0013525D01*
X0158839Y0013486D01*
X0158808Y0013450D01*
X0158774Y0013416D01*
X0158738Y0013385D01*
X0158699Y0013356D01*
X0158658Y0013330D01*
X0158615Y0013308D01*
X0158571Y0013289D01*
X0158526Y0013273D01*
X0158479Y0013260D01*
X0158432Y0013251D01*
X0158384Y0013246D01*
X0158336Y0013244D01*
X0157369Y0013244D01*
X0158980Y0014210D02*
X0158978Y0014258D01*
X0158973Y0014306D01*
X0158964Y0014353D01*
X0158951Y0014400D01*
X0158935Y0014445D01*
X0158916Y0014489D01*
X0158894Y0014532D01*
X0158868Y0014573D01*
X0158839Y0014612D01*
X0158808Y0014648D01*
X0158774Y0014682D01*
X0158738Y0014713D01*
X0158699Y0014742D01*
X0158658Y0014768D01*
X0158615Y0014790D01*
X0158571Y0014809D01*
X0158526Y0014825D01*
X0158479Y0014838D01*
X0158432Y0014847D01*
X0158384Y0014852D01*
X0158336Y0014854D01*
X0158336Y0014855D02*
X0157369Y0014855D01*
X0157369Y0016144D01*
X0158980Y0016144D01*
X0154726Y0016144D02*
X0153759Y0014774D01*
X0153759Y0013244D01*
X0153759Y0014774D02*
X0152792Y0016144D01*
X0150899Y0016144D02*
X0150093Y0016144D01*
X0150093Y0013244D01*
X0148872Y0013244D02*
X0147584Y0013244D01*
X0147584Y0016144D01*
X0148872Y0016144D01*
X0148550Y0014855D02*
X0147584Y0014855D01*
X0146116Y0014855D02*
X0144505Y0014855D01*
X0144505Y0016144D02*
X0144505Y0013244D01*
X0146116Y0013244D02*
X0146116Y0016144D01*
X0142914Y0014452D02*
X0142028Y0014935D01*
X0142350Y0016143D02*
X0142415Y0016141D01*
X0142479Y0016136D01*
X0142544Y0016127D01*
X0142607Y0016115D01*
X0142670Y0016100D01*
X0142732Y0016081D01*
X0142793Y0016059D01*
X0142852Y0016034D01*
X0142911Y0016005D01*
X0142967Y0015973D01*
X0143022Y0015939D01*
X0143075Y0015901D01*
X0142027Y0014935D02*
X0141987Y0014961D01*
X0141948Y0014990D01*
X0141911Y0015022D01*
X0141877Y0015057D01*
X0141846Y0015094D01*
X0141817Y0015133D01*
X0141791Y0015174D01*
X0141769Y0015217D01*
X0141750Y0015262D01*
X0141734Y0015308D01*
X0141721Y0015354D01*
X0141712Y0015402D01*
X0141707Y0015450D01*
X0141705Y0015499D01*
X0141706Y0015499D02*
X0141708Y0015547D01*
X0141713Y0015595D01*
X0141722Y0015642D01*
X0141735Y0015689D01*
X0141751Y0015734D01*
X0141770Y0015778D01*
X0141792Y0015821D01*
X0141818Y0015862D01*
X0141847Y0015901D01*
X0141878Y0015937D01*
X0141912Y0015971D01*
X0141948Y0016003D01*
X0141987Y0016031D01*
X0142028Y0016057D01*
X0142071Y0016079D01*
X0142115Y0016098D01*
X0142160Y0016114D01*
X0142207Y0016127D01*
X0142254Y0016136D01*
X0142302Y0016141D01*
X0142350Y0016143D01*
X0141626Y0013647D02*
X0141677Y0013597D01*
X0141732Y0013550D01*
X0141788Y0013507D01*
X0141847Y0013466D01*
X0141908Y0013428D01*
X0141971Y0013394D01*
X0142036Y0013363D01*
X0142102Y0013335D01*
X0142169Y0013311D01*
X0142238Y0013291D01*
X0142308Y0013274D01*
X0142378Y0013261D01*
X0142449Y0013252D01*
X0142520Y0013246D01*
X0142592Y0013244D01*
X0142640Y0013246D01*
X0142688Y0013251D01*
X0142735Y0013260D01*
X0142782Y0013273D01*
X0142827Y0013289D01*
X0142871Y0013308D01*
X0142914Y0013330D01*
X0142955Y0013356D01*
X0142994Y0013385D01*
X0143030Y0013416D01*
X0143064Y0013450D01*
X0143095Y0013486D01*
X0143124Y0013525D01*
X0143150Y0013566D01*
X0143172Y0013609D01*
X0143191Y0013653D01*
X0143207Y0013698D01*
X0143220Y0013745D01*
X0143229Y0013792D01*
X0143234Y0013840D01*
X0143236Y0013888D01*
X0143237Y0013888D02*
X0143235Y0013937D01*
X0143230Y0013985D01*
X0143221Y0014033D01*
X0143208Y0014079D01*
X0143192Y0014125D01*
X0143173Y0014170D01*
X0143151Y0014213D01*
X0143125Y0014254D01*
X0143096Y0014293D01*
X0143065Y0014330D01*
X0143031Y0014365D01*
X0142994Y0014397D01*
X0142955Y0014426D01*
X0142915Y0014452D01*
X0140545Y0013244D02*
X0139901Y0013244D01*
X0140223Y0013244D02*
X0140223Y0016144D01*
X0139901Y0016144D02*
X0140545Y0016144D01*
X0138888Y0016144D02*
X0137600Y0016144D01*
X0137600Y0013244D01*
X0136392Y0013244D02*
X0135104Y0013244D01*
X0135104Y0016144D01*
X0136392Y0016144D01*
X0136070Y0014855D02*
X0135104Y0014855D01*
X0137600Y0014855D02*
X0138888Y0014855D01*
X0139736Y0008270D02*
X0138769Y0006900D01*
X0138769Y0005370D01*
X0138769Y0006900D02*
X0137802Y0008270D01*
X0135909Y0008270D02*
X0135104Y0008270D01*
X0135104Y0005370D01*
X0135104Y0006659D02*
X0135909Y0006659D01*
X0136070Y0006659D02*
X0136715Y0005370D01*
X0135909Y0006658D02*
X0135964Y0006660D01*
X0136019Y0006666D01*
X0136073Y0006675D01*
X0136126Y0006688D01*
X0136179Y0006705D01*
X0136230Y0006725D01*
X0136280Y0006748D01*
X0136328Y0006775D01*
X0136374Y0006806D01*
X0136418Y0006839D01*
X0136459Y0006875D01*
X0136498Y0006914D01*
X0136534Y0006955D01*
X0136567Y0006999D01*
X0136598Y0007045D01*
X0136625Y0007093D01*
X0136648Y0007143D01*
X0136668Y0007194D01*
X0136685Y0007247D01*
X0136698Y0007300D01*
X0136707Y0007354D01*
X0136713Y0007409D01*
X0136715Y0007464D01*
X0136713Y0007519D01*
X0136707Y0007574D01*
X0136698Y0007628D01*
X0136685Y0007681D01*
X0136668Y0007734D01*
X0136648Y0007785D01*
X0136625Y0007835D01*
X0136598Y0007883D01*
X0136567Y0007929D01*
X0136534Y0007973D01*
X0136498Y0008014D01*
X0136459Y0008053D01*
X0136418Y0008089D01*
X0136374Y0008122D01*
X0136328Y0008153D01*
X0136280Y0008180D01*
X0136230Y0008203D01*
X0136179Y0008223D01*
X0136126Y0008240D01*
X0136073Y0008253D01*
X0136019Y0008262D01*
X0135964Y0008268D01*
X0135909Y0008270D01*
X0140924Y0006095D02*
X0142374Y0006095D01*
X0142616Y0005370D02*
X0141649Y0008270D01*
X0140682Y0005370D01*
X0143819Y0005370D02*
X0143819Y0008270D01*
X0145430Y0005370D01*
X0145430Y0008270D01*
X0148139Y0008270D02*
X0149750Y0008270D01*
X0148945Y0008270D02*
X0148945Y0005370D01*
X0150943Y0005370D02*
X0150943Y0008270D01*
X0151749Y0008270D01*
X0151804Y0008268D01*
X0151859Y0008262D01*
X0151913Y0008253D01*
X0151966Y0008240D01*
X0152019Y0008223D01*
X0152070Y0008203D01*
X0152120Y0008180D01*
X0152168Y0008153D01*
X0152214Y0008122D01*
X0152258Y0008089D01*
X0152299Y0008053D01*
X0152338Y0008014D01*
X0152374Y0007973D01*
X0152407Y0007929D01*
X0152438Y0007883D01*
X0152465Y0007835D01*
X0152488Y0007785D01*
X0152508Y0007734D01*
X0152525Y0007681D01*
X0152538Y0007628D01*
X0152547Y0007574D01*
X0152553Y0007519D01*
X0152555Y0007464D01*
X0152553Y0007409D01*
X0152547Y0007354D01*
X0152538Y0007300D01*
X0152525Y0007247D01*
X0152508Y0007194D01*
X0152488Y0007143D01*
X0152465Y0007093D01*
X0152438Y0007045D01*
X0152407Y0006999D01*
X0152374Y0006955D01*
X0152338Y0006914D01*
X0152299Y0006875D01*
X0152258Y0006839D01*
X0152214Y0006806D01*
X0152168Y0006775D01*
X0152120Y0006748D01*
X0152070Y0006725D01*
X0152019Y0006705D01*
X0151966Y0006688D01*
X0151913Y0006675D01*
X0151859Y0006666D01*
X0151804Y0006660D01*
X0151749Y0006658D01*
X0151749Y0006659D02*
X0150943Y0006659D01*
X0151910Y0006659D02*
X0152555Y0005370D01*
X0153711Y0005370D02*
X0154355Y0005370D01*
X0154033Y0005370D02*
X0154033Y0008270D01*
X0153711Y0008270D02*
X0154355Y0008270D01*
X0155838Y0007061D02*
X0156724Y0006578D01*
X0156402Y0005370D02*
X0156330Y0005372D01*
X0156259Y0005378D01*
X0156188Y0005387D01*
X0156118Y0005400D01*
X0156048Y0005417D01*
X0155979Y0005437D01*
X0155912Y0005461D01*
X0155846Y0005489D01*
X0155781Y0005520D01*
X0155718Y0005554D01*
X0155657Y0005592D01*
X0155598Y0005633D01*
X0155542Y0005676D01*
X0155487Y0005723D01*
X0155436Y0005773D01*
X0156725Y0006578D02*
X0156765Y0006552D01*
X0156804Y0006523D01*
X0156841Y0006491D01*
X0156875Y0006456D01*
X0156906Y0006419D01*
X0156935Y0006380D01*
X0156961Y0006339D01*
X0156983Y0006296D01*
X0157002Y0006251D01*
X0157018Y0006205D01*
X0157031Y0006159D01*
X0157040Y0006111D01*
X0157045Y0006063D01*
X0157047Y0006014D01*
X0157046Y0006014D02*
X0157044Y0005966D01*
X0157039Y0005918D01*
X0157030Y0005871D01*
X0157017Y0005824D01*
X0157001Y0005779D01*
X0156982Y0005735D01*
X0156960Y0005692D01*
X0156934Y0005651D01*
X0156905Y0005612D01*
X0156874Y0005576D01*
X0156840Y0005542D01*
X0156804Y0005511D01*
X0156765Y0005482D01*
X0156724Y0005456D01*
X0156681Y0005434D01*
X0156637Y0005415D01*
X0156592Y0005399D01*
X0156545Y0005386D01*
X0156498Y0005377D01*
X0156450Y0005372D01*
X0156402Y0005370D01*
X0156885Y0008027D02*
X0156832Y0008065D01*
X0156777Y0008099D01*
X0156721Y0008131D01*
X0156662Y0008160D01*
X0156603Y0008185D01*
X0156542Y0008207D01*
X0156480Y0008226D01*
X0156417Y0008241D01*
X0156354Y0008253D01*
X0156289Y0008262D01*
X0156225Y0008267D01*
X0156160Y0008269D01*
X0156112Y0008267D01*
X0156064Y0008262D01*
X0156017Y0008253D01*
X0155970Y0008240D01*
X0155925Y0008224D01*
X0155881Y0008205D01*
X0155838Y0008183D01*
X0155797Y0008157D01*
X0155758Y0008129D01*
X0155722Y0008097D01*
X0155688Y0008063D01*
X0155657Y0008027D01*
X0155628Y0007988D01*
X0155602Y0007947D01*
X0155580Y0007904D01*
X0155561Y0007860D01*
X0155545Y0007815D01*
X0155532Y0007768D01*
X0155523Y0007721D01*
X0155518Y0007673D01*
X0155516Y0007625D01*
X0155515Y0007625D02*
X0155517Y0007576D01*
X0155522Y0007528D01*
X0155531Y0007480D01*
X0155544Y0007434D01*
X0155560Y0007388D01*
X0155579Y0007343D01*
X0155601Y0007300D01*
X0155627Y0007259D01*
X0155656Y0007220D01*
X0155687Y0007183D01*
X0155721Y0007148D01*
X0155758Y0007116D01*
X0155797Y0007087D01*
X0155837Y0007061D01*
X0158315Y0008270D02*
X0158315Y0005370D01*
X0159926Y0005370D02*
X0158315Y0008270D01*
X0159926Y0008270D02*
X0159926Y0005370D01*
X0161291Y0006175D02*
X0161291Y0007464D01*
X0161293Y0007519D01*
X0161299Y0007574D01*
X0161308Y0007628D01*
X0161321Y0007681D01*
X0161338Y0007734D01*
X0161358Y0007785D01*
X0161381Y0007835D01*
X0161408Y0007883D01*
X0161439Y0007929D01*
X0161472Y0007973D01*
X0161508Y0008014D01*
X0161547Y0008053D01*
X0161588Y0008089D01*
X0161632Y0008122D01*
X0161678Y0008153D01*
X0161726Y0008180D01*
X0161776Y0008203D01*
X0161827Y0008223D01*
X0161880Y0008240D01*
X0161933Y0008253D01*
X0161987Y0008262D01*
X0162042Y0008268D01*
X0162097Y0008270D01*
X0162152Y0008268D01*
X0162207Y0008262D01*
X0162261Y0008253D01*
X0162314Y0008240D01*
X0162367Y0008223D01*
X0162418Y0008203D01*
X0162468Y0008180D01*
X0162516Y0008153D01*
X0162562Y0008122D01*
X0162606Y0008089D01*
X0162647Y0008053D01*
X0162686Y0008014D01*
X0162722Y0007973D01*
X0162755Y0007929D01*
X0162786Y0007883D01*
X0162813Y0007835D01*
X0162836Y0007785D01*
X0162856Y0007734D01*
X0162873Y0007681D01*
X0162886Y0007628D01*
X0162895Y0007574D01*
X0162901Y0007519D01*
X0162903Y0007464D01*
X0162902Y0007464D02*
X0162902Y0006175D01*
X0162903Y0006175D02*
X0162901Y0006120D01*
X0162895Y0006065D01*
X0162886Y0006011D01*
X0162873Y0005958D01*
X0162856Y0005905D01*
X0162836Y0005854D01*
X0162813Y0005804D01*
X0162786Y0005756D01*
X0162755Y0005710D01*
X0162722Y0005666D01*
X0162686Y0005625D01*
X0162647Y0005586D01*
X0162606Y0005550D01*
X0162562Y0005517D01*
X0162516Y0005486D01*
X0162468Y0005459D01*
X0162418Y0005436D01*
X0162367Y0005416D01*
X0162314Y0005399D01*
X0162261Y0005386D01*
X0162207Y0005377D01*
X0162152Y0005371D01*
X0162097Y0005369D01*
X0162042Y0005371D01*
X0161987Y0005377D01*
X0161933Y0005386D01*
X0161880Y0005399D01*
X0161827Y0005416D01*
X0161776Y0005436D01*
X0161726Y0005459D01*
X0161678Y0005486D01*
X0161632Y0005517D01*
X0161588Y0005550D01*
X0161547Y0005586D01*
X0161508Y0005625D01*
X0161472Y0005666D01*
X0161439Y0005710D01*
X0161408Y0005756D01*
X0161381Y0005804D01*
X0161358Y0005854D01*
X0161338Y0005905D01*
X0161321Y0005958D01*
X0161308Y0006011D01*
X0161299Y0006065D01*
X0161293Y0006120D01*
X0161291Y0006175D01*
X0163869Y0005370D02*
X0164191Y0005370D01*
X0164239Y0005372D01*
X0164287Y0005377D01*
X0164334Y0005386D01*
X0164381Y0005399D01*
X0164426Y0005415D01*
X0164470Y0005434D01*
X0164513Y0005456D01*
X0164554Y0005482D01*
X0164593Y0005511D01*
X0164629Y0005542D01*
X0164663Y0005576D01*
X0164694Y0005612D01*
X0164723Y0005651D01*
X0164749Y0005692D01*
X0164771Y0005735D01*
X0164790Y0005779D01*
X0164806Y0005824D01*
X0164819Y0005871D01*
X0164828Y0005918D01*
X0164833Y0005966D01*
X0164835Y0006014D01*
X0164835Y0008270D01*
X0166187Y0007464D02*
X0166187Y0006175D01*
X0166189Y0006120D01*
X0166195Y0006065D01*
X0166204Y0006011D01*
X0166217Y0005958D01*
X0166234Y0005905D01*
X0166254Y0005854D01*
X0166277Y0005804D01*
X0166304Y0005756D01*
X0166335Y0005710D01*
X0166368Y0005666D01*
X0166404Y0005625D01*
X0166443Y0005586D01*
X0166484Y0005550D01*
X0166528Y0005517D01*
X0166574Y0005486D01*
X0166622Y0005459D01*
X0166672Y0005436D01*
X0166723Y0005416D01*
X0166776Y0005399D01*
X0166829Y0005386D01*
X0166883Y0005377D01*
X0166938Y0005371D01*
X0166993Y0005369D01*
X0167048Y0005371D01*
X0167103Y0005377D01*
X0167157Y0005386D01*
X0167210Y0005399D01*
X0167263Y0005416D01*
X0167314Y0005436D01*
X0167364Y0005459D01*
X0167412Y0005486D01*
X0167458Y0005517D01*
X0167502Y0005550D01*
X0167543Y0005586D01*
X0167582Y0005625D01*
X0167618Y0005666D01*
X0167651Y0005710D01*
X0167682Y0005756D01*
X0167709Y0005804D01*
X0167732Y0005854D01*
X0167752Y0005905D01*
X0167769Y0005958D01*
X0167782Y0006011D01*
X0167791Y0006065D01*
X0167797Y0006120D01*
X0167799Y0006175D01*
X0167798Y0006175D02*
X0167798Y0007464D01*
X0167799Y0007464D02*
X0167797Y0007519D01*
X0167791Y0007574D01*
X0167782Y0007628D01*
X0167769Y0007681D01*
X0167752Y0007734D01*
X0167732Y0007785D01*
X0167709Y0007835D01*
X0167682Y0007883D01*
X0167651Y0007929D01*
X0167618Y0007973D01*
X0167582Y0008014D01*
X0167543Y0008053D01*
X0167502Y0008089D01*
X0167458Y0008122D01*
X0167412Y0008153D01*
X0167364Y0008180D01*
X0167314Y0008203D01*
X0167263Y0008223D01*
X0167210Y0008240D01*
X0167157Y0008253D01*
X0167103Y0008262D01*
X0167048Y0008268D01*
X0166993Y0008270D01*
X0166938Y0008268D01*
X0166883Y0008262D01*
X0166829Y0008253D01*
X0166776Y0008240D01*
X0166723Y0008223D01*
X0166672Y0008203D01*
X0166622Y0008180D01*
X0166574Y0008153D01*
X0166528Y0008122D01*
X0166484Y0008089D01*
X0166443Y0008053D01*
X0166404Y0008014D01*
X0166368Y0007973D01*
X0166335Y0007929D01*
X0166304Y0007883D01*
X0166277Y0007835D01*
X0166254Y0007785D01*
X0166234Y0007734D01*
X0166217Y0007681D01*
X0166204Y0007628D01*
X0166195Y0007574D01*
X0166189Y0007519D01*
X0166187Y0007464D01*
X0168906Y0008270D02*
X0169873Y0006900D01*
X0169873Y0005370D01*
X0169873Y0006900D02*
X0170840Y0008270D01*
X0171947Y0007464D02*
X0171947Y0006175D01*
X0171949Y0006120D01*
X0171955Y0006065D01*
X0171964Y0006011D01*
X0171977Y0005958D01*
X0171994Y0005905D01*
X0172014Y0005854D01*
X0172037Y0005804D01*
X0172064Y0005756D01*
X0172095Y0005710D01*
X0172128Y0005666D01*
X0172164Y0005625D01*
X0172203Y0005586D01*
X0172244Y0005550D01*
X0172288Y0005517D01*
X0172334Y0005486D01*
X0172382Y0005459D01*
X0172432Y0005436D01*
X0172483Y0005416D01*
X0172536Y0005399D01*
X0172589Y0005386D01*
X0172643Y0005377D01*
X0172698Y0005371D01*
X0172753Y0005369D01*
X0172808Y0005371D01*
X0172863Y0005377D01*
X0172917Y0005386D01*
X0172970Y0005399D01*
X0173023Y0005416D01*
X0173074Y0005436D01*
X0173124Y0005459D01*
X0173172Y0005486D01*
X0173218Y0005517D01*
X0173262Y0005550D01*
X0173303Y0005586D01*
X0173342Y0005625D01*
X0173378Y0005666D01*
X0173411Y0005710D01*
X0173442Y0005756D01*
X0173469Y0005804D01*
X0173492Y0005854D01*
X0173512Y0005905D01*
X0173529Y0005958D01*
X0173542Y0006011D01*
X0173551Y0006065D01*
X0173557Y0006120D01*
X0173559Y0006175D01*
X0173558Y0006175D02*
X0173558Y0007464D01*
X0173559Y0007464D02*
X0173557Y0007519D01*
X0173551Y0007574D01*
X0173542Y0007628D01*
X0173529Y0007681D01*
X0173512Y0007734D01*
X0173492Y0007785D01*
X0173469Y0007835D01*
X0173442Y0007883D01*
X0173411Y0007929D01*
X0173378Y0007973D01*
X0173342Y0008014D01*
X0173303Y0008053D01*
X0173262Y0008089D01*
X0173218Y0008122D01*
X0173172Y0008153D01*
X0173124Y0008180D01*
X0173074Y0008203D01*
X0173023Y0008223D01*
X0172970Y0008240D01*
X0172917Y0008253D01*
X0172863Y0008262D01*
X0172808Y0008268D01*
X0172753Y0008270D01*
X0172698Y0008268D01*
X0172643Y0008262D01*
X0172589Y0008253D01*
X0172536Y0008240D01*
X0172483Y0008223D01*
X0172432Y0008203D01*
X0172382Y0008180D01*
X0172334Y0008153D01*
X0172288Y0008122D01*
X0172244Y0008089D01*
X0172203Y0008053D01*
X0172164Y0008014D01*
X0172128Y0007973D01*
X0172095Y0007929D01*
X0172064Y0007883D01*
X0172037Y0007835D01*
X0172014Y0007785D01*
X0171994Y0007734D01*
X0171977Y0007681D01*
X0171964Y0007628D01*
X0171955Y0007574D01*
X0171949Y0007519D01*
X0171947Y0007464D01*
X0151705Y0013244D02*
X0151060Y0014533D01*
X0150899Y0014533D02*
X0150093Y0014533D01*
X0150899Y0014532D02*
X0150954Y0014534D01*
X0151009Y0014540D01*
X0151063Y0014549D01*
X0151116Y0014562D01*
X0151169Y0014579D01*
X0151220Y0014599D01*
X0151270Y0014622D01*
X0151318Y0014649D01*
X0151364Y0014680D01*
X0151408Y0014713D01*
X0151449Y0014749D01*
X0151488Y0014788D01*
X0151524Y0014829D01*
X0151557Y0014873D01*
X0151588Y0014919D01*
X0151615Y0014967D01*
X0151638Y0015017D01*
X0151658Y0015068D01*
X0151675Y0015121D01*
X0151688Y0015174D01*
X0151697Y0015228D01*
X0151703Y0015283D01*
X0151705Y0015338D01*
X0151703Y0015393D01*
X0151697Y0015448D01*
X0151688Y0015502D01*
X0151675Y0015555D01*
X0151658Y0015608D01*
X0151638Y0015659D01*
X0151615Y0015709D01*
X0151588Y0015757D01*
X0151557Y0015803D01*
X0151524Y0015847D01*
X0151488Y0015888D01*
X0151449Y0015927D01*
X0151408Y0015963D01*
X0151364Y0015996D01*
X0151318Y0016027D01*
X0151270Y0016054D01*
X0151220Y0016077D01*
X0151169Y0016097D01*
X0151116Y0016114D01*
X0151063Y0016127D01*
X0151009Y0016136D01*
X0150954Y0016142D01*
X0150899Y0016144D01*
D13*
X0185662Y0040752D02*
X0186162Y0040752D01*
X0186222Y0040754D01*
X0186283Y0040759D01*
X0186342Y0040768D01*
X0186401Y0040781D01*
X0186460Y0040797D01*
X0186517Y0040817D01*
X0186572Y0040840D01*
X0186627Y0040867D01*
X0186679Y0040896D01*
X0186730Y0040929D01*
X0186779Y0040965D01*
X0186825Y0041003D01*
X0186869Y0041045D01*
X0186911Y0041089D01*
X0186949Y0041135D01*
X0186985Y0041184D01*
X0187018Y0041235D01*
X0187047Y0041287D01*
X0187074Y0041342D01*
X0187097Y0041397D01*
X0187117Y0041454D01*
X0187133Y0041513D01*
X0187146Y0041572D01*
X0187155Y0041631D01*
X0187160Y0041692D01*
X0187162Y0041752D01*
X0187162Y0045252D01*
X0189517Y0045252D02*
X0189517Y0040752D01*
X0189517Y0042752D02*
X0190767Y0042752D01*
X0190836Y0042754D01*
X0190905Y0042760D01*
X0190973Y0042769D01*
X0191040Y0042782D01*
X0191107Y0042799D01*
X0191173Y0042820D01*
X0191237Y0042844D01*
X0191300Y0042872D01*
X0191362Y0042903D01*
X0191422Y0042937D01*
X0191479Y0042975D01*
X0191535Y0043016D01*
X0191588Y0043059D01*
X0191639Y0043106D01*
X0191687Y0043155D01*
X0191732Y0043207D01*
X0191774Y0043262D01*
X0191813Y0043318D01*
X0191850Y0043377D01*
X0191882Y0043438D01*
X0191912Y0043500D01*
X0191938Y0043564D01*
X0191960Y0043629D01*
X0191979Y0043695D01*
X0191994Y0043762D01*
X0192005Y0043830D01*
X0192013Y0043899D01*
X0192017Y0043968D01*
X0192017Y0044036D01*
X0192013Y0044105D01*
X0192005Y0044174D01*
X0191994Y0044242D01*
X0191979Y0044309D01*
X0191960Y0044375D01*
X0191938Y0044440D01*
X0191912Y0044504D01*
X0191882Y0044566D01*
X0191850Y0044627D01*
X0191813Y0044686D01*
X0191774Y0044742D01*
X0191732Y0044797D01*
X0191687Y0044849D01*
X0191639Y0044898D01*
X0191588Y0044945D01*
X0191535Y0044988D01*
X0191479Y0045029D01*
X0191422Y0045067D01*
X0191362Y0045101D01*
X0191300Y0045132D01*
X0191237Y0045160D01*
X0191173Y0045184D01*
X0191107Y0045205D01*
X0191040Y0045222D01*
X0190973Y0045235D01*
X0190905Y0045244D01*
X0190836Y0045250D01*
X0190767Y0045252D01*
X0189517Y0045252D01*
X0195916Y0043252D02*
X0195962Y0043298D01*
X0196006Y0043347D01*
X0196046Y0043398D01*
X0196084Y0043451D01*
X0196119Y0043506D01*
X0196151Y0043563D01*
X0196180Y0043621D01*
X0196206Y0043681D01*
X0196228Y0043743D01*
X0196247Y0043805D01*
X0196263Y0043868D01*
X0196275Y0043932D01*
X0196284Y0043997D01*
X0196289Y0044062D01*
X0196291Y0044127D01*
X0195917Y0043252D02*
X0193792Y0040752D01*
X0196292Y0040752D01*
X0193792Y0044251D02*
X0193816Y0044320D01*
X0193844Y0044387D01*
X0193875Y0044453D01*
X0193909Y0044517D01*
X0193946Y0044579D01*
X0193987Y0044640D01*
X0194030Y0044698D01*
X0194076Y0044754D01*
X0194126Y0044808D01*
X0194177Y0044859D01*
X0194231Y0044907D01*
X0194288Y0044953D01*
X0194347Y0044996D01*
X0194408Y0045035D01*
X0194470Y0045072D01*
X0194535Y0045105D01*
X0194601Y0045136D01*
X0194669Y0045162D01*
X0194737Y0045186D01*
X0194807Y0045206D01*
X0194878Y0045222D01*
X0194950Y0045235D01*
X0195022Y0045244D01*
X0195094Y0045249D01*
X0195167Y0045251D01*
X0195167Y0045252D02*
X0195232Y0045250D01*
X0195298Y0045244D01*
X0195362Y0045235D01*
X0195426Y0045222D01*
X0195490Y0045205D01*
X0195552Y0045184D01*
X0195613Y0045160D01*
X0195672Y0045132D01*
X0195730Y0045101D01*
X0195785Y0045067D01*
X0195839Y0045029D01*
X0195890Y0044989D01*
X0195939Y0044945D01*
X0195985Y0044899D01*
X0196029Y0044850D01*
X0196069Y0044799D01*
X0196107Y0044745D01*
X0196141Y0044690D01*
X0196172Y0044632D01*
X0196200Y0044573D01*
X0196224Y0044512D01*
X0196245Y0044450D01*
X0196262Y0044386D01*
X0196275Y0044322D01*
X0196284Y0044258D01*
X0196290Y0044192D01*
X0196292Y0044127D01*
X0103662Y0076103D02*
X0103662Y0151694D01*
X0032796Y0151694D01*
X0032796Y0076103D01*
X0103662Y0076103D01*
X0074135Y0107599D02*
X0074135Y0127284D01*
X0054450Y0127284D01*
X0054450Y0107599D01*
X0074135Y0107599D01*
X0103662Y0151694D02*
X0103662Y0176497D01*
X0032796Y0176497D01*
X0032796Y0151694D01*
X0022235Y0192338D02*
X0019735Y0194213D01*
X0018775Y0194213D01*
X0019735Y0194213D02*
X0019735Y0196089D01*
X0019735Y0194213D02*
X0019735Y0192338D01*
X0019735Y0194213D02*
X0022235Y0196089D01*
X0022235Y0194213D01*
X0023195Y0194213D01*
X0022235Y0194213D02*
X0022235Y0192338D01*
X0022235Y0212023D02*
X0019735Y0213898D01*
X0018775Y0213898D01*
X0019735Y0213898D02*
X0019735Y0215774D01*
X0019735Y0213898D02*
X0019735Y0212023D01*
X0019735Y0213898D02*
X0022235Y0215774D01*
X0022235Y0213898D01*
X0023195Y0213898D01*
X0022235Y0213898D02*
X0022235Y0212023D01*
X0069117Y0041509D02*
X0072928Y0041509D01*
X0072928Y0029698D02*
X0069117Y0029698D01*
X0021469Y0034661D02*
X0021469Y0005133D01*
X0001783Y0005133D01*
X0001783Y0034661D01*
X0021469Y0034661D01*
X0173128Y0199863D02*
X0181002Y0199863D01*
X0181002Y0200650D01*
X0181002Y0204587D02*
X0181002Y0206556D01*
X0181002Y0210493D02*
X0181002Y0212461D01*
X0181002Y0216398D02*
X0181002Y0217186D01*
X0173128Y0217186D01*
X0173128Y0216398D01*
X0173128Y0212461D02*
X0173128Y0210493D01*
X0173128Y0206556D02*
X0173128Y0204587D01*
X0173128Y0200650D02*
X0173128Y0199863D01*
D14*
X0175824Y0184840D02*
X0177102Y0184840D01*
X0177172Y0184838D01*
X0177243Y0184832D01*
X0177312Y0184823D01*
X0177381Y0184809D01*
X0177450Y0184792D01*
X0177517Y0184771D01*
X0177583Y0184746D01*
X0177647Y0184718D01*
X0177710Y0184686D01*
X0177771Y0184651D01*
X0177830Y0184612D01*
X0177887Y0184571D01*
X0177941Y0184526D01*
X0177993Y0184478D01*
X0178042Y0184428D01*
X0178089Y0184374D01*
X0178132Y0184319D01*
X0178172Y0184261D01*
X0178209Y0184201D01*
X0178242Y0184139D01*
X0178272Y0184075D01*
X0178299Y0184010D01*
X0178322Y0183944D01*
X0178341Y0183876D01*
X0178356Y0183807D01*
X0178368Y0183738D01*
X0178376Y0183668D01*
X0178380Y0183597D01*
X0178380Y0183527D01*
X0178376Y0183456D01*
X0178368Y0183386D01*
X0178356Y0183317D01*
X0178341Y0183248D01*
X0178322Y0183180D01*
X0178299Y0183114D01*
X0178272Y0183049D01*
X0178242Y0182985D01*
X0178209Y0182923D01*
X0178172Y0182863D01*
X0178132Y0182805D01*
X0178089Y0182750D01*
X0178042Y0182696D01*
X0177993Y0182646D01*
X0177941Y0182598D01*
X0177887Y0182553D01*
X0177830Y0182512D01*
X0177771Y0182473D01*
X0177710Y0182438D01*
X0177647Y0182406D01*
X0177583Y0182378D01*
X0177517Y0182353D01*
X0177450Y0182332D01*
X0177381Y0182315D01*
X0177312Y0182301D01*
X0177243Y0182292D01*
X0177172Y0182286D01*
X0177102Y0182284D01*
X0177102Y0182285D02*
X0175824Y0182285D01*
X0177357Y0182285D02*
X0178379Y0180240D01*
X0180295Y0180240D02*
X0182850Y0180240D01*
X0181573Y0180240D02*
X0181573Y0184840D01*
X0180295Y0183818D01*
X0187351Y0182540D02*
X0187349Y0182425D01*
X0187344Y0182311D01*
X0187335Y0182197D01*
X0187323Y0182083D01*
X0187308Y0181969D01*
X0187289Y0181856D01*
X0187266Y0181744D01*
X0187241Y0181632D01*
X0187211Y0181521D01*
X0187179Y0181411D01*
X0187143Y0181302D01*
X0187104Y0181194D01*
X0187062Y0181088D01*
X0187016Y0180983D01*
X0186968Y0180879D01*
X0186947Y0180824D01*
X0186923Y0180771D01*
X0186896Y0180719D01*
X0186865Y0180669D01*
X0186832Y0180621D01*
X0186795Y0180575D01*
X0186756Y0180531D01*
X0186714Y0180490D01*
X0186670Y0180452D01*
X0186623Y0180416D01*
X0186574Y0180384D01*
X0186523Y0180354D01*
X0186471Y0180328D01*
X0186417Y0180305D01*
X0186362Y0180285D01*
X0186305Y0180269D01*
X0186248Y0180256D01*
X0186190Y0180247D01*
X0186132Y0180242D01*
X0186073Y0180240D01*
X0186014Y0180242D01*
X0185956Y0180247D01*
X0185898Y0180256D01*
X0185841Y0180269D01*
X0185784Y0180285D01*
X0185729Y0180305D01*
X0185675Y0180328D01*
X0185623Y0180354D01*
X0185572Y0180384D01*
X0185523Y0180416D01*
X0185476Y0180452D01*
X0185432Y0180490D01*
X0185390Y0180531D01*
X0185351Y0180575D01*
X0185314Y0180621D01*
X0185281Y0180669D01*
X0185250Y0180719D01*
X0185223Y0180771D01*
X0185199Y0180824D01*
X0185178Y0180879D01*
X0185050Y0181262D02*
X0187095Y0183818D01*
X0186968Y0184202D02*
X0186947Y0184257D01*
X0186923Y0184310D01*
X0186896Y0184362D01*
X0186865Y0184412D01*
X0186832Y0184460D01*
X0186795Y0184506D01*
X0186756Y0184550D01*
X0186714Y0184591D01*
X0186670Y0184629D01*
X0186623Y0184665D01*
X0186574Y0184697D01*
X0186523Y0184727D01*
X0186471Y0184753D01*
X0186417Y0184776D01*
X0186362Y0184796D01*
X0186305Y0184812D01*
X0186248Y0184825D01*
X0186190Y0184834D01*
X0186132Y0184839D01*
X0186073Y0184841D01*
X0186014Y0184839D01*
X0185956Y0184834D01*
X0185898Y0184825D01*
X0185841Y0184812D01*
X0185784Y0184796D01*
X0185729Y0184776D01*
X0185675Y0184753D01*
X0185623Y0184727D01*
X0185572Y0184697D01*
X0185523Y0184665D01*
X0185476Y0184629D01*
X0185432Y0184591D01*
X0185390Y0184550D01*
X0185351Y0184506D01*
X0185314Y0184460D01*
X0185281Y0184412D01*
X0185250Y0184362D01*
X0185223Y0184310D01*
X0185199Y0184257D01*
X0185178Y0184202D01*
X0186968Y0184201D02*
X0187016Y0184097D01*
X0187062Y0183992D01*
X0187104Y0183886D01*
X0187143Y0183778D01*
X0187179Y0183669D01*
X0187211Y0183559D01*
X0187241Y0183448D01*
X0187266Y0183336D01*
X0187289Y0183224D01*
X0187308Y0183111D01*
X0187323Y0182997D01*
X0187335Y0182883D01*
X0187344Y0182769D01*
X0187349Y0182655D01*
X0187351Y0182540D01*
X0184795Y0182540D02*
X0184797Y0182655D01*
X0184802Y0182769D01*
X0184811Y0182883D01*
X0184823Y0182997D01*
X0184838Y0183111D01*
X0184857Y0183224D01*
X0184880Y0183336D01*
X0184905Y0183448D01*
X0184935Y0183559D01*
X0184967Y0183669D01*
X0185003Y0183778D01*
X0185042Y0183886D01*
X0185084Y0183992D01*
X0185130Y0184097D01*
X0185178Y0184201D01*
X0184795Y0182540D02*
X0184797Y0182425D01*
X0184802Y0182311D01*
X0184811Y0182197D01*
X0184823Y0182083D01*
X0184838Y0181969D01*
X0184857Y0181856D01*
X0184880Y0181744D01*
X0184905Y0181632D01*
X0184935Y0181521D01*
X0184967Y0181411D01*
X0185003Y0181302D01*
X0185042Y0181194D01*
X0185084Y0181088D01*
X0185130Y0180983D01*
X0185178Y0180879D01*
X0175824Y0180240D02*
X0175824Y0184840D01*
X0101534Y0207626D02*
X0101486Y0207730D01*
X0101440Y0207835D01*
X0101398Y0207941D01*
X0101359Y0208049D01*
X0101323Y0208158D01*
X0101291Y0208268D01*
X0101261Y0208379D01*
X0101236Y0208491D01*
X0101213Y0208603D01*
X0101194Y0208716D01*
X0101179Y0208830D01*
X0101167Y0208944D01*
X0101158Y0209058D01*
X0101153Y0209172D01*
X0101151Y0209287D01*
X0103707Y0209287D02*
X0103705Y0209402D01*
X0103700Y0209516D01*
X0103691Y0209630D01*
X0103679Y0209744D01*
X0103664Y0209858D01*
X0103645Y0209971D01*
X0103622Y0210083D01*
X0103597Y0210195D01*
X0103567Y0210306D01*
X0103535Y0210416D01*
X0103499Y0210525D01*
X0103460Y0210633D01*
X0103418Y0210739D01*
X0103372Y0210844D01*
X0103324Y0210948D01*
X0103451Y0210565D02*
X0101407Y0208010D01*
X0102429Y0206987D02*
X0102488Y0206989D01*
X0102546Y0206994D01*
X0102604Y0207003D01*
X0102661Y0207016D01*
X0102718Y0207032D01*
X0102773Y0207052D01*
X0102827Y0207075D01*
X0102879Y0207101D01*
X0102930Y0207131D01*
X0102979Y0207163D01*
X0103026Y0207199D01*
X0103070Y0207237D01*
X0103112Y0207278D01*
X0103151Y0207322D01*
X0103188Y0207368D01*
X0103221Y0207416D01*
X0103252Y0207466D01*
X0103279Y0207518D01*
X0103303Y0207571D01*
X0103324Y0207626D01*
X0102429Y0206987D02*
X0102370Y0206989D01*
X0102312Y0206994D01*
X0102254Y0207003D01*
X0102197Y0207016D01*
X0102140Y0207032D01*
X0102085Y0207052D01*
X0102031Y0207075D01*
X0101979Y0207101D01*
X0101928Y0207131D01*
X0101879Y0207163D01*
X0101832Y0207199D01*
X0101788Y0207237D01*
X0101746Y0207278D01*
X0101707Y0207322D01*
X0101670Y0207368D01*
X0101637Y0207416D01*
X0101606Y0207466D01*
X0101579Y0207518D01*
X0101555Y0207571D01*
X0101534Y0207626D01*
X0103324Y0207626D02*
X0103372Y0207730D01*
X0103418Y0207835D01*
X0103460Y0207941D01*
X0103499Y0208049D01*
X0103535Y0208158D01*
X0103567Y0208268D01*
X0103597Y0208379D01*
X0103622Y0208491D01*
X0103645Y0208603D01*
X0103664Y0208716D01*
X0103679Y0208830D01*
X0103691Y0208944D01*
X0103700Y0209058D01*
X0103705Y0209172D01*
X0103707Y0209287D01*
X0101151Y0209287D02*
X0101153Y0209402D01*
X0101158Y0209516D01*
X0101167Y0209630D01*
X0101179Y0209744D01*
X0101194Y0209858D01*
X0101213Y0209971D01*
X0101236Y0210083D01*
X0101261Y0210195D01*
X0101291Y0210306D01*
X0101323Y0210416D01*
X0101359Y0210525D01*
X0101398Y0210633D01*
X0101440Y0210739D01*
X0101486Y0210844D01*
X0101534Y0210948D01*
X0102429Y0211588D02*
X0102488Y0211586D01*
X0102546Y0211581D01*
X0102604Y0211572D01*
X0102661Y0211559D01*
X0102718Y0211543D01*
X0102773Y0211523D01*
X0102827Y0211500D01*
X0102879Y0211474D01*
X0102930Y0211444D01*
X0102979Y0211412D01*
X0103026Y0211376D01*
X0103070Y0211338D01*
X0103112Y0211297D01*
X0103151Y0211253D01*
X0103188Y0211207D01*
X0103221Y0211159D01*
X0103252Y0211109D01*
X0103279Y0211057D01*
X0103303Y0211004D01*
X0103324Y0210949D01*
X0102429Y0211588D02*
X0102370Y0211586D01*
X0102312Y0211581D01*
X0102254Y0211572D01*
X0102197Y0211559D01*
X0102140Y0211543D01*
X0102085Y0211523D01*
X0102031Y0211500D01*
X0101979Y0211474D01*
X0101928Y0211444D01*
X0101879Y0211412D01*
X0101832Y0211376D01*
X0101788Y0211338D01*
X0101746Y0211297D01*
X0101707Y0211253D01*
X0101670Y0211207D01*
X0101637Y0211159D01*
X0101606Y0211109D01*
X0101579Y0211057D01*
X0101555Y0211004D01*
X0101534Y0210949D01*
X0097929Y0211587D02*
X0097929Y0206987D01*
X0096651Y0206987D02*
X0099207Y0206987D01*
X0096651Y0210565D02*
X0097929Y0211587D01*
X0094933Y0211587D02*
X0093910Y0211587D01*
X0093848Y0211585D01*
X0093787Y0211580D01*
X0093726Y0211570D01*
X0093665Y0211557D01*
X0093606Y0211541D01*
X0093548Y0211521D01*
X0093491Y0211497D01*
X0093435Y0211470D01*
X0093381Y0211440D01*
X0093329Y0211406D01*
X0093280Y0211369D01*
X0093232Y0211330D01*
X0093187Y0211288D01*
X0093145Y0211243D01*
X0093105Y0211195D01*
X0093069Y0211146D01*
X0093035Y0211094D01*
X0093005Y0211040D01*
X0092978Y0210984D01*
X0092954Y0210927D01*
X0092934Y0210869D01*
X0092918Y0210810D01*
X0092905Y0210749D01*
X0092895Y0210688D01*
X0092890Y0210627D01*
X0092888Y0210565D01*
X0092888Y0208010D01*
X0092890Y0207948D01*
X0092895Y0207887D01*
X0092905Y0207826D01*
X0092918Y0207765D01*
X0092934Y0207706D01*
X0092954Y0207648D01*
X0092978Y0207591D01*
X0093005Y0207535D01*
X0093035Y0207481D01*
X0093069Y0207429D01*
X0093105Y0207380D01*
X0093145Y0207332D01*
X0093187Y0207287D01*
X0093232Y0207245D01*
X0093280Y0207205D01*
X0093329Y0207169D01*
X0093381Y0207135D01*
X0093435Y0207105D01*
X0093491Y0207078D01*
X0093548Y0207054D01*
X0093606Y0207034D01*
X0093665Y0207018D01*
X0093726Y0207005D01*
X0093787Y0206995D01*
X0093848Y0206990D01*
X0093910Y0206988D01*
X0093910Y0206987D02*
X0094933Y0206987D01*
X0094533Y0194139D02*
X0093510Y0194139D01*
X0093448Y0194137D01*
X0093387Y0194132D01*
X0093326Y0194122D01*
X0093265Y0194109D01*
X0093206Y0194093D01*
X0093148Y0194073D01*
X0093091Y0194049D01*
X0093035Y0194022D01*
X0092981Y0193992D01*
X0092929Y0193958D01*
X0092880Y0193921D01*
X0092832Y0193882D01*
X0092787Y0193840D01*
X0092745Y0193795D01*
X0092705Y0193747D01*
X0092669Y0193698D01*
X0092635Y0193646D01*
X0092605Y0193592D01*
X0092578Y0193536D01*
X0092554Y0193479D01*
X0092534Y0193421D01*
X0092518Y0193362D01*
X0092505Y0193301D01*
X0092495Y0193240D01*
X0092490Y0193179D01*
X0092488Y0193117D01*
X0092488Y0190562D01*
X0092490Y0190500D01*
X0092495Y0190439D01*
X0092505Y0190378D01*
X0092518Y0190317D01*
X0092534Y0190258D01*
X0092554Y0190200D01*
X0092578Y0190143D01*
X0092605Y0190087D01*
X0092635Y0190033D01*
X0092669Y0189981D01*
X0092705Y0189932D01*
X0092745Y0189884D01*
X0092787Y0189839D01*
X0092832Y0189797D01*
X0092880Y0189757D01*
X0092929Y0189721D01*
X0092981Y0189687D01*
X0093035Y0189657D01*
X0093091Y0189630D01*
X0093148Y0189606D01*
X0093206Y0189586D01*
X0093265Y0189570D01*
X0093326Y0189557D01*
X0093387Y0189547D01*
X0093448Y0189542D01*
X0093510Y0189540D01*
X0093510Y0189539D02*
X0094533Y0189539D01*
X0096251Y0189539D02*
X0098807Y0189539D01*
X0097529Y0189539D02*
X0097529Y0194139D01*
X0096251Y0193117D01*
X0100751Y0193117D02*
X0102029Y0194139D01*
X0102029Y0189539D01*
X0100751Y0189539D02*
X0103307Y0189539D01*
X0075100Y0192562D02*
X0072544Y0192562D01*
X0073566Y0196139D01*
X0074333Y0193584D02*
X0074333Y0191539D01*
X0070848Y0191539D02*
X0068803Y0191539D01*
X0068803Y0196139D01*
X0092706Y0231283D02*
X0093217Y0231283D01*
X0093217Y0231284D02*
X0093279Y0231286D01*
X0093340Y0231291D01*
X0093401Y0231301D01*
X0093462Y0231314D01*
X0093521Y0231330D01*
X0093579Y0231350D01*
X0093636Y0231374D01*
X0093692Y0231401D01*
X0093746Y0231431D01*
X0093798Y0231465D01*
X0093847Y0231501D01*
X0093895Y0231541D01*
X0093940Y0231583D01*
X0093982Y0231628D01*
X0094022Y0231676D01*
X0094058Y0231725D01*
X0094092Y0231777D01*
X0094122Y0231831D01*
X0094149Y0231887D01*
X0094173Y0231944D01*
X0094193Y0232002D01*
X0094209Y0232061D01*
X0094222Y0232122D01*
X0094232Y0232183D01*
X0094237Y0232244D01*
X0094239Y0232306D01*
X0094239Y0235883D01*
X0096315Y0234861D02*
X0097593Y0235883D01*
X0097593Y0231283D01*
X0096315Y0231283D02*
X0098871Y0231283D01*
X0043794Y0245220D02*
X0041239Y0245220D01*
X0042516Y0245220D02*
X0042516Y0249820D01*
X0041239Y0248798D01*
X0039511Y0249820D02*
X0036955Y0247009D01*
X0037978Y0248032D02*
X0039511Y0245220D01*
X0036955Y0245220D02*
X0036955Y0249820D01*
X0016007Y0221154D02*
X0013835Y0218598D01*
X0016391Y0218598D01*
X0013836Y0222176D02*
X0013861Y0222246D01*
X0013889Y0222315D01*
X0013920Y0222382D01*
X0013955Y0222448D01*
X0013993Y0222511D01*
X0014035Y0222573D01*
X0014079Y0222633D01*
X0014126Y0222690D01*
X0014176Y0222745D01*
X0014229Y0222797D01*
X0014285Y0222847D01*
X0014343Y0222893D01*
X0014403Y0222937D01*
X0014465Y0222978D01*
X0014529Y0223015D01*
X0014595Y0223049D01*
X0014663Y0223080D01*
X0014732Y0223107D01*
X0014802Y0223131D01*
X0014873Y0223152D01*
X0014946Y0223168D01*
X0015019Y0223181D01*
X0015093Y0223191D01*
X0015167Y0223196D01*
X0015241Y0223198D01*
X0015308Y0223196D01*
X0015375Y0223190D01*
X0015441Y0223181D01*
X0015506Y0223167D01*
X0015571Y0223150D01*
X0015634Y0223129D01*
X0015696Y0223104D01*
X0015757Y0223076D01*
X0015816Y0223044D01*
X0015873Y0223009D01*
X0015928Y0222970D01*
X0015980Y0222929D01*
X0016030Y0222884D01*
X0016077Y0222837D01*
X0016122Y0222787D01*
X0016163Y0222735D01*
X0016202Y0222680D01*
X0016237Y0222623D01*
X0016269Y0222564D01*
X0016297Y0222503D01*
X0016322Y0222441D01*
X0016343Y0222378D01*
X0016360Y0222313D01*
X0016374Y0222248D01*
X0016383Y0222182D01*
X0016389Y0222115D01*
X0016391Y0222048D01*
X0016390Y0222048D02*
X0016388Y0221981D01*
X0016383Y0221915D01*
X0016374Y0221849D01*
X0016361Y0221783D01*
X0016345Y0221719D01*
X0016326Y0221655D01*
X0016303Y0221592D01*
X0016277Y0221531D01*
X0016247Y0221471D01*
X0016214Y0221413D01*
X0016179Y0221357D01*
X0016140Y0221303D01*
X0016098Y0221251D01*
X0016054Y0221201D01*
X0016007Y0221154D01*
X0011741Y0221921D02*
X0011741Y0219876D01*
X0011739Y0219807D01*
X0011734Y0219738D01*
X0011724Y0219669D01*
X0011711Y0219601D01*
X0011694Y0219534D01*
X0011674Y0219468D01*
X0011650Y0219403D01*
X0011623Y0219339D01*
X0011592Y0219277D01*
X0011558Y0219217D01*
X0011521Y0219159D01*
X0011480Y0219103D01*
X0011437Y0219049D01*
X0011391Y0218997D01*
X0011342Y0218948D01*
X0011290Y0218902D01*
X0011236Y0218859D01*
X0011180Y0218818D01*
X0011122Y0218781D01*
X0011062Y0218747D01*
X0011000Y0218716D01*
X0010936Y0218689D01*
X0010871Y0218665D01*
X0010805Y0218645D01*
X0010738Y0218628D01*
X0010670Y0218615D01*
X0010601Y0218605D01*
X0010532Y0218600D01*
X0010463Y0218598D01*
X0009185Y0218598D01*
X0009185Y0223198D01*
X0010463Y0223198D01*
X0010463Y0223199D02*
X0010532Y0223197D01*
X0010601Y0223192D01*
X0010670Y0223182D01*
X0010738Y0223169D01*
X0010805Y0223152D01*
X0010871Y0223132D01*
X0010936Y0223108D01*
X0011000Y0223081D01*
X0011062Y0223050D01*
X0011122Y0223016D01*
X0011180Y0222979D01*
X0011236Y0222938D01*
X0011290Y0222895D01*
X0011342Y0222849D01*
X0011391Y0222800D01*
X0011437Y0222748D01*
X0011480Y0222694D01*
X0011521Y0222638D01*
X0011558Y0222580D01*
X0011592Y0222520D01*
X0011623Y0222458D01*
X0011650Y0222394D01*
X0011674Y0222329D01*
X0011694Y0222263D01*
X0011711Y0222196D01*
X0011724Y0222128D01*
X0011734Y0222059D01*
X0011739Y0221990D01*
X0011741Y0221921D01*
X0010463Y0203513D02*
X0009185Y0203513D01*
X0009185Y0198913D01*
X0010463Y0198913D01*
X0010532Y0198915D01*
X0010601Y0198920D01*
X0010670Y0198930D01*
X0010738Y0198943D01*
X0010805Y0198960D01*
X0010871Y0198980D01*
X0010936Y0199004D01*
X0011000Y0199031D01*
X0011062Y0199062D01*
X0011122Y0199096D01*
X0011180Y0199133D01*
X0011236Y0199174D01*
X0011290Y0199217D01*
X0011342Y0199263D01*
X0011391Y0199312D01*
X0011437Y0199364D01*
X0011480Y0199418D01*
X0011521Y0199474D01*
X0011558Y0199532D01*
X0011592Y0199592D01*
X0011623Y0199654D01*
X0011650Y0199718D01*
X0011674Y0199783D01*
X0011694Y0199849D01*
X0011711Y0199916D01*
X0011724Y0199984D01*
X0011734Y0200053D01*
X0011739Y0200122D01*
X0011741Y0200191D01*
X0011741Y0202236D01*
X0011739Y0202305D01*
X0011734Y0202374D01*
X0011724Y0202443D01*
X0011711Y0202511D01*
X0011694Y0202578D01*
X0011674Y0202644D01*
X0011650Y0202709D01*
X0011623Y0202773D01*
X0011592Y0202835D01*
X0011558Y0202895D01*
X0011521Y0202953D01*
X0011480Y0203009D01*
X0011437Y0203063D01*
X0011391Y0203115D01*
X0011342Y0203164D01*
X0011290Y0203210D01*
X0011236Y0203253D01*
X0011180Y0203294D01*
X0011122Y0203331D01*
X0011062Y0203365D01*
X0011000Y0203396D01*
X0010936Y0203423D01*
X0010871Y0203447D01*
X0010805Y0203467D01*
X0010738Y0203484D01*
X0010670Y0203497D01*
X0010601Y0203507D01*
X0010532Y0203512D01*
X0010463Y0203514D01*
X0013835Y0203513D02*
X0015368Y0203513D01*
X0015431Y0203511D01*
X0015494Y0203505D01*
X0015556Y0203496D01*
X0015617Y0203482D01*
X0015678Y0203465D01*
X0015737Y0203444D01*
X0015795Y0203419D01*
X0015852Y0203391D01*
X0015906Y0203360D01*
X0015958Y0203325D01*
X0016009Y0203287D01*
X0016057Y0203246D01*
X0016102Y0203202D01*
X0016144Y0203156D01*
X0016184Y0203107D01*
X0016220Y0203056D01*
X0016253Y0203002D01*
X0016283Y0202947D01*
X0016309Y0202889D01*
X0016332Y0202831D01*
X0016351Y0202771D01*
X0016366Y0202710D01*
X0016378Y0202648D01*
X0016386Y0202585D01*
X0016390Y0202522D01*
X0016390Y0202460D01*
X0016386Y0202397D01*
X0016378Y0202334D01*
X0016366Y0202272D01*
X0016351Y0202211D01*
X0016332Y0202151D01*
X0016309Y0202093D01*
X0016283Y0202035D01*
X0016253Y0201980D01*
X0016220Y0201926D01*
X0016184Y0201875D01*
X0016144Y0201826D01*
X0016102Y0201780D01*
X0016057Y0201736D01*
X0016009Y0201695D01*
X0015958Y0201657D01*
X0015906Y0201622D01*
X0015852Y0201591D01*
X0015795Y0201563D01*
X0015737Y0201538D01*
X0015678Y0201517D01*
X0015617Y0201500D01*
X0015556Y0201486D01*
X0015494Y0201477D01*
X0015431Y0201471D01*
X0015368Y0201469D01*
X0014346Y0201469D01*
X0015113Y0201469D02*
X0015183Y0201467D01*
X0015254Y0201461D01*
X0015323Y0201452D01*
X0015392Y0201438D01*
X0015461Y0201421D01*
X0015528Y0201400D01*
X0015594Y0201375D01*
X0015658Y0201347D01*
X0015721Y0201315D01*
X0015782Y0201280D01*
X0015841Y0201241D01*
X0015898Y0201200D01*
X0015952Y0201155D01*
X0016004Y0201107D01*
X0016053Y0201057D01*
X0016100Y0201003D01*
X0016143Y0200948D01*
X0016183Y0200890D01*
X0016220Y0200830D01*
X0016253Y0200768D01*
X0016283Y0200704D01*
X0016310Y0200639D01*
X0016333Y0200573D01*
X0016352Y0200505D01*
X0016367Y0200436D01*
X0016379Y0200367D01*
X0016387Y0200297D01*
X0016391Y0200226D01*
X0016391Y0200156D01*
X0016387Y0200085D01*
X0016379Y0200015D01*
X0016367Y0199946D01*
X0016352Y0199877D01*
X0016333Y0199809D01*
X0016310Y0199743D01*
X0016283Y0199678D01*
X0016253Y0199614D01*
X0016220Y0199552D01*
X0016183Y0199492D01*
X0016143Y0199434D01*
X0016100Y0199379D01*
X0016053Y0199325D01*
X0016004Y0199275D01*
X0015952Y0199227D01*
X0015898Y0199182D01*
X0015841Y0199141D01*
X0015782Y0199102D01*
X0015721Y0199067D01*
X0015658Y0199035D01*
X0015594Y0199007D01*
X0015528Y0198982D01*
X0015461Y0198961D01*
X0015392Y0198944D01*
X0015323Y0198930D01*
X0015254Y0198921D01*
X0015183Y0198915D01*
X0015113Y0198913D01*
X0013835Y0198913D01*
X0049118Y0059566D02*
X0049118Y0057522D01*
X0049120Y0057452D01*
X0049126Y0057381D01*
X0049135Y0057312D01*
X0049149Y0057243D01*
X0049166Y0057174D01*
X0049187Y0057107D01*
X0049212Y0057041D01*
X0049240Y0056977D01*
X0049272Y0056914D01*
X0049307Y0056853D01*
X0049346Y0056794D01*
X0049387Y0056737D01*
X0049432Y0056683D01*
X0049480Y0056631D01*
X0049530Y0056582D01*
X0049584Y0056535D01*
X0049639Y0056492D01*
X0049697Y0056452D01*
X0049757Y0056415D01*
X0049819Y0056382D01*
X0049883Y0056352D01*
X0049948Y0056325D01*
X0050014Y0056302D01*
X0050082Y0056283D01*
X0050151Y0056268D01*
X0050220Y0056256D01*
X0050290Y0056248D01*
X0050361Y0056244D01*
X0050431Y0056244D01*
X0050502Y0056248D01*
X0050572Y0056256D01*
X0050641Y0056268D01*
X0050710Y0056283D01*
X0050778Y0056302D01*
X0050844Y0056325D01*
X0050909Y0056352D01*
X0050973Y0056382D01*
X0051035Y0056415D01*
X0051095Y0056452D01*
X0051153Y0056492D01*
X0051208Y0056535D01*
X0051262Y0056582D01*
X0051312Y0056631D01*
X0051360Y0056683D01*
X0051405Y0056737D01*
X0051446Y0056794D01*
X0051485Y0056853D01*
X0051520Y0056914D01*
X0051552Y0056977D01*
X0051580Y0057041D01*
X0051605Y0057107D01*
X0051626Y0057174D01*
X0051643Y0057243D01*
X0051657Y0057312D01*
X0051666Y0057381D01*
X0051672Y0057452D01*
X0051674Y0057522D01*
X0051674Y0059566D01*
X0051672Y0059636D01*
X0051666Y0059707D01*
X0051657Y0059776D01*
X0051643Y0059845D01*
X0051626Y0059914D01*
X0051605Y0059981D01*
X0051580Y0060047D01*
X0051552Y0060111D01*
X0051520Y0060174D01*
X0051485Y0060235D01*
X0051446Y0060294D01*
X0051405Y0060351D01*
X0051360Y0060405D01*
X0051312Y0060457D01*
X0051262Y0060506D01*
X0051208Y0060553D01*
X0051153Y0060596D01*
X0051095Y0060636D01*
X0051035Y0060673D01*
X0050973Y0060706D01*
X0050909Y0060736D01*
X0050844Y0060763D01*
X0050778Y0060786D01*
X0050710Y0060805D01*
X0050641Y0060820D01*
X0050572Y0060832D01*
X0050502Y0060840D01*
X0050431Y0060844D01*
X0050361Y0060844D01*
X0050290Y0060840D01*
X0050220Y0060832D01*
X0050151Y0060820D01*
X0050082Y0060805D01*
X0050014Y0060786D01*
X0049948Y0060763D01*
X0049883Y0060736D01*
X0049819Y0060706D01*
X0049757Y0060673D01*
X0049697Y0060636D01*
X0049639Y0060596D01*
X0049584Y0060553D01*
X0049530Y0060506D01*
X0049480Y0060457D01*
X0049432Y0060405D01*
X0049387Y0060351D01*
X0049346Y0060294D01*
X0049307Y0060235D01*
X0049272Y0060174D01*
X0049240Y0060111D01*
X0049212Y0060047D01*
X0049187Y0059981D01*
X0049166Y0059914D01*
X0049149Y0059845D01*
X0049135Y0059776D01*
X0049126Y0059707D01*
X0049120Y0059636D01*
X0049118Y0059566D01*
X0051163Y0057266D02*
X0052185Y0056244D01*
X0053505Y0056244D02*
X0056061Y0056244D01*
X0053505Y0056244D02*
X0055678Y0058800D01*
X0054911Y0060844D02*
X0054837Y0060842D01*
X0054763Y0060837D01*
X0054689Y0060827D01*
X0054616Y0060814D01*
X0054543Y0060798D01*
X0054472Y0060777D01*
X0054402Y0060753D01*
X0054333Y0060726D01*
X0054265Y0060695D01*
X0054199Y0060661D01*
X0054135Y0060624D01*
X0054073Y0060583D01*
X0054013Y0060539D01*
X0053955Y0060493D01*
X0053899Y0060443D01*
X0053846Y0060391D01*
X0053796Y0060336D01*
X0053749Y0060279D01*
X0053705Y0060219D01*
X0053663Y0060157D01*
X0053625Y0060094D01*
X0053590Y0060028D01*
X0053559Y0059961D01*
X0053531Y0059892D01*
X0053506Y0059822D01*
X0055678Y0058800D02*
X0055725Y0058847D01*
X0055769Y0058897D01*
X0055811Y0058949D01*
X0055850Y0059003D01*
X0055885Y0059059D01*
X0055918Y0059117D01*
X0055948Y0059177D01*
X0055974Y0059238D01*
X0055997Y0059301D01*
X0056016Y0059365D01*
X0056032Y0059429D01*
X0056045Y0059495D01*
X0056054Y0059561D01*
X0056059Y0059627D01*
X0056061Y0059694D01*
X0056059Y0059761D01*
X0056053Y0059828D01*
X0056044Y0059894D01*
X0056030Y0059959D01*
X0056013Y0060024D01*
X0055992Y0060087D01*
X0055967Y0060149D01*
X0055939Y0060210D01*
X0055907Y0060269D01*
X0055872Y0060326D01*
X0055833Y0060381D01*
X0055792Y0060433D01*
X0055747Y0060483D01*
X0055700Y0060530D01*
X0055650Y0060575D01*
X0055598Y0060616D01*
X0055543Y0060655D01*
X0055486Y0060690D01*
X0055427Y0060722D01*
X0055366Y0060750D01*
X0055304Y0060775D01*
X0055241Y0060796D01*
X0055176Y0060813D01*
X0055111Y0060827D01*
X0055045Y0060836D01*
X0054978Y0060842D01*
X0054911Y0060844D01*
X0067085Y0054147D02*
X0067085Y0053754D01*
X0067085Y0054147D02*
X0074959Y0054147D01*
X0074959Y0053360D01*
X0074959Y0047848D02*
X0074959Y0047061D01*
X0067085Y0047061D01*
X0067085Y0047848D01*
D15*
X0065510Y0052179D02*
X0065510Y0053360D01*
D16*
X0135143Y0118976D02*
X0135143Y0258976D01*
X0155143Y0258976D01*
X0155143Y0119476D01*
X0155143Y0118976D02*
X0150143Y0118976D01*
X0150141Y0119116D01*
X0150135Y0119256D01*
X0150125Y0119396D01*
X0150112Y0119536D01*
X0150094Y0119675D01*
X0150072Y0119814D01*
X0150047Y0119951D01*
X0150018Y0120089D01*
X0149985Y0120225D01*
X0149948Y0120360D01*
X0149907Y0120494D01*
X0149862Y0120627D01*
X0149814Y0120759D01*
X0149762Y0120889D01*
X0149707Y0121018D01*
X0149648Y0121145D01*
X0149585Y0121271D01*
X0149519Y0121395D01*
X0149450Y0121516D01*
X0149377Y0121636D01*
X0149300Y0121754D01*
X0149221Y0121869D01*
X0149138Y0121983D01*
X0149052Y0122093D01*
X0148963Y0122202D01*
X0148871Y0122308D01*
X0148776Y0122411D01*
X0148679Y0122512D01*
X0148578Y0122609D01*
X0148475Y0122704D01*
X0148369Y0122796D01*
X0148260Y0122885D01*
X0148150Y0122971D01*
X0148036Y0123054D01*
X0147921Y0123133D01*
X0147803Y0123210D01*
X0147683Y0123283D01*
X0147562Y0123352D01*
X0147438Y0123418D01*
X0147312Y0123481D01*
X0147185Y0123540D01*
X0147056Y0123595D01*
X0146926Y0123647D01*
X0146794Y0123695D01*
X0146661Y0123740D01*
X0146527Y0123781D01*
X0146392Y0123818D01*
X0146256Y0123851D01*
X0146118Y0123880D01*
X0145981Y0123905D01*
X0145842Y0123927D01*
X0145703Y0123945D01*
X0145563Y0123958D01*
X0145423Y0123968D01*
X0145283Y0123974D01*
X0145143Y0123976D01*
X0145003Y0123974D01*
X0144863Y0123968D01*
X0144723Y0123958D01*
X0144583Y0123945D01*
X0144444Y0123927D01*
X0144305Y0123905D01*
X0144168Y0123880D01*
X0144030Y0123851D01*
X0143894Y0123818D01*
X0143759Y0123781D01*
X0143625Y0123740D01*
X0143492Y0123695D01*
X0143360Y0123647D01*
X0143230Y0123595D01*
X0143101Y0123540D01*
X0142974Y0123481D01*
X0142848Y0123418D01*
X0142724Y0123352D01*
X0142603Y0123283D01*
X0142483Y0123210D01*
X0142365Y0123133D01*
X0142250Y0123054D01*
X0142136Y0122971D01*
X0142026Y0122885D01*
X0141917Y0122796D01*
X0141811Y0122704D01*
X0141708Y0122609D01*
X0141607Y0122512D01*
X0141510Y0122411D01*
X0141415Y0122308D01*
X0141323Y0122202D01*
X0141234Y0122093D01*
X0141148Y0121983D01*
X0141065Y0121869D01*
X0140986Y0121754D01*
X0140909Y0121636D01*
X0140836Y0121516D01*
X0140767Y0121395D01*
X0140701Y0121271D01*
X0140638Y0121145D01*
X0140579Y0121018D01*
X0140524Y0120889D01*
X0140472Y0120759D01*
X0140424Y0120627D01*
X0140379Y0120494D01*
X0140338Y0120360D01*
X0140301Y0120225D01*
X0140268Y0120089D01*
X0140239Y0119951D01*
X0140214Y0119814D01*
X0140192Y0119675D01*
X0140174Y0119536D01*
X0140161Y0119396D01*
X0140151Y0119256D01*
X0140145Y0119116D01*
X0140143Y0118976D01*
X0135143Y0118976D01*
X0186302Y0121031D02*
X0186302Y0126031D01*
X0188802Y0128531D01*
X0186302Y0131031D01*
X0186302Y0136031D01*
X0188802Y0138531D01*
X0186302Y0141031D01*
X0186302Y0146031D01*
X0188802Y0148531D01*
X0186302Y0151031D01*
X0186302Y0156031D01*
X0188802Y0158531D01*
X0186302Y0161031D01*
X0186302Y0166031D01*
X0188802Y0168531D01*
X0186302Y0171031D01*
X0186302Y0176031D01*
X0188802Y0178531D01*
X0193802Y0178531D01*
X0196302Y0176031D01*
X0196302Y0171031D01*
X0193802Y0168531D01*
X0196302Y0166031D01*
X0196302Y0161031D01*
X0193802Y0158531D01*
X0188802Y0158531D01*
X0193802Y0158531D02*
X0196302Y0156031D01*
X0196302Y0151031D01*
X0193802Y0148531D01*
X0196302Y0146031D01*
X0196302Y0141031D01*
X0193802Y0138531D01*
X0196302Y0136031D01*
X0196302Y0131031D01*
X0193802Y0128531D01*
X0196302Y0126031D01*
X0196302Y0121031D01*
X0193802Y0118531D01*
X0188802Y0118531D01*
X0186302Y0121031D01*
X0188802Y0128531D02*
X0193802Y0128531D01*
X0193802Y0138531D02*
X0188802Y0138531D01*
X0188802Y0148531D02*
X0193802Y0148531D01*
X0193802Y0168531D02*
X0188802Y0168531D01*
X0188742Y0108302D02*
X0193742Y0108302D01*
X0196242Y0105802D01*
X0196242Y0100802D01*
X0193742Y0098302D01*
X0196242Y0095802D01*
X0196242Y0090802D01*
X0193742Y0088302D01*
X0196242Y0085802D01*
X0196242Y0080802D01*
X0193742Y0078302D01*
X0196242Y0075802D01*
X0196242Y0070802D01*
X0193742Y0068302D01*
X0196242Y0065802D01*
X0196242Y0060802D01*
X0193742Y0058302D01*
X0196242Y0055802D01*
X0196242Y0050802D01*
X0193742Y0048302D01*
X0188742Y0048302D01*
X0186242Y0050802D01*
X0186242Y0055802D01*
X0188742Y0058302D01*
X0186242Y0060802D01*
X0186242Y0065802D01*
X0188742Y0068302D01*
X0193742Y0068302D01*
X0188742Y0068302D02*
X0186242Y0070802D01*
X0186242Y0075802D01*
X0188742Y0078302D01*
X0186242Y0080802D01*
X0186242Y0085802D01*
X0188742Y0088302D01*
X0186242Y0090802D01*
X0186242Y0095802D01*
X0188742Y0098302D01*
X0186242Y0100802D01*
X0186242Y0105802D01*
X0188742Y0108302D01*
X0188742Y0098302D02*
X0193742Y0098302D01*
X0193742Y0088302D02*
X0188742Y0088302D01*
X0188742Y0078302D02*
X0193742Y0078302D01*
X0193742Y0058302D02*
X0188742Y0058302D01*
X0063304Y0226235D02*
X0064027Y0228835D01*
X0062582Y0228835D01*
X0062582Y0228547D01*
X0061324Y0228835D02*
X0060746Y0228835D01*
X0060746Y0228836D02*
X0060698Y0228834D01*
X0060651Y0228828D01*
X0060604Y0228818D01*
X0060558Y0228805D01*
X0060514Y0228787D01*
X0060471Y0228766D01*
X0060430Y0228742D01*
X0060391Y0228714D01*
X0060355Y0228683D01*
X0060321Y0228649D01*
X0060290Y0228613D01*
X0060262Y0228574D01*
X0060238Y0228533D01*
X0060217Y0228490D01*
X0060199Y0228446D01*
X0060186Y0228400D01*
X0060176Y0228353D01*
X0060170Y0228306D01*
X0060168Y0228258D01*
X0060168Y0226813D01*
X0060170Y0226768D01*
X0060175Y0226723D01*
X0060184Y0226678D01*
X0060196Y0226634D01*
X0060212Y0226592D01*
X0060231Y0226551D01*
X0060253Y0226511D01*
X0060278Y0226473D01*
X0060306Y0226438D01*
X0060337Y0226404D01*
X0060371Y0226373D01*
X0060406Y0226345D01*
X0060444Y0226320D01*
X0060484Y0226298D01*
X0060525Y0226279D01*
X0060567Y0226263D01*
X0060611Y0226251D01*
X0060656Y0226242D01*
X0060701Y0226237D01*
X0060746Y0226235D01*
X0061324Y0226235D01*
X0061057Y0215061D02*
X0061635Y0215061D01*
X0061057Y0215062D02*
X0061009Y0215060D01*
X0060962Y0215054D01*
X0060915Y0215044D01*
X0060869Y0215031D01*
X0060825Y0215013D01*
X0060782Y0214992D01*
X0060741Y0214968D01*
X0060702Y0214940D01*
X0060666Y0214909D01*
X0060632Y0214875D01*
X0060601Y0214839D01*
X0060573Y0214800D01*
X0060549Y0214759D01*
X0060528Y0214716D01*
X0060510Y0214672D01*
X0060497Y0214626D01*
X0060487Y0214579D01*
X0060481Y0214532D01*
X0060479Y0214484D01*
X0060479Y0213039D01*
X0060481Y0212994D01*
X0060486Y0212949D01*
X0060495Y0212904D01*
X0060507Y0212860D01*
X0060523Y0212818D01*
X0060542Y0212777D01*
X0060564Y0212737D01*
X0060589Y0212699D01*
X0060617Y0212664D01*
X0060648Y0212630D01*
X0060682Y0212599D01*
X0060717Y0212571D01*
X0060755Y0212546D01*
X0060795Y0212524D01*
X0060836Y0212505D01*
X0060878Y0212489D01*
X0060922Y0212477D01*
X0060967Y0212468D01*
X0061012Y0212463D01*
X0061057Y0212461D01*
X0061635Y0212461D01*
X0062893Y0213184D02*
X0062895Y0213131D01*
X0062901Y0213079D01*
X0062910Y0213027D01*
X0062924Y0212976D01*
X0062941Y0212926D01*
X0062961Y0212878D01*
X0062985Y0212831D01*
X0063013Y0212786D01*
X0063044Y0212743D01*
X0063077Y0212702D01*
X0063114Y0212664D01*
X0063153Y0212629D01*
X0063195Y0212597D01*
X0063239Y0212568D01*
X0063285Y0212542D01*
X0063333Y0212520D01*
X0063382Y0212501D01*
X0063432Y0212485D01*
X0063484Y0212474D01*
X0063536Y0212466D01*
X0063589Y0212462D01*
X0063641Y0212462D01*
X0063694Y0212466D01*
X0063746Y0212474D01*
X0063798Y0212485D01*
X0063848Y0212501D01*
X0063897Y0212520D01*
X0063945Y0212542D01*
X0063991Y0212568D01*
X0064035Y0212597D01*
X0064077Y0212629D01*
X0064116Y0212664D01*
X0064153Y0212702D01*
X0064186Y0212743D01*
X0064217Y0212786D01*
X0064245Y0212831D01*
X0064269Y0212878D01*
X0064289Y0212926D01*
X0064306Y0212976D01*
X0064320Y0213027D01*
X0064329Y0213079D01*
X0064335Y0213131D01*
X0064337Y0213184D01*
X0064335Y0213237D01*
X0064329Y0213289D01*
X0064320Y0213341D01*
X0064306Y0213392D01*
X0064289Y0213442D01*
X0064269Y0213490D01*
X0064245Y0213537D01*
X0064217Y0213582D01*
X0064186Y0213625D01*
X0064153Y0213666D01*
X0064116Y0213704D01*
X0064077Y0213739D01*
X0064035Y0213771D01*
X0063991Y0213800D01*
X0063945Y0213826D01*
X0063897Y0213848D01*
X0063848Y0213867D01*
X0063798Y0213883D01*
X0063746Y0213894D01*
X0063694Y0213902D01*
X0063641Y0213906D01*
X0063589Y0213906D01*
X0063536Y0213902D01*
X0063484Y0213894D01*
X0063432Y0213883D01*
X0063382Y0213867D01*
X0063333Y0213848D01*
X0063285Y0213826D01*
X0063239Y0213800D01*
X0063195Y0213771D01*
X0063153Y0213739D01*
X0063114Y0213704D01*
X0063077Y0213666D01*
X0063044Y0213625D01*
X0063013Y0213582D01*
X0062985Y0213537D01*
X0062961Y0213490D01*
X0062941Y0213442D01*
X0062924Y0213392D01*
X0062910Y0213341D01*
X0062901Y0213289D01*
X0062895Y0213237D01*
X0062893Y0213184D01*
X0063037Y0214484D02*
X0063039Y0214437D01*
X0063044Y0214391D01*
X0063054Y0214346D01*
X0063067Y0214301D01*
X0063083Y0214257D01*
X0063103Y0214215D01*
X0063126Y0214175D01*
X0063153Y0214137D01*
X0063182Y0214101D01*
X0063215Y0214067D01*
X0063249Y0214036D01*
X0063287Y0214008D01*
X0063326Y0213983D01*
X0063367Y0213962D01*
X0063410Y0213944D01*
X0063454Y0213929D01*
X0063499Y0213918D01*
X0063545Y0213910D01*
X0063592Y0213906D01*
X0063638Y0213906D01*
X0063685Y0213910D01*
X0063731Y0213918D01*
X0063776Y0213929D01*
X0063820Y0213944D01*
X0063863Y0213962D01*
X0063904Y0213983D01*
X0063943Y0214008D01*
X0063981Y0214036D01*
X0064015Y0214067D01*
X0064048Y0214101D01*
X0064077Y0214137D01*
X0064104Y0214175D01*
X0064127Y0214215D01*
X0064147Y0214257D01*
X0064163Y0214301D01*
X0064176Y0214346D01*
X0064186Y0214391D01*
X0064191Y0214437D01*
X0064193Y0214484D01*
X0064191Y0214531D01*
X0064186Y0214577D01*
X0064176Y0214622D01*
X0064163Y0214667D01*
X0064147Y0214711D01*
X0064127Y0214753D01*
X0064104Y0214793D01*
X0064077Y0214831D01*
X0064048Y0214867D01*
X0064015Y0214901D01*
X0063981Y0214932D01*
X0063943Y0214960D01*
X0063904Y0214985D01*
X0063863Y0215006D01*
X0063820Y0215024D01*
X0063776Y0215039D01*
X0063731Y0215050D01*
X0063685Y0215058D01*
X0063638Y0215062D01*
X0063592Y0215062D01*
X0063545Y0215058D01*
X0063499Y0215050D01*
X0063454Y0215039D01*
X0063410Y0215024D01*
X0063367Y0215006D01*
X0063326Y0214985D01*
X0063287Y0214960D01*
X0063249Y0214932D01*
X0063215Y0214901D01*
X0063182Y0214867D01*
X0063153Y0214831D01*
X0063126Y0214793D01*
X0063103Y0214753D01*
X0063083Y0214711D01*
X0063067Y0214667D01*
X0063054Y0214622D01*
X0063044Y0214577D01*
X0063039Y0214531D01*
X0063037Y0214484D01*
D17*
X0030944Y0061170D03*
D18*
X0142292Y0111826D02*
X0143692Y0111826D01*
X0142992Y0111826D02*
X0142992Y0118126D01*
X0142292Y0118126D02*
X0143692Y0118126D01*
X0146148Y0116726D02*
X0146148Y0113226D01*
X0146150Y0113153D01*
X0146156Y0113080D01*
X0146165Y0113007D01*
X0146179Y0112935D01*
X0146196Y0112864D01*
X0146217Y0112793D01*
X0146241Y0112724D01*
X0146269Y0112657D01*
X0146301Y0112590D01*
X0146336Y0112526D01*
X0146374Y0112464D01*
X0146415Y0112403D01*
X0146460Y0112345D01*
X0146508Y0112289D01*
X0146558Y0112236D01*
X0146611Y0112186D01*
X0146667Y0112138D01*
X0146725Y0112093D01*
X0146786Y0112052D01*
X0146848Y0112014D01*
X0146912Y0111979D01*
X0146979Y0111947D01*
X0147046Y0111919D01*
X0147115Y0111895D01*
X0147186Y0111874D01*
X0147257Y0111857D01*
X0147329Y0111843D01*
X0147402Y0111834D01*
X0147475Y0111828D01*
X0147548Y0111826D01*
X0148948Y0111826D01*
X0151293Y0111826D02*
X0154793Y0111826D01*
X0153043Y0111826D02*
X0153043Y0118126D01*
X0151293Y0116726D01*
X0148948Y0118126D02*
X0147548Y0118126D01*
X0147475Y0118124D01*
X0147402Y0118118D01*
X0147329Y0118109D01*
X0147257Y0118095D01*
X0147186Y0118078D01*
X0147115Y0118057D01*
X0147046Y0118033D01*
X0146979Y0118005D01*
X0146912Y0117973D01*
X0146848Y0117938D01*
X0146786Y0117900D01*
X0146725Y0117859D01*
X0146667Y0117814D01*
X0146611Y0117766D01*
X0146558Y0117716D01*
X0146508Y0117663D01*
X0146460Y0117607D01*
X0146415Y0117549D01*
X0146374Y0117488D01*
X0146336Y0117426D01*
X0146301Y0117362D01*
X0146269Y0117295D01*
X0146241Y0117228D01*
X0146217Y0117159D01*
X0146196Y0117088D01*
X0146179Y0117017D01*
X0146165Y0116945D01*
X0146156Y0116872D01*
X0146150Y0116799D01*
X0146148Y0116726D01*
D19*
X0097796Y0154853D02*
X0097796Y0171103D01*
X0087796Y0171103D01*
X0077796Y0171103D01*
X0077796Y0161103D01*
X0067796Y0161103D01*
X0067796Y0171103D01*
X0057796Y0171103D01*
X0057796Y0161103D01*
X0047796Y0161103D01*
X0047796Y0171103D01*
X0037796Y0171103D01*
X0037796Y0157603D01*
X0087796Y0154853D02*
X0087796Y0171103D01*
D20*
X0094988Y0184939D02*
X0096588Y0184939D01*
X0096588Y0187739D02*
X0094988Y0187739D01*
X0095388Y0202387D02*
X0096988Y0202387D01*
X0096988Y0205187D02*
X0095388Y0205187D01*
X0183250Y0189440D02*
X0184850Y0189440D01*
X0184850Y0186640D02*
X0183250Y0186640D01*
D21*
X0120788Y0249095D02*
X0120788Y0258938D01*
X0090788Y0258938D01*
X0090788Y0233583D01*
X0095788Y0258938D02*
X0095788Y0282560D01*
X0105788Y0282560D02*
X0105788Y0258938D01*
X0115788Y0258938D02*
X0115788Y0282560D01*
X0009961Y0237520D02*
X0009961Y0237520D01*
X0009962Y0237520D02*
X0009960Y0237493D01*
X0009955Y0237467D01*
X0009946Y0237442D01*
X0009933Y0237418D01*
X0009918Y0237396D01*
X0009899Y0237376D01*
X0009879Y0237359D01*
X0009856Y0237345D01*
X0009831Y0237334D01*
X0009805Y0237327D01*
X0009778Y0237323D01*
X0009752Y0237323D01*
X0009725Y0237327D01*
X0009699Y0237334D01*
X0009674Y0237345D01*
X0009651Y0237359D01*
X0009631Y0237376D01*
X0009612Y0237396D01*
X0009597Y0237418D01*
X0009584Y0237442D01*
X0009575Y0237467D01*
X0009570Y0237493D01*
X0009568Y0237520D01*
X0009568Y0237520D01*
X0009568Y0237520D01*
X0009570Y0237547D01*
X0009575Y0237573D01*
X0009584Y0237598D01*
X0009597Y0237622D01*
X0009612Y0237644D01*
X0009631Y0237664D01*
X0009651Y0237681D01*
X0009674Y0237695D01*
X0009699Y0237706D01*
X0009725Y0237713D01*
X0009752Y0237717D01*
X0009778Y0237717D01*
X0009805Y0237713D01*
X0009831Y0237706D01*
X0009856Y0237695D01*
X0009879Y0237681D01*
X0009899Y0237664D01*
X0009918Y0237644D01*
X0009933Y0237622D01*
X0009946Y0237598D01*
X0009955Y0237573D01*
X0009960Y0237547D01*
X0009962Y0237520D01*
X0009960Y0237493D01*
X0009955Y0237467D01*
X0009946Y0237442D01*
X0009933Y0237418D01*
X0009918Y0237396D01*
X0009899Y0237376D01*
X0009879Y0237359D01*
X0009856Y0237345D01*
X0009831Y0237334D01*
X0009805Y0237327D01*
X0009778Y0237323D01*
X0009752Y0237323D01*
X0009725Y0237327D01*
X0009699Y0237334D01*
X0009674Y0237345D01*
X0009651Y0237359D01*
X0009631Y0237376D01*
X0009612Y0237396D01*
X0009597Y0237418D01*
X0009584Y0237442D01*
X0009575Y0237467D01*
X0009570Y0237493D01*
X0009568Y0237520D01*
D22*
X0012914Y0233150D02*
X0012914Y0261891D01*
X0071182Y0261891D01*
X0071182Y0233150D01*
X0012914Y0233150D01*
D23*
X0058618Y0224435D02*
X0058618Y0217435D01*
X0073618Y0217435D01*
X0073618Y0224435D01*
X0058618Y0224435D01*
X0058929Y0210661D02*
X0058929Y0203661D01*
X0073929Y0203661D01*
X0073929Y0210661D01*
X0058929Y0210661D01*
M02*
