G75*
%MOIN*%
%OFA0B0*%
%FSLAX25Y25*%
%IPPOS*%
%LPD*%
%AMOC8*
5,1,8,0,0,1.08239X$1,22.5*
%
%ADD10C,0.00000*%
%ADD11C,0.00600*%
%ADD12C,0.00400*%
D10*
X0001300Y0001300D02*
X0001300Y0288702D01*
X0198150Y0288702D01*
X0198150Y0001300D01*
X0001300Y0001300D01*
X0005228Y0006117D02*
X0005230Y0006212D01*
X0005236Y0006306D01*
X0005246Y0006401D01*
X0005260Y0006495D01*
X0005277Y0006588D01*
X0005299Y0006680D01*
X0005325Y0006771D01*
X0005354Y0006862D01*
X0005387Y0006950D01*
X0005424Y0007038D01*
X0005464Y0007124D01*
X0005508Y0007208D01*
X0005555Y0007290D01*
X0005606Y0007370D01*
X0005660Y0007448D01*
X0005718Y0007523D01*
X0005778Y0007596D01*
X0005842Y0007667D01*
X0005908Y0007735D01*
X0005977Y0007799D01*
X0006049Y0007861D01*
X0006123Y0007920D01*
X0006200Y0007976D01*
X0006279Y0008029D01*
X0006360Y0008078D01*
X0006443Y0008123D01*
X0006528Y0008166D01*
X0006615Y0008204D01*
X0006703Y0008239D01*
X0006792Y0008270D01*
X0006883Y0008298D01*
X0006975Y0008321D01*
X0007068Y0008341D01*
X0007161Y0008357D01*
X0007255Y0008369D01*
X0007350Y0008377D01*
X0007445Y0008381D01*
X0007539Y0008381D01*
X0007634Y0008377D01*
X0007729Y0008369D01*
X0007823Y0008357D01*
X0007916Y0008341D01*
X0008009Y0008321D01*
X0008101Y0008298D01*
X0008192Y0008270D01*
X0008281Y0008239D01*
X0008369Y0008204D01*
X0008456Y0008166D01*
X0008541Y0008123D01*
X0008624Y0008078D01*
X0008705Y0008029D01*
X0008784Y0007976D01*
X0008861Y0007920D01*
X0008935Y0007861D01*
X0009007Y0007799D01*
X0009076Y0007735D01*
X0009142Y0007667D01*
X0009206Y0007596D01*
X0009266Y0007523D01*
X0009324Y0007448D01*
X0009378Y0007370D01*
X0009429Y0007290D01*
X0009476Y0007208D01*
X0009520Y0007124D01*
X0009560Y0007038D01*
X0009597Y0006950D01*
X0009630Y0006862D01*
X0009659Y0006771D01*
X0009685Y0006680D01*
X0009707Y0006588D01*
X0009724Y0006495D01*
X0009738Y0006401D01*
X0009748Y0006306D01*
X0009754Y0006212D01*
X0009756Y0006117D01*
X0009754Y0006022D01*
X0009748Y0005928D01*
X0009738Y0005833D01*
X0009724Y0005739D01*
X0009707Y0005646D01*
X0009685Y0005554D01*
X0009659Y0005463D01*
X0009630Y0005372D01*
X0009597Y0005284D01*
X0009560Y0005196D01*
X0009520Y0005110D01*
X0009476Y0005026D01*
X0009429Y0004944D01*
X0009378Y0004864D01*
X0009324Y0004786D01*
X0009266Y0004711D01*
X0009206Y0004638D01*
X0009142Y0004567D01*
X0009076Y0004499D01*
X0009007Y0004435D01*
X0008935Y0004373D01*
X0008861Y0004314D01*
X0008784Y0004258D01*
X0008705Y0004205D01*
X0008624Y0004156D01*
X0008541Y0004111D01*
X0008456Y0004068D01*
X0008369Y0004030D01*
X0008281Y0003995D01*
X0008192Y0003964D01*
X0008101Y0003936D01*
X0008009Y0003913D01*
X0007916Y0003893D01*
X0007823Y0003877D01*
X0007729Y0003865D01*
X0007634Y0003857D01*
X0007539Y0003853D01*
X0007445Y0003853D01*
X0007350Y0003857D01*
X0007255Y0003865D01*
X0007161Y0003877D01*
X0007068Y0003893D01*
X0006975Y0003913D01*
X0006883Y0003936D01*
X0006792Y0003964D01*
X0006703Y0003995D01*
X0006615Y0004030D01*
X0006528Y0004068D01*
X0006443Y0004111D01*
X0006360Y0004156D01*
X0006279Y0004205D01*
X0006200Y0004258D01*
X0006123Y0004314D01*
X0006049Y0004373D01*
X0005977Y0004435D01*
X0005908Y0004499D01*
X0005842Y0004567D01*
X0005778Y0004638D01*
X0005718Y0004711D01*
X0005660Y0004786D01*
X0005606Y0004864D01*
X0005555Y0004944D01*
X0005508Y0005026D01*
X0005464Y0005110D01*
X0005424Y0005196D01*
X0005387Y0005284D01*
X0005354Y0005372D01*
X0005325Y0005463D01*
X0005299Y0005554D01*
X0005277Y0005646D01*
X0005260Y0005739D01*
X0005246Y0005833D01*
X0005236Y0005928D01*
X0005230Y0006022D01*
X0005228Y0006117D01*
X0016449Y0010054D02*
X0016451Y0010135D01*
X0016457Y0010217D01*
X0016467Y0010298D01*
X0016481Y0010378D01*
X0016498Y0010457D01*
X0016520Y0010536D01*
X0016545Y0010613D01*
X0016574Y0010690D01*
X0016607Y0010764D01*
X0016644Y0010837D01*
X0016683Y0010908D01*
X0016727Y0010977D01*
X0016773Y0011044D01*
X0016823Y0011108D01*
X0016876Y0011170D01*
X0016932Y0011230D01*
X0016990Y0011286D01*
X0017052Y0011340D01*
X0017116Y0011391D01*
X0017182Y0011438D01*
X0017250Y0011482D01*
X0017321Y0011523D01*
X0017393Y0011560D01*
X0017468Y0011594D01*
X0017543Y0011624D01*
X0017621Y0011650D01*
X0017699Y0011673D01*
X0017778Y0011691D01*
X0017858Y0011706D01*
X0017939Y0011717D01*
X0018020Y0011724D01*
X0018102Y0011727D01*
X0018183Y0011726D01*
X0018264Y0011721D01*
X0018345Y0011712D01*
X0018426Y0011699D01*
X0018506Y0011682D01*
X0018584Y0011662D01*
X0018662Y0011637D01*
X0018739Y0011609D01*
X0018814Y0011577D01*
X0018887Y0011542D01*
X0018958Y0011503D01*
X0019028Y0011460D01*
X0019095Y0011415D01*
X0019161Y0011366D01*
X0019223Y0011314D01*
X0019283Y0011258D01*
X0019340Y0011200D01*
X0019395Y0011140D01*
X0019446Y0011076D01*
X0019494Y0011011D01*
X0019539Y0010943D01*
X0019581Y0010873D01*
X0019619Y0010801D01*
X0019654Y0010727D01*
X0019685Y0010652D01*
X0019712Y0010575D01*
X0019735Y0010497D01*
X0019755Y0010418D01*
X0019771Y0010338D01*
X0019783Y0010257D01*
X0019791Y0010176D01*
X0019795Y0010095D01*
X0019795Y0010013D01*
X0019791Y0009932D01*
X0019783Y0009851D01*
X0019771Y0009770D01*
X0019755Y0009690D01*
X0019735Y0009611D01*
X0019712Y0009533D01*
X0019685Y0009456D01*
X0019654Y0009381D01*
X0019619Y0009307D01*
X0019581Y0009235D01*
X0019539Y0009165D01*
X0019494Y0009097D01*
X0019446Y0009032D01*
X0019395Y0008968D01*
X0019340Y0008908D01*
X0019283Y0008850D01*
X0019223Y0008794D01*
X0019161Y0008742D01*
X0019095Y0008693D01*
X0019028Y0008648D01*
X0018959Y0008605D01*
X0018887Y0008566D01*
X0018814Y0008531D01*
X0018739Y0008499D01*
X0018662Y0008471D01*
X0018584Y0008446D01*
X0018506Y0008426D01*
X0018426Y0008409D01*
X0018345Y0008396D01*
X0018264Y0008387D01*
X0018183Y0008382D01*
X0018102Y0008381D01*
X0018020Y0008384D01*
X0017939Y0008391D01*
X0017858Y0008402D01*
X0017778Y0008417D01*
X0017699Y0008435D01*
X0017621Y0008458D01*
X0017543Y0008484D01*
X0017468Y0008514D01*
X0017393Y0008548D01*
X0017321Y0008585D01*
X0017250Y0008626D01*
X0017182Y0008670D01*
X0017116Y0008717D01*
X0017052Y0008768D01*
X0016990Y0008822D01*
X0016932Y0008878D01*
X0016876Y0008938D01*
X0016823Y0009000D01*
X0016773Y0009064D01*
X0016727Y0009131D01*
X0016683Y0009200D01*
X0016644Y0009271D01*
X0016607Y0009344D01*
X0016574Y0009418D01*
X0016545Y0009495D01*
X0016520Y0009572D01*
X0016498Y0009651D01*
X0016481Y0009730D01*
X0016467Y0009810D01*
X0016457Y0009891D01*
X0016451Y0009973D01*
X0016449Y0010054D01*
X0016449Y0029739D02*
X0016451Y0029820D01*
X0016457Y0029902D01*
X0016467Y0029983D01*
X0016481Y0030063D01*
X0016498Y0030142D01*
X0016520Y0030221D01*
X0016545Y0030298D01*
X0016574Y0030375D01*
X0016607Y0030449D01*
X0016644Y0030522D01*
X0016683Y0030593D01*
X0016727Y0030662D01*
X0016773Y0030729D01*
X0016823Y0030793D01*
X0016876Y0030855D01*
X0016932Y0030915D01*
X0016990Y0030971D01*
X0017052Y0031025D01*
X0017116Y0031076D01*
X0017182Y0031123D01*
X0017250Y0031167D01*
X0017321Y0031208D01*
X0017393Y0031245D01*
X0017468Y0031279D01*
X0017543Y0031309D01*
X0017621Y0031335D01*
X0017699Y0031358D01*
X0017778Y0031376D01*
X0017858Y0031391D01*
X0017939Y0031402D01*
X0018020Y0031409D01*
X0018102Y0031412D01*
X0018183Y0031411D01*
X0018264Y0031406D01*
X0018345Y0031397D01*
X0018426Y0031384D01*
X0018506Y0031367D01*
X0018584Y0031347D01*
X0018662Y0031322D01*
X0018739Y0031294D01*
X0018814Y0031262D01*
X0018887Y0031227D01*
X0018958Y0031188D01*
X0019028Y0031145D01*
X0019095Y0031100D01*
X0019161Y0031051D01*
X0019223Y0030999D01*
X0019283Y0030943D01*
X0019340Y0030885D01*
X0019395Y0030825D01*
X0019446Y0030761D01*
X0019494Y0030696D01*
X0019539Y0030628D01*
X0019581Y0030558D01*
X0019619Y0030486D01*
X0019654Y0030412D01*
X0019685Y0030337D01*
X0019712Y0030260D01*
X0019735Y0030182D01*
X0019755Y0030103D01*
X0019771Y0030023D01*
X0019783Y0029942D01*
X0019791Y0029861D01*
X0019795Y0029780D01*
X0019795Y0029698D01*
X0019791Y0029617D01*
X0019783Y0029536D01*
X0019771Y0029455D01*
X0019755Y0029375D01*
X0019735Y0029296D01*
X0019712Y0029218D01*
X0019685Y0029141D01*
X0019654Y0029066D01*
X0019619Y0028992D01*
X0019581Y0028920D01*
X0019539Y0028850D01*
X0019494Y0028782D01*
X0019446Y0028717D01*
X0019395Y0028653D01*
X0019340Y0028593D01*
X0019283Y0028535D01*
X0019223Y0028479D01*
X0019161Y0028427D01*
X0019095Y0028378D01*
X0019028Y0028333D01*
X0018959Y0028290D01*
X0018887Y0028251D01*
X0018814Y0028216D01*
X0018739Y0028184D01*
X0018662Y0028156D01*
X0018584Y0028131D01*
X0018506Y0028111D01*
X0018426Y0028094D01*
X0018345Y0028081D01*
X0018264Y0028072D01*
X0018183Y0028067D01*
X0018102Y0028066D01*
X0018020Y0028069D01*
X0017939Y0028076D01*
X0017858Y0028087D01*
X0017778Y0028102D01*
X0017699Y0028120D01*
X0017621Y0028143D01*
X0017543Y0028169D01*
X0017468Y0028199D01*
X0017393Y0028233D01*
X0017321Y0028270D01*
X0017250Y0028311D01*
X0017182Y0028355D01*
X0017116Y0028402D01*
X0017052Y0028453D01*
X0016990Y0028507D01*
X0016932Y0028563D01*
X0016876Y0028623D01*
X0016823Y0028685D01*
X0016773Y0028749D01*
X0016727Y0028816D01*
X0016683Y0028885D01*
X0016644Y0028956D01*
X0016607Y0029029D01*
X0016574Y0029103D01*
X0016545Y0029180D01*
X0016520Y0029257D01*
X0016498Y0029336D01*
X0016481Y0029415D01*
X0016467Y0029495D01*
X0016457Y0029576D01*
X0016451Y0029658D01*
X0016449Y0029739D01*
X0005228Y0033676D02*
X0005230Y0033771D01*
X0005236Y0033865D01*
X0005246Y0033960D01*
X0005260Y0034054D01*
X0005277Y0034147D01*
X0005299Y0034239D01*
X0005325Y0034330D01*
X0005354Y0034421D01*
X0005387Y0034509D01*
X0005424Y0034597D01*
X0005464Y0034683D01*
X0005508Y0034767D01*
X0005555Y0034849D01*
X0005606Y0034929D01*
X0005660Y0035007D01*
X0005718Y0035082D01*
X0005778Y0035155D01*
X0005842Y0035226D01*
X0005908Y0035294D01*
X0005977Y0035358D01*
X0006049Y0035420D01*
X0006123Y0035479D01*
X0006200Y0035535D01*
X0006279Y0035588D01*
X0006360Y0035637D01*
X0006443Y0035682D01*
X0006528Y0035725D01*
X0006615Y0035763D01*
X0006703Y0035798D01*
X0006792Y0035829D01*
X0006883Y0035857D01*
X0006975Y0035880D01*
X0007068Y0035900D01*
X0007161Y0035916D01*
X0007255Y0035928D01*
X0007350Y0035936D01*
X0007445Y0035940D01*
X0007539Y0035940D01*
X0007634Y0035936D01*
X0007729Y0035928D01*
X0007823Y0035916D01*
X0007916Y0035900D01*
X0008009Y0035880D01*
X0008101Y0035857D01*
X0008192Y0035829D01*
X0008281Y0035798D01*
X0008369Y0035763D01*
X0008456Y0035725D01*
X0008541Y0035682D01*
X0008624Y0035637D01*
X0008705Y0035588D01*
X0008784Y0035535D01*
X0008861Y0035479D01*
X0008935Y0035420D01*
X0009007Y0035358D01*
X0009076Y0035294D01*
X0009142Y0035226D01*
X0009206Y0035155D01*
X0009266Y0035082D01*
X0009324Y0035007D01*
X0009378Y0034929D01*
X0009429Y0034849D01*
X0009476Y0034767D01*
X0009520Y0034683D01*
X0009560Y0034597D01*
X0009597Y0034509D01*
X0009630Y0034421D01*
X0009659Y0034330D01*
X0009685Y0034239D01*
X0009707Y0034147D01*
X0009724Y0034054D01*
X0009738Y0033960D01*
X0009748Y0033865D01*
X0009754Y0033771D01*
X0009756Y0033676D01*
X0009754Y0033581D01*
X0009748Y0033487D01*
X0009738Y0033392D01*
X0009724Y0033298D01*
X0009707Y0033205D01*
X0009685Y0033113D01*
X0009659Y0033022D01*
X0009630Y0032931D01*
X0009597Y0032843D01*
X0009560Y0032755D01*
X0009520Y0032669D01*
X0009476Y0032585D01*
X0009429Y0032503D01*
X0009378Y0032423D01*
X0009324Y0032345D01*
X0009266Y0032270D01*
X0009206Y0032197D01*
X0009142Y0032126D01*
X0009076Y0032058D01*
X0009007Y0031994D01*
X0008935Y0031932D01*
X0008861Y0031873D01*
X0008784Y0031817D01*
X0008705Y0031764D01*
X0008624Y0031715D01*
X0008541Y0031670D01*
X0008456Y0031627D01*
X0008369Y0031589D01*
X0008281Y0031554D01*
X0008192Y0031523D01*
X0008101Y0031495D01*
X0008009Y0031472D01*
X0007916Y0031452D01*
X0007823Y0031436D01*
X0007729Y0031424D01*
X0007634Y0031416D01*
X0007539Y0031412D01*
X0007445Y0031412D01*
X0007350Y0031416D01*
X0007255Y0031424D01*
X0007161Y0031436D01*
X0007068Y0031452D01*
X0006975Y0031472D01*
X0006883Y0031495D01*
X0006792Y0031523D01*
X0006703Y0031554D01*
X0006615Y0031589D01*
X0006528Y0031627D01*
X0006443Y0031670D01*
X0006360Y0031715D01*
X0006279Y0031764D01*
X0006200Y0031817D01*
X0006123Y0031873D01*
X0006049Y0031932D01*
X0005977Y0031994D01*
X0005908Y0032058D01*
X0005842Y0032126D01*
X0005778Y0032197D01*
X0005718Y0032270D01*
X0005660Y0032345D01*
X0005606Y0032423D01*
X0005555Y0032503D01*
X0005508Y0032585D01*
X0005464Y0032669D01*
X0005424Y0032755D01*
X0005387Y0032843D01*
X0005354Y0032931D01*
X0005325Y0033022D01*
X0005299Y0033113D01*
X0005277Y0033205D01*
X0005260Y0033298D01*
X0005246Y0033392D01*
X0005236Y0033487D01*
X0005230Y0033581D01*
X0005228Y0033676D01*
D11*
X0034274Y0276613D02*
X0039274Y0276613D01*
X0041774Y0279113D01*
X0044274Y0276613D01*
X0049274Y0276613D01*
X0051774Y0279113D01*
X0054274Y0276613D01*
X0059274Y0276613D01*
X0061774Y0279113D01*
X0061774Y0284113D01*
X0059274Y0286613D01*
X0054274Y0286613D01*
X0051774Y0284113D01*
X0049274Y0286613D01*
X0044274Y0286613D01*
X0041774Y0284113D01*
X0039274Y0286613D01*
X0034274Y0286613D01*
X0031774Y0284113D01*
X0031774Y0279113D01*
X0034274Y0276613D01*
X0041774Y0279113D02*
X0041774Y0284113D01*
X0051774Y0284113D02*
X0051774Y0279113D01*
D12*
X0116853Y0175017D02*
X0118386Y0175017D01*
X0116853Y0175017D02*
X0116790Y0175015D01*
X0116727Y0175009D01*
X0116665Y0175000D01*
X0116604Y0174986D01*
X0116543Y0174969D01*
X0116484Y0174948D01*
X0116426Y0174923D01*
X0116369Y0174895D01*
X0116315Y0174864D01*
X0116263Y0174829D01*
X0116212Y0174791D01*
X0116164Y0174750D01*
X0116119Y0174706D01*
X0116077Y0174660D01*
X0116037Y0174611D01*
X0116001Y0174560D01*
X0115968Y0174506D01*
X0115938Y0174451D01*
X0115912Y0174393D01*
X0115889Y0174335D01*
X0115870Y0174275D01*
X0115855Y0174214D01*
X0115843Y0174152D01*
X0115835Y0174089D01*
X0115831Y0174026D01*
X0115831Y0173964D01*
X0115835Y0173901D01*
X0115843Y0173838D01*
X0115855Y0173776D01*
X0115870Y0173715D01*
X0115889Y0173655D01*
X0115912Y0173597D01*
X0115938Y0173539D01*
X0115968Y0173484D01*
X0116001Y0173430D01*
X0116037Y0173379D01*
X0116077Y0173330D01*
X0116119Y0173284D01*
X0116164Y0173240D01*
X0116212Y0173199D01*
X0116263Y0173161D01*
X0116315Y0173126D01*
X0116369Y0173095D01*
X0116426Y0173067D01*
X0116484Y0173042D01*
X0116543Y0173021D01*
X0116604Y0173004D01*
X0116665Y0172990D01*
X0116727Y0172981D01*
X0116790Y0172975D01*
X0116853Y0172973D01*
X0117875Y0172973D01*
X0117108Y0172973D02*
X0117038Y0172971D01*
X0116967Y0172965D01*
X0116898Y0172956D01*
X0116829Y0172942D01*
X0116760Y0172925D01*
X0116693Y0172904D01*
X0116627Y0172879D01*
X0116563Y0172851D01*
X0116500Y0172819D01*
X0116439Y0172784D01*
X0116380Y0172745D01*
X0116323Y0172704D01*
X0116269Y0172659D01*
X0116217Y0172611D01*
X0116168Y0172561D01*
X0116121Y0172507D01*
X0116078Y0172452D01*
X0116038Y0172394D01*
X0116001Y0172334D01*
X0115968Y0172272D01*
X0115938Y0172208D01*
X0115911Y0172143D01*
X0115888Y0172077D01*
X0115869Y0172009D01*
X0115854Y0171940D01*
X0115842Y0171871D01*
X0115834Y0171801D01*
X0115830Y0171730D01*
X0115830Y0171660D01*
X0115834Y0171589D01*
X0115842Y0171519D01*
X0115854Y0171450D01*
X0115869Y0171381D01*
X0115888Y0171313D01*
X0115911Y0171247D01*
X0115938Y0171182D01*
X0115968Y0171118D01*
X0116001Y0171056D01*
X0116038Y0170996D01*
X0116078Y0170938D01*
X0116121Y0170883D01*
X0116168Y0170829D01*
X0116217Y0170779D01*
X0116269Y0170731D01*
X0116323Y0170686D01*
X0116380Y0170645D01*
X0116439Y0170606D01*
X0116500Y0170571D01*
X0116563Y0170539D01*
X0116627Y0170511D01*
X0116693Y0170486D01*
X0116760Y0170465D01*
X0116829Y0170448D01*
X0116898Y0170434D01*
X0116967Y0170425D01*
X0117038Y0170419D01*
X0117108Y0170417D01*
X0118386Y0170417D01*
X0119707Y0170417D02*
X0120729Y0171440D01*
X0120218Y0171695D02*
X0120218Y0173740D01*
X0120217Y0173740D02*
X0120219Y0173810D01*
X0120225Y0173881D01*
X0120234Y0173950D01*
X0120248Y0174019D01*
X0120265Y0174088D01*
X0120286Y0174155D01*
X0120311Y0174221D01*
X0120339Y0174285D01*
X0120371Y0174348D01*
X0120406Y0174409D01*
X0120445Y0174468D01*
X0120486Y0174525D01*
X0120531Y0174579D01*
X0120579Y0174631D01*
X0120629Y0174680D01*
X0120683Y0174727D01*
X0120738Y0174770D01*
X0120796Y0174810D01*
X0120856Y0174847D01*
X0120918Y0174880D01*
X0120982Y0174910D01*
X0121047Y0174937D01*
X0121113Y0174960D01*
X0121181Y0174979D01*
X0121250Y0174994D01*
X0121319Y0175006D01*
X0121389Y0175014D01*
X0121460Y0175018D01*
X0121530Y0175018D01*
X0121601Y0175014D01*
X0121671Y0175006D01*
X0121740Y0174994D01*
X0121809Y0174979D01*
X0121877Y0174960D01*
X0121943Y0174937D01*
X0122008Y0174910D01*
X0122072Y0174880D01*
X0122134Y0174847D01*
X0122194Y0174810D01*
X0122252Y0174770D01*
X0122307Y0174727D01*
X0122361Y0174680D01*
X0122411Y0174631D01*
X0122459Y0174579D01*
X0122504Y0174525D01*
X0122545Y0174468D01*
X0122584Y0174409D01*
X0122619Y0174348D01*
X0122651Y0174285D01*
X0122679Y0174221D01*
X0122704Y0174155D01*
X0122725Y0174088D01*
X0122742Y0174019D01*
X0122756Y0173950D01*
X0122765Y0173881D01*
X0122771Y0173810D01*
X0122773Y0173740D01*
X0122773Y0171695D01*
X0122771Y0171625D01*
X0122765Y0171554D01*
X0122756Y0171485D01*
X0122742Y0171416D01*
X0122725Y0171347D01*
X0122704Y0171280D01*
X0122679Y0171214D01*
X0122651Y0171150D01*
X0122619Y0171087D01*
X0122584Y0171026D01*
X0122545Y0170967D01*
X0122504Y0170910D01*
X0122459Y0170856D01*
X0122411Y0170804D01*
X0122361Y0170755D01*
X0122307Y0170708D01*
X0122252Y0170665D01*
X0122194Y0170625D01*
X0122134Y0170588D01*
X0122072Y0170555D01*
X0122008Y0170525D01*
X0121943Y0170498D01*
X0121877Y0170475D01*
X0121809Y0170456D01*
X0121740Y0170441D01*
X0121671Y0170429D01*
X0121601Y0170421D01*
X0121530Y0170417D01*
X0121460Y0170417D01*
X0121389Y0170421D01*
X0121319Y0170429D01*
X0121250Y0170441D01*
X0121181Y0170456D01*
X0121113Y0170475D01*
X0121047Y0170498D01*
X0120982Y0170525D01*
X0120918Y0170555D01*
X0120856Y0170588D01*
X0120796Y0170625D01*
X0120738Y0170665D01*
X0120683Y0170708D01*
X0120629Y0170755D01*
X0120579Y0170804D01*
X0120531Y0170856D01*
X0120486Y0170910D01*
X0120445Y0170967D01*
X0120406Y0171026D01*
X0120371Y0171087D01*
X0120339Y0171150D01*
X0120311Y0171214D01*
X0120286Y0171280D01*
X0120265Y0171347D01*
X0120248Y0171416D01*
X0120234Y0171485D01*
X0120225Y0171554D01*
X0120219Y0171625D01*
X0120217Y0171695D01*
M02*
